<?xml version="1.0" standalone="no"?>
<!DOCTYPE svg PUBLIC "-//W3C//DTD SVG 20010904//EN"
 "http://www.w3.org/TR/2001/REC-SVG-20010904/DTD/svg10.dtd">
<svg version="1.0" xmlns="http://www.w3.org/2000/svg"
 width="567.000000pt" height="567.000000pt" viewBox="0 0 567.000000 567.000000"
 preserveAspectRatio="xMidYMid meet">
<metadata>
Created by potrace 1.11, written by Peter Selinger 2001-2013
</metadata>
<g transform="translate(0.000000,567.000000) scale(0.100000,-0.100000)"
fill="#000000" stroke="none">
<path d="M3605 5363 c-362 -48 -680 -193 -1062 -481 -66 -49 -136 -105 -156
-125 -35 -32 -37 -38 -37 -93 0 -98 -39 -126 -125 -90 -35 15 -35 15 -35 -12
1 -15 9 -117 20 -227 11 -117 15 -204 10 -209 -12 -12 -58 39 -132 147 -34 49
-72 96 -85 104 -28 18 -12 30 -218 -167 -66 -63 -161 -151 -210 -194 -149
-131 -335 -345 -335 -385 0 -29 27 -80 94 -175 31 -44 56 -88 56 -99 0 -17 -5
-18 -37 -12 -21 3 -84 20 -139 36 -56 16 -107 29 -113 29 -6 0 -11 -14 -11
-31 0 -59 -23 -110 -81 -175 -53 -60 -61 -76 -103 -204 -84 -256 -111 -436
-111 -735 1 -387 51 -637 212 -1049 65 -168 104 -235 175 -302 68 -64 120 -94
260 -150 206 -83 240 -105 383 -249 137 -138 189 -173 290 -200 124 -32 244
-13 400 65 280 139 536 407 1065 1115 392 525 674 956 935 1430 48 88 122 223
165 300 231 417 250 531 125 759 -49 90 -75 176 -75 246 0 25 11 115 25 200
31 194 32 274 2 361 -97 284 -414 503 -817 564 -87 14 -263 18 -335 8z m-76
-655 c1 -27 3 -48 6 -48 3 0 49 7 103 16 243 39 461 -49 586 -238 58 -86 79
-158 80 -273 1 -130 -17 -187 -145 -444 -372 -749 -799 -1409 -1420 -2198 -57
-72 -133 -172 -167 -222 -79 -112 -190 -219 -268 -257 -55 -27 -67 -29 -174
-29 -104 0 -120 3 -173 27 -146 68 -214 166 -328 469 -118 314 -155 521 -146
813 5 172 20 280 58 409 11 38 18 71 16 74 -3 2 -56 -10 -117 -27 -61 -17
-114 -29 -118 -26 -9 9 36 53 128 124 206 159 209 162 295 292 75 113 236 310
253 310 4 0 20 11 36 23 l29 24 -24 66 c-13 36 -20 69 -16 73 6 6 41 -15 103
-61 11 -7 46 22 146 121 365 359 614 573 843 723 55 36 102 67 104 69 3 1 -42
50 -99 107 -65 65 -98 105 -88 105 10 0 84 -25 165 -56 157 -59 241 -76 259
-53 6 8 16 37 23 64 6 28 17 63 23 79 10 26 13 27 19 10 4 -10 8 -40 8 -66z"/>
<path d="M3636 4334 c-93 -18 -264 -103 -400 -198 -199 -140 -390 -305 -713
-618 -104 -101 -221 -209 -261 -241 -119 -96 -251 -264 -329 -422 -93 -185
-133 -360 -133 -580 0 -239 32 -398 131 -660 91 -238 109 -265 176 -265 44 0
101 57 201 200 40 58 147 200 238 315 481 614 814 1121 1157 1763 173 325 237
467 237 527 0 88 -53 153 -147 181 -55 17 -67 16 -157 -2z"/>
</g>
</svg>
