<?xml version="1.0" encoding="utf-8"?>
<!-- Generator: Adobe Illustrator 25.0.0, SVG Export Plug-In . SVG Version: 6.00 Build 0)  -->
<svg version="1.1" id="圖層_1" xmlns="http://www.w3.org/2000/svg" xmlns:xlink="http://www.w3.org/1999/xlink" x="0px" y="0px"
	 viewBox="0 0 185 35" style="enable-background:new 0 0 185 35;" xml:space="preserve">
<style type="text/css">
	.st0{fill:#FFFFFF;}
</style>
<g>
	<path class="st0" d="M2.5,29.62l0.49-0.28l-0.08-0.4c1.03-0.4,2.13-0.64,3.22-0.88c1.07-0.24,2.15-0.42,3.2-0.62
		c0.06,0.08,0.06,0.08,0.06,0.1c0,0.02-0.02,0.02-0.04,0.04c0,0.02,0,0.06-0.02,0.1c0.41-0.02,0.79-0.06,1.2-0.08
		c0.24-0.02,0.45-0.1,0.55-0.32c0.06-0.18,0.18-0.24,0.32-0.26l1.62-0.24c0.34-0.04,0.67-0.1,1.01-0.12c0.32-0.02,0.63,0,0.95,0
		c0.18,0,0.36,0.02,0.55,0c0.49-0.08,0.95-0.2,1.44-0.28c-0.22-0.24-0.61,0.16-0.87-0.2c0.59-0.1,1.16-0.18,1.7-0.26
		c1.3-0.16,2.61-0.34,3.91-0.48c0.51-0.04,0.79-0.26,0.99-0.7c0.65-1.52,1.3-3.03,1.99-4.55l5.96-13.04c0.14-0.3,0.26-0.6,0.41-0.94
		c-0.51-0.12-0.95-0.26-1.44-0.18c-1.03,0.14-2.05,0.32-3.04,0.6c-1.05,0.28-2.15,0.46-3.22,0.68c-0.16,0.04-0.32,0.12-0.49,0.16
		c-0.51-0.2-0.51-0.2-0.41-0.68c-0.1-0.12-0.41-0.06-0.3-0.4c0.39-0.44,0.93-0.68,1.54-0.78c1.28-0.2,2.55-0.4,3.83-0.56
		c1.4-0.18,2.8-0.32,4.24-0.48c0.2-0.4,0.36-0.76,0.55-1.1l0.63,0.22l-0.18,0.48c0.3,0.16,0.59,0.26,0.93,0.24
		c1.16-0.04,2.33-0.06,3.49-0.12c-0.2-0.04-0.43-0.06-0.63-0.08c1.4-0.1,2.8-0.3,4.32-0.02c-0.22,0.02-0.3,0.06-0.41,0.04
		c-0.81-0.2-1.62,0.04-2.45,0.08c-0.3,0.02-0.63,0.14-0.93,0.26h0.47c0.93-0.08,1.84-0.06,2.78,0.02c0.61,0.06,1.24,0.14,1.84,0.24
		c0.24,0.04,0.49,0.2,0.75,0.3c-0.16,0.38-0.53,0.44-0.77,0.68c-0.99-0.4-2.01-0.22-3-0.18c-1.2,0.06-2.39,0.2-3.59,0.3l-2.23,0.12
		c-0.12,0-0.24,0.04-0.43,0.06c-0.65,1.42-1.28,2.84-1.93,4.25c-0.67,1.42-1.34,2.84-1.99,4.25c-0.65,1.4-1.26,2.82-1.9,4.21
		c-0.63,1.42-1.28,2.82-2.01,4.19c0.08-0.3,0.18-0.58,0.26-0.88c-0.04,0-0.08-0.02-0.1-0.04c-0.43,0.62-0.75,1.28-0.95,1.98
		c-0.1,0.38-0.18,0.76-0.06,1.16c0.04,0.1-0.06,0.24-0.1,0.42c0.28,0,0.57,0.02,0.85-0.02c0.57-0.04,1.16-0.1,1.72-0.2
		c0.65-0.1,1.3-0.26,1.95-0.38c0.34-0.38,0.83-0.36,1.3-0.4c3.16-0.2,6.32-0.4,9.48-0.36c0.61,0,1.22,0.02,1.82,0.04
		c0.32,0,0.65,0.04,0.93,0.2c0.1,0.34,0,0.6-0.26,0.82c0.04,0.1,0.08,0.2,0.14,0.3c0.14,0.24,0.04,0.44-0.14,0.6
		c-0.08,0.06-0.2,0.12-0.3,0.16c-0.87,0.32-1.78,0.56-2.78,0.48c-0.16-0.44-0.51-0.74-1.09-1.04c-0.28,0-0.81-0.12-1.26,0.02
		c-0.49,0.16-0.95,0.14-1.44,0.2c-0.16,0.02-0.32-0.04-0.49-0.14c0.39-0.02,0.79-0.04,1.32-0.08c-0.34-0.26-0.65-0.24-0.91-0.26
		c-0.47-0.06-0.95-0.1-1.42-0.04c-0.32,0.04-0.67,0.18-0.93,0.36c-0.28,0.18-0.57,0.28-0.89,0.3c-1.52,0.12-3.02,0.22-4.52,0.34
		c-1.24,0.1-2.47,0.12-3.69,0.38c-0.95,0.18-1.9,0.12-2.86,0.26c-2.55,0.4-5.11,0.74-7.64,1.08c-0.67,0.1-1.32,0.16-1.99,0.24
		l-0.16,0.04c-1.62,0.52-3.3,0.72-4.94,1.14c-0.61,0.16-1.22,0.32-1.82,0.44c-0.22,0.04-0.45,0.18-0.71,0
		c-0.12-0.08-0.43,0.1-0.67,0.16L2.5,29.62z M10.83,27.88c-0.47,0.1-0.47,0.1-0.39,0.32L10.83,27.88z M21.81,25.86l-0.83,0.06
		C21.24,25.99,21.55,26.08,21.81,25.86z"/>
	<path class="st0" d="M40.66,17.64c-0.36,1.36-0.71,2.7-1.05,4.05l-0.24,0.94c-0.04,0.18-0.08,0.38-0.02,0.54
		c0.1,0.4,0,0.7-0.32,1.02c-0.24,0.12-0.55,0.18-0.79-0.1c-0.06-0.08-0.16-0.1-0.24-0.14c-0.39-0.18-0.49-0.36-0.41-0.76l0.53-2.14
		c0.14-0.6,0.3-1.18,0.49-1.78c0.08-0.34,0.12-0.72,0.41-1c0.06-0.04,0.1-0.16,0.1-0.24c0.08-0.22,0.14-0.48,0.18-0.72
		c0.02-0.22-0.02-0.42-0.04-0.64c-0.36-0.06-0.63,0.04-0.89,0.16c-1.68,0.76-3.12,1.84-4.34,3.22c-0.1,0.12-0.24,0.28-0.41,0.34
		c-0.3,0.12-0.47-0.02-0.45-0.34c0.06-0.4,0.16-0.8,0.26-1.2c0.18-0.84,0.63-1.6,1.01-2.36l0.55-1.02c-0.04,0-0.12,0.02-0.22,0.02
		c0.36-0.68,0.71-1.36,1.28-1.94c0.12,0.1,0.18,0.16,0.3,0.3c-0.18,0.16-0.34,0.3-0.51,0.46c0.22,0.36,0.14,0.76,0.06,1.16
		c0.3-0.44,0.63-0.8,0.93-1.26c0.02,0.08,0.04,0.18,0.04,0.26c0,0.08-0.1,0.18-0.08,0.2c0.26,0.4-0.04,0.64-0.26,0.9
		c-0.14,0.2-0.26,0.44-0.32,0.68l1.09-0.54c-0.08,0.22-0.12,0.3-0.18,0.48c0.3-0.1,0.59-0.2,0.89-0.32
		c-0.1-0.08-0.16-0.12-0.24-0.16c0.77-1.06,2.03-0.68,2.51,0.02C40.66,16.3,40.84,16.94,40.66,17.64z M35.19,15.12
		c-0.04,0.08-0.1,0.12-0.16,0.2c-0.02,0.04,0,0.08,0,0.14C35.17,15.4,35.31,15.32,35.19,15.12z"/>
	<path class="st0" d="M37.56,21.51c0.18-0.26,0.12-0.56,0.28-0.82c0.12-0.2,0.2-0.34,0.45-0.34c0.63-0.02,1.26-0.12,1.86-0.04
		c0.69,0.1,1.28-0.1,1.88-0.32c1.18-0.48,1.24-0.78,1.09-1.94c-0.06-0.44-0.22-0.88-0.3-1.32c-0.1-0.56-0.32-1.12-0.18-1.78
		c0.04,0.16,0.06,0.24,0.1,0.36c0.73-1.14,1.84-1.72,3.1-2.1c-0.04-0.04-0.06-0.08-0.1-0.14L45.77,13c0.49-0.14,1.05-0.34,1.5-0.02
		c0.41,0.26,0.95,0.54,0.91,1.22c-0.1,0.32-0.34,0.54-0.77,0.54c-0.04-0.08-0.06-0.18-0.1-0.24c-1.11,0.06-2.21,0.14-3.24,0.72
		c0,0.02-0.02,0.1-0.02,0.16l0.3,2.92c0.04,0.36,0.1,0.72,0.14,1.08c0.02,0.16,0.04,0.32,0,0.46c-0.34,0.9-0.91,1.54-1.88,1.84
		c-0.85,0.26-1.72,0.36-2.59,0.34c-0.34-0.02-0.67,0.04-0.99,0.08C38.43,22.13,38.01,21.83,37.56,21.51z M43.44,14.92
		c0,0,0-0.02-0.02-0.04l-0.06,0.06c0,0.02,0.02,0.04,0.04,0.06C43.4,14.98,43.42,14.96,43.44,14.92z"/>
	<path class="st0" d="M43.11,32.26c-0.2,0-0.34-0.26-0.34-0.5c0.02-0.38,0.02-0.76,0.1-1.14c0.08-0.48,0.2-0.96,0.36-1.42
		c1.07-3.26,2.49-6.33,4.42-9.17c0.36-0.56,0.73-1.12,0.95-1.76c0.3-0.74,0.69-1.46,0.95-2.22c0.32-0.9,0.59-1.82,0.87-2.72
		c-0.18-0.48,0.14-0.82,0.34-1.2c0.16-0.3,0.41-0.38,0.69-0.2c0.12,0.08,0.24,0.18,0.36,0.28c-0.08,0.42,0.22,0.82,0.04,1.28
		c-0.16,0.4-0.24,0.84-0.36,1.26c-0.1,0.3-0.22,0.62-0.26,0.98c0.1-0.06,0.2-0.12,0.28-0.2c0.51-0.42,1.07-0.78,1.68-1.04
		c0.39-0.18,0.79-0.26,1.24-0.24c0.53,0.04,0.71,0.16,1.03,0.66c0.49,0,0.69,0.3,0.85,0.72c0.24,0.62,0.2,1.2,0,1.8
		c-0.45,1.18-1.16,2.14-2.17,2.88c-0.83,0.6-1.72,1.06-2.67,1.44c-0.89,0.36-1.72,0.38-2.57-0.16c-0.49,1.24-0.95,2.44-1.44,3.63
		c-0.63,1.54-1.26,3.08-1.9,4.59c-0.32,0.74-0.71,1.44-1.09,2.16c-0.08,0.16-0.2,0.32-0.32,0.42C43.76,32.7,43.48,32.26,43.11,32.26
		z M53.45,18.6c0.59-0.46,1.07-1.02,1.4-1.68c0.14-0.3,0.2-0.62-0.06-0.96c-0.85,0.04-1.5,0.48-2.13,0.96
		c-1.11,0.84-2.05,1.9-2.9,2.98c-0.06,0.08-0.1,0.2-0.14,0.3c0.32,0.24,0.63,0.12,0.91,0.02C51.58,19.83,52.58,19.29,53.45,18.6z
		 M54.62,14.84c-0.67-0.12-1.2,0.02-1.76,0.4L54.62,14.84z"/>
	<path class="st0" d="M57.32,21.67c-0.22-0.58-0.16-1.18-0.12-1.78c0.12-1.38,0.73-2.6,1.4-3.79c0.14-0.26,0.24-0.52,0.39-0.78
		c0.14-0.3,0.34-0.6,0.61-0.84c0.08,0.08,0.39,0.16,0.49,0.24c-0.2,0.18-0.41,0.32-0.67,0.54l0.22,0.14
		c0.08-0.08,0.16-0.16,0.22-0.24c0.08-0.12,0.26,0.04,0.3-0.12c0.06-0.12,0.16-0.18,0.28-0.12c0.12,0.36,0.1,0.46-0.14,0.68
		c-0.1,0.1-0.18,0.2-0.26,0.34c-0.14,0.22-0.26,0.48-0.43,0.72l-0.08-0.22c-0.28,0.58-0.57,1.08-0.79,1.64
		c-0.08,0.18-0.04,0.42-0.04,0.64c0,0.08,0.02,0.18,0,0.24c-0.16,0.36-0.16,0.74-0.2,1.12c-0.06,0.48,0,0.96,0.14,1.44
		c0,0.06,0.04,0.12,0.08,0.18c0.28-0.02,0.47-0.12,0.59-0.34c-0.06-0.04-0.12-0.04-0.12-0.04l0.61-0.52c0.14,0.14-0.18,0.2-0.2,0.4
		c0.22,0.06,0.49,0.06,0.77,0.04c-0.14,0.16-0.22,0.32-0.32,0.42c-0.24,0.2-0.51,0.36-0.73,0.54c-0.06,0.04-0.1,0.08-0.14,0.1
		C58.42,22.71,57.6,22.47,57.32,21.67z M60.5,12.98c-0.1,0-0.2,0.06-0.24,0.02c-0.08-0.02-0.16-0.14-0.14-0.22
		c0.02-0.38,0.12-0.76,0.45-1.02c0.3,0.04,0.45,0.22,0.53,0.54c0.12-0.22,0.26-0.3,0.49-0.2c0.04,0.18,0.14,0.36,0.06,0.56
		c-0.14,0.26-0.36,0.44-0.57,0.6C60.87,13.42,60.68,13.28,60.5,12.98z"/>
	<path class="st0" d="M70.72,15.38c0,0.46-0.36,0.96-0.89,1.12c-0.08-0.12-0.18-0.24-0.26-0.38c-0.04,0-0.06-0.02-0.1-0.02
		c-0.18-0.02-0.39,0.18-0.57-0.02c-0.02-0.02-0.16,0.04-0.24,0.08c-0.28,0.12-0.57,0.26-0.85,0.42c-0.65,0.34-1.2,0.8-1.72,1.28
		v-0.02c-0.18,0.26-0.34,0.54-0.57,0.78c-0.28,0.36-0.63,0.66-0.93,1c-0.2,0.24-0.39,0.5-0.51,0.76c-0.24,0.54-0.57,1.02-0.87,1.54
		l-0.73-0.4c-0.08-0.3-0.18-0.64-0.26-1c0.85-2.28,2.09-4.41,2.8-6.79l0.63,0.3c-0.02,0.12-0.02,0.26-0.04,0.42
		c0.18,0.04,0.36,0.06,0.61,0.1c-0.1,0.44-0.2,0.84-0.32,1.3c0.14-0.1,0.26-0.18,0.36-0.26c0.73-0.62,1.58-1.06,2.53-1.24
		c0.24-0.06,0.49-0.08,0.71-0.06c0.12,0,0.24,0.08,0.32,0.18c0.14,0.14,0.24,0.34,0.39,0.5c0.06,0.06,0.2,0.04,0.3,0.08
		C70.66,15.1,70.72,15.2,70.72,15.38z M66.08,17.84c-0.02-0.06-0.04-0.1-0.06-0.2c-0.55,0.32-0.93,0.78-1.34,1.22
		c-0.08,0.08-0.08,0.24-0.14,0.5c0.47-0.5,0.81-0.92,1.2-1.32C65.81,17.96,65.95,17.92,66.08,17.84z M69.74,14.64
		c-0.3-0.24-0.53-0.14-0.75-0.1c-0.85,0.2-1.64,0.5-2.41,1.1C67.68,15.28,68.67,14.98,69.74,14.64z"/>
	<path class="st0" d="M73.09,21.11c0.04-0.06,0.08-0.1,0.12-0.18c-0.41-0.28-0.63-0.74-1.13-0.9c-0.12-0.04-0.2-0.2-0.3-0.3
		c-0.14-0.16-0.28-0.34-0.41-0.5c-0.06-0.08-0.08-0.18-0.1-0.26c-0.02-0.18-0.02-0.34-0.04-0.52c-0.39-0.02-0.83,0.3-1.18-0.18
		c0.02-0.14,0.02-0.32,0.04-0.52c0.14-0.1,0.28-0.2,0.43-0.32l-0.02,0.02c0.43,0.02,0.87,0.04,1.26-0.2
		c0.12-0.06,0.26-0.12,0.34-0.22c0.39-0.42,0.83-0.78,1.32-1.08c0.43-0.3,0.83-0.62,1.13-1.04c0.12-0.18,0.26-0.32,0.43-0.44
		c0.34-0.26,0.69-0.5,1.03-0.72c0.43-0.28,0.87-0.52,1.32-0.76c0.28-0.16,0.57-0.16,0.85,0c0.18,0.1,0.36,0.18,0.53,0.26
		c-0.08,0.06-0.28-0.12-0.26,0.22l0.26-0.22c0.59,0.3,0.71,0.68,0.45,1.26c-0.16,0.36-0.41,0.64-0.69,0.9
		c-0.79,0.72-1.7,1.28-2.63,1.82c-0.91,0.52-1.9,0.84-2.84,1.24c-0.1,0.04-0.22,0.08-0.3,0.12c0.02,1.06,0.63,1.54,2.17,1.66
		c-0.06-0.06-0.08-0.12-0.14-0.18c0.43-0.08,0.83-0.12,1.22-0.24c0.39-0.1,0.77-0.28,1.2-0.42c0.16,0.1,0.36,0.24,0.57,0.4
		c0.39,0.3,0.39,0.8-0.02,1.02c-0.75,0.44-1.56,0.66-2.43,0.66h-0.73C74,21.49,73.55,21.27,73.09,21.11z M72.28,18.7
		c-0.18,0.08-0.12,0.2-0.06,0.36C72.24,18.9,72.26,18.8,72.28,18.7z M76.05,15.5l-0.06-0.24c-0.75,0.42-1.4,0.9-1.97,1.46
		C74.79,16.44,75.68,15.88,76.05,15.5z"/>
	<path class="st0" d="M95.06,4.58c-0.36,1.18-0.95,2.26-1.56,3.32c-0.89,1.54-1.82,3.06-2.9,4.49c-0.06,0.08-0.12,0.18-0.16,0.28
		c-0.83,1.92-1.58,3.87-2.21,5.87c0,0.02,0,0.06-0.02,0.14c0.22,0.24,0.45,0.5,0.67,0.76c-0.22,0.82-0.61,1.52-1.11,2.14
		c-0.3,0.38-0.61,0.42-1.05,0.2c-0.04-0.02-0.1-0.08-0.14-0.06c-0.18,0.04-0.34-0.02-0.43-0.16c-0.08-0.16-0.12-0.34-0.1-0.52
		c0.06-0.48,0.1-0.98,0.24-1.44c0.18-0.62,0.43-1.24,0.63-1.84c0.08-0.22,0.14-0.42,0.14-0.68c-0.12,0.12-0.24,0.24-0.34,0.36
		c-1.18,1.32-2.37,2.58-3.77,3.65c-0.51,0.4-1.05,0.74-1.66,0.96c-0.61,0.24-1.16,0.02-1.68-0.22c-0.32-0.16-0.41-0.46-0.39-0.84
		c0.08-1.06,0.55-1.98,1.13-2.84c1.34-1.94,3.06-3.41,5.27-4.35c0.69-0.28,1.42-0.48,2.21-0.44c0.55-0.78,1.2-1.48,1.56-2.36
		c0.45-1.04,0.95-2.06,1.46-3.06c0.26-0.52,0.57-1.02,0.89-1.5c0.12-0.2,0.36-0.28,0.49-0.54c0.32-0.62,0.71-1.2,0.95-1.86
		c0.16-0.46,0.36-0.66,0.79-0.98L94.1,3.4C94.83,3.38,95.28,3.9,95.06,4.58z M80.55,19.81l-0.06-0.2c-0.02,0.02-0.06,0.02-0.08,0.04
		l0.06,0.18C80.51,19.83,80.53,19.81,80.55,19.81z M80.89,18.94c-0.16,0.08-0.2,0.24-0.26,0.4l0.1,0.06L80.89,18.94z M81.03,18.64
		c-0.04,0.08-0.06,0.14-0.08,0.22l0.16-0.18C81.09,18.66,81.05,18.66,81.03,18.64z M85.86,15.7c-1.48,0.52-3.95,2.64-4.8,4.45
		C83,18.94,84.46,17.34,85.86,15.7z M81.66,18.02c0.04-0.08,0.08-0.12,0.12-0.2C81.68,17.84,81.56,17.82,81.66,18.02z M81.82,17.78
		c0.08-0.06,0.28-0.08,0.1-0.34L81.82,17.78z M86.18,15.88c-0.83,0.8-1.54,1.62-2.19,2.5l0.1,0.1c0.39-0.4,0.75-0.82,1.13-1.22
		C86.1,16.32,86.14,16.28,86.18,15.88z"/>
	<path class="st0" d="M111.43,4.14c-0.12-0.04-0.24-0.06-0.39-0.1l-0.06,0.1c-0.49,0.9-0.97,1.78-1.48,2.66
		c-0.75,1.32-1.52,2.6-2.29,3.89c-0.04,0.08-0.06,0.18-0.08,0.26v-0.02c-0.1,0.12-0.2,0.24-0.28,0.36c-0.45,0.72-0.87,1.44-1.3,2.16
		c-0.12,0.2-0.18,0.44-0.26,0.66l-0.32,1.02c0.26,0,0.39-0.14,0.53-0.22c0.61-0.38,1.22-0.68,1.95-0.76
		c0.47-0.04,0.89,0.04,1.28,0.32c0.1,0.06,0.2,0.14,0.32,0.18c0.61,0.28,0.87,0.78,0.97,1.42c0.18,0.98-0.08,1.88-0.49,2.76
		c-0.79,1.68-1.93,3.06-3.67,3.85c-0.3,0.14-0.63,0.24-0.95,0.32c-0.32,0.08-0.65,0.12-0.99-0.04c-0.1-0.04-0.24-0.02-0.36-0.04
		c-0.26-0.04-0.53-0.06-0.75-0.16c-0.63-0.28-1.18-0.7-1.64-1.22c-0.57-0.66-0.32-1.72,0.08-2.2c0.12-0.14,0.34-0.22,0.53-0.3
		c0.12-0.06,0.26-0.08,0.43-0.1c-0.18-0.44-0.12-0.84,0.06-1.24c0.14-0.34,0.32-0.68,0.51-1.02c1.93-3.67,3.87-7.35,5.82-11.02
		c0.43-0.8,0.85-1.58,1.3-2.38c0.16-0.28,0.32-0.58,0.65-0.78c0.28,0.24,0.77,0.2,0.93,0.68l-0.55,0.12
		C111.13,3.54,111.68,3.58,111.43,4.14z M102.05,20.29c0-0.02,0-0.04-0.02-0.06l-0.43,0.12c0.02,0.02,0.04,0.04,0.04,0.08
		C101.79,20.37,101.93,20.33,102.05,20.29z M107.3,15.74c-1.03,0.46-1.99,1.06-2.78,1.9c-0.34,0.38-0.69,0.76-1.03,1.12
		c-0.1,0.1-0.2,0.16-0.3,0.24c-0.04,0-0.08-0.02-0.1-0.04c0.08-0.26,0.16-0.54,0.06-0.86c-0.3,0.4-0.65,0.7-0.87,1.1
		c-0.06,0.1-0.12,0.2-0.28,0.2c-0.1,0-0.18,0.08-0.3,0.14h0.77v0.24c0.28-0.04,0.26-0.44,0.59-0.38c0.22,0.26,0.28,0.54,0.06,0.86
		c-0.28,0.14-0.75-0.04-0.93,0.4c0.22,0.48,0.57,0.84,1.09,0.98c0.1,0.02,0.18,0.08,0.28,0.12c0.34,0.16,0.69,0.34,1.07,0.02
		c0.08-0.06,0.2-0.08,0.3-0.1c0.43-0.14,0.77-0.38,1.07-0.7c0.45-0.5,0.91-0.96,1.36-1.46c0.39-0.44,0.83-0.86,1.03-1.44
		c0-0.02,0.04-0.04,0.06-0.04c0.04,0.02,0.06,0.02,0.12,0.06c-0.12-0.28,0.08-0.46,0.18-0.66l0.06,0.66
		c0.06-0.18,0.12-0.3,0.14-0.42c0.08-0.4,0.16-0.78,0.22-1.18c0.08-0.44-0.2-0.84-0.65-0.9C108.11,15.56,107.7,15.56,107.3,15.74z
		 M102.05,20.43c-0.28,0.22-0.28,0.22-0.06,0.5L102.05,20.43z M102.9,17.9c0.24-0.2,0.45-0.34,0.47-0.68
		C103.1,17.38,102.98,17.6,102.9,17.9z M103.93,15.9l0.08,0.06c0.12-0.12,0.28-0.2,0.18-0.48L103.93,15.9z M104.56,16.18
		c-0.14,0.12-0.18,0.28-0.14,0.54c0.1-0.14,0.12-0.22,0.18-0.26c0.59-0.46,1.13-0.94,1.86-1.22c0.3-0.12,0.61-0.3,0.91-0.48
		c-0.2,0.02-0.45,0.02-0.65,0.1C105.88,15.1,105.23,15.68,104.56,16.18z M106.73,15.48c-0.24,0.12-0.43,0.2-0.61,0.28
		C106.57,15.8,106.57,15.8,106.73,15.48z M107.5,14.74c0.1,0,0.22-0.02,0.34-0.02c0-0.04-0.02-0.06-0.02-0.08L107.5,14.74z
		 M108.39,15.2c0.14,0.04,0.26,0.06,0.39,0.1C108.62,15.14,108.62,15.14,108.39,15.2z M109.87,4.14c-0.08,0.16-0.28,0.28-0.2,0.58
		C109.77,4.5,109.93,4.36,109.87,4.14z"/>
	<path class="st0" d="M107.2,30.34v-0.58c-0.22,0.26-0.41,0.46-0.57,0.66c0-0.42,0.45-0.62,0.47-1.08
		c-0.16,0.08-0.26,0.14-0.41,0.22c0.02-0.08,0-0.14,0.04-0.18c0.81-1.08,1.62-2.16,2.45-3.21l3.51-4.55
		c0.55-0.7,1.09-1.38,1.62-2.06l0.14-0.2l-0.47,0.06c-0.37,0.02-0.67-0.1-0.97-0.3c-0.75-0.46-0.99-1.14-0.95-1.96
		c0.04-0.58,0.06-1.16,0.1-1.72c0.02-0.24,0.51-1.14,0.65-1.28c0.14-0.12,0.26-0.26,0.49-0.16c0.16,0.08,0.22,0.18,0.22,0.48
		c0.2,0.14,0.41,0.28,0.59,0.38c0.1,0.42,0,0.7-0.26,0.96c-0.08,0.08-0.14,0.22-0.16,0.32c-0.04,0.48-0.06,0.94-0.08,1.46
		c0.51-0.04,0.83-0.26,1.2-0.46c1.6-0.9,2.86-2.2,4.13-3.45c0.22-0.22,0.47-0.4,0.71-0.62c0.28,0.32,0.59,0.56,0.71,0.88
		c0.1,0.26,0.18,0.6-0.08,0.9c-0.41,0.46-0.77,0.94-1.13,1.42l-8.41,10.72l-2.23,2.86c-0.18,0.24-0.41,0.46-0.61,0.68
		C107.67,30.3,107.44,30.44,107.2,30.34z M112.73,17.68c-0.18-0.4-0.26-0.82-0.24-1.26c0.02-0.22,0-0.46,0-0.7
		c-0.12,0.86-0.1,1.72,0.26,2.56C112.87,18.04,112.83,17.86,112.73,17.68z"/>
	<path class="st0" d="M136.44,17.64c-0.36,1.36-0.71,2.7-1.05,4.05l-0.24,0.94c-0.04,0.18-0.08,0.38-0.02,0.54
		c0.1,0.4,0,0.7-0.32,1.02c-0.24,0.12-0.55,0.18-0.79-0.1c-0.06-0.08-0.16-0.1-0.24-0.14c-0.38-0.18-0.49-0.36-0.41-0.76l0.53-2.14
		c0.14-0.6,0.3-1.18,0.49-1.78c0.08-0.34,0.12-0.72,0.41-1c0.06-0.04,0.1-0.16,0.1-0.24c0.08-0.22,0.14-0.48,0.18-0.72
		c0.02-0.22-0.02-0.42-0.04-0.64c-0.37-0.06-0.63,0.04-0.89,0.16c-1.68,0.76-3.12,1.84-4.34,3.22c-0.1,0.12-0.24,0.28-0.41,0.34
		c-0.3,0.12-0.47-0.02-0.44-0.34c0.06-0.4,0.16-0.8,0.26-1.2c0.18-0.84,0.63-1.6,1.01-2.36l0.55-1.02c-0.04,0-0.12,0.02-0.22,0.02
		c0.36-0.68,0.71-1.36,1.28-1.94c0.12,0.1,0.18,0.16,0.3,0.3c-0.18,0.16-0.34,0.3-0.51,0.46c0.22,0.36,0.14,0.76,0.06,1.16
		c0.3-0.44,0.63-0.8,0.93-1.26c0.02,0.08,0.04,0.18,0.04,0.26c0,0.08-0.1,0.18-0.08,0.2c0.26,0.4-0.04,0.64-0.26,0.9
		c-0.14,0.2-0.26,0.44-0.32,0.68l1.1-0.54c-0.08,0.22-0.12,0.3-0.18,0.48c0.3-0.1,0.59-0.2,0.89-0.32c-0.1-0.08-0.16-0.12-0.24-0.16
		c0.77-1.06,2.03-0.68,2.51,0.02C136.44,16.3,136.63,16.94,136.44,17.64z M130.97,15.12c-0.04,0.08-0.1,0.12-0.16,0.2
		c-0.02,0.04,0,0.08,0,0.14C130.95,15.4,131.09,15.32,130.97,15.12z"/>
	<path class="st0" d="M138.19,19.49c-0.16,0.2-0.26,0.46-0.47,0.8c0.49-0.26,0.87-0.48,1.24-0.76c1.32-0.98,2.63-1.96,3.97-2.94
		l0.99-0.78c0.12-0.08,0.26-0.12,0.41-0.2l0.3,0.68c0.26-0.06,0.47-0.34,0.77-0.14c0.36,0.5,0.18,1,0,1.5
		c-0.12,0.32-0.28,0.62-0.45,0.92l-1.7,3.37c-0.06,0.12-0.14,0.24-0.22,0.38c-0.18-0.22-0.04-0.42,0.02-0.6
		c0.1-0.24,0.2-0.48,0.32-0.72c0.26-0.36,0.49-0.74,0.63-1.16c-0.28,0.34-0.65,0.66-0.63,1.16c-0.26,0.12-0.34,0.38-0.47,0.62
		c-0.14,0.3-0.28,0.6-0.47,0.96l-0.32-0.36c-0.06,0.04-0.14,0.08-0.26,0.14c-0.08-0.08-0.16-0.16-0.26-0.24
		c0.1-0.36,0.32-0.66,0.22-1.06c-0.02-0.1,0.08-0.22,0.14-0.34l0.95-1.84c0.04-0.1,0.08-0.22,0.18-0.44l-1.74,1.22
		c-0.06,0-0.12,0-0.18,0.02c-0.2-0.06-0.24-0.04-0.41,0.22c0.08-0.02,0.2-0.04,0.3-0.04c0.16,0.06,0.26-0.02,0.34-0.14
		c0.18-0.08,0.36-0.14,0.65-0.24c-0.89,0.78-1.8,1.36-2.72,1.92c-0.49,0.3-0.99,0.54-1.5,0.8c-0.63,0.32-1.26,0.22-1.86-0.02
		c-0.3-0.12-0.43-0.36-0.41-0.7c0.02-0.7,0.24-1.34,0.61-1.9c0.45-0.64,0.89-1.26,1.4-1.84c1.07-1.22,2.27-2.32,3.63-3.24
		c0.49-0.32,1.03-0.54,1.6-0.68c0.24-0.06,0.45-0.22,0.69-0.34c0.24-0.12,0.49-0.26,0.75-0.32c0.43-0.12,0.71,0.16,0.97,0.46
		c-0.08-0.02-0.16-0.06-0.28-0.1c-0.02,0.1-0.06,0.2-0.08,0.34c0.18,0.02,0.37,0.06,0.53,0.08c0.41,0.4,0.53,0.84,0.28,1.38
		c-0.44,0.2-0.49,0.18-0.75-0.2c-0.08,0.04-0.18,0.08-0.28,0.14c-0.06-0.06-0.14-0.1-0.2-0.16c-0.04-0.06-0.06-0.12-0.12-0.24
		c-0.26,0.12-0.53,0.2-0.75,0.34c-0.77,0.48-1.56,0.98-2.31,1.48c-0.43,0.26-0.81,0.58-1.22,0.86
		C139.28,18.08,138.77,18.82,138.19,19.49z M137.44,21.29c-0.12,0.04-0.24,0.06-0.37,0.08C137.4,21.49,137.5,21.45,137.44,21.29z
		 M137.82,20.97c0.12,0.04,0.2,0.08,0.28,0.1c0.04-0.08,0.08-0.16,0.18-0.32L137.82,20.97z M140.54,20.01
		c0.02,0.02,0.04,0.04,0.04,0.08l0.12-0.14L140.54,20.01z"/>
	<path class="st0" d="M149.25,22.77l-0.2,0.14c-0.36-0.1-0.34-0.38-0.34-0.66c0.02-0.86-0.18-1.7-0.63-2.44
		c-0.3-0.52-0.69-0.98-1.05-1.48c-0.16-0.22-0.34-0.42-0.53-0.62c-0.51-0.6-0.53-1.24-0.14-1.92c0.02-0.02,0.06-0.06,0.06-0.08
		c0.12-0.76,0.73-1.1,1.32-1.36c0.87-0.38,1.8-0.66,2.69-0.98c0.04-0.02,0.1,0,0.2,0c-0.43,0.44-0.99,0.58-1.42,0.94
		c0.49-0.16,0.99-0.32,1.48-0.5c0.08-0.02,0.12-0.08,0.2-0.1c0.81-0.16,1.15-0.78,1.44-1.46l0.22-0.24
		c-0.02-0.02-0.04-0.02-0.04-0.04c-0.06,0.02-0.12,0.06-0.18,0.08c0.12-0.28,0.22-0.58,0.36-0.84c0.99-1.82,1.99-3.63,3-5.45
		c0.1-0.18,0.22-0.32,0.37-0.54c0.12,0.18,0.22,0.3,0.32,0.46c0.1-0.1,0.2-0.22,0.3-0.34c0.32,0.1,0.59,0.3,0.57,0.66
		c-0.02,0.26-0.12,0.54-0.24,0.76c-0.38,0.66-0.85,1.3-1.22,1.96c-0.63,1.12-1.2,2.28-1.8,3.41c-0.08,0.16-0.14,0.34-0.24,0.54
		c0.34,0.04,0.65,0.08,0.95,0.14c0.93,0.12,1.54,0.7,2.07,1.42c0.04,0.06,0.06,0.16,0.06,0.24c0,0.1-0.04,0.2-0.04,0.3
		s0.04,0.18,0.08,0.28c-0.22,0.22-0.45,0.28-0.69,0.06c-0.1-0.08-0.18-0.12-0.32-0.08c-0.1,0.02-0.26-0.12-0.34-0.24
		c-0.2-0.32-0.49-0.42-0.85-0.38c-0.59,0.04-1.2,0.1-1.84,0.16c-0.39,0.96-0.75,1.88-1.1,2.8c-0.59,1.62-1.15,3.24-1.44,4.91
		c-0.02,0.16-0.08,0.32-0.14,0.48c-0.16,0.38-0.43,0.44-0.75,0.16C149.33,22.89,149.29,22.83,149.25,22.77z M146.78,16.48
		c-0.26,0.26-0.06,0.44,0.08,0.64C146.92,16.92,147,16.7,146.78,16.48z M150.87,15.18c-1.36,0.22-2.84,0.94-3.2,1.56
		c0.61,0.82,1.24,1.64,1.86,2.48L150.87,15.18z"/>
	<path class="st0" d="M164.11,16.66c-0.36,0.78-0.73,1.52-1.07,2.3c0.3-0.32,0.61-0.66,0.91-1l0.3-0.3c0.24,0.16,0.14,0.34,0.06,0.5
		c-0.26,0.5-0.55,0.98-0.81,1.48c-0.26,0.52-0.57,1.02-0.81,1.54c-0.2,0.44-0.57,0.68-0.85,1.08l-0.32-0.3
		c-0.04,0.02-0.1,0.04-0.18,0.1l-0.3-0.2c0.06-0.16,0.1-0.3,0.18-0.46c0.08-0.18,0.22-0.36,0.16-0.6c-0.02-0.12,0.06-0.28,0.12-0.42
		c0.24-0.54,0.51-1.08,0.77-1.62c0.08-0.16,0.14-0.32,0.14-0.54c-0.12,0.1-0.24,0.2-0.34,0.3c-0.83,0.72-1.64,1.46-2.49,2.18
		c-0.59,0.48-1.22,0.92-1.97,1.16c-0.39,0.14-0.75,0.22-1.1-0.1c-0.06-0.06-0.2-0.06-0.3-0.08c-0.36-0.06-0.53-0.28-0.53-0.64
		c-0.02-0.82,0.28-1.54,0.69-2.2c0.2-0.34,0.47-0.62,0.69-0.92c0.14-0.2,0.32-0.4,0.26-0.68c-0.02-0.06,0.04-0.14,0.06-0.2
		c0.43-0.7,0.89-1.36,1.5-1.94c0.14,0.02,0.22-0.02,0.12-0.18c0.34-0.7,0.93-1.16,1.52-1.62c0.3-0.22,0.51-0.14,0.87,0.28
		c-0.47,0.22-1.03,0.12-1.44,0.62c0.04,0.02,0.14,0.1,0.2,0.08c0.39-0.12,0.77-0.26,1.24-0.42c0.06,0.02,0.2,0.1,0.36,0.16
		c0,0.16,0.02,0.3,0.04,0.4c-0.14,0.02-0.26,0.02-0.43,0.04l0.26,0.54c-0.2-0.04-0.36-0.04-0.59-0.08c-0.69,0.78-1.52,1.52-2.15,2.4
		c-0.63,0.88-1.05,1.88-1.64,2.94c0.63-0.18,1.01-0.52,1.54-0.8c-0.16-0.02-0.24-0.04-0.34-0.04c0.02-0.04,0.02-0.08,0.02-0.1
		c0.95-0.78,1.86-1.6,2.84-2.34c0.57-0.46,1.18-0.86,1.7-1.38c0.43-0.4,0.89-0.76,1.34-1.14c0.14-0.12,0.28-0.26,0.43-0.4
		l-0.02,0.02c0.16,0,0.32-0.02,0.47-0.04c0.22,0.24,0.18,0.46,0.08,0.68c-0.32,0.7-0.63,1.4-0.95,2.12
		C164.25,16.76,164.21,16.72,164.11,16.66z M157.22,19.33c0.04,0.02,0.08,0.04,0.12,0.08c0.1-0.2,0.2-0.38,0.3-0.56l-0.1-0.06
		L157.22,19.33z M159.39,19.79c-0.39,0.04-0.89,0.42-1.26,0.9C158.64,20.45,159.02,20.15,159.39,19.79z M163.32,16.62
		c-0.1,0.04-0.18,0.06-0.26,0.12L161.74,18c0.2,0,0.34-0.12,0.53-0.14C162.93,17.72,163.2,17.24,163.32,16.62z M162.91,19.29
		l0.04-0.2l-0.1,0.18C162.87,19.27,162.89,19.29,162.91,19.29z M163.42,16.4c-0.02,0.02-0.08,0.04-0.08,0.06v0.14
		c0.04-0.02,0.08-0.04,0.1-0.08C163.46,16.5,163.42,16.44,163.42,16.4z"/>
	<path class="st0" d="M173.94,15.38c0,0.46-0.36,0.96-0.89,1.12c-0.08-0.12-0.18-0.24-0.26-0.38c-0.04,0-0.06-0.02-0.1-0.02
		c-0.18-0.02-0.39,0.18-0.57-0.02c-0.02-0.02-0.16,0.04-0.24,0.08c-0.28,0.12-0.57,0.26-0.85,0.42c-0.65,0.34-1.2,0.8-1.72,1.28
		v-0.02c-0.18,0.26-0.34,0.54-0.57,0.78c-0.28,0.36-0.63,0.66-0.93,1c-0.2,0.24-0.39,0.5-0.51,0.76c-0.24,0.54-0.57,1.02-0.87,1.54
		l-0.73-0.4c-0.08-0.3-0.18-0.64-0.26-1c0.85-2.28,2.09-4.41,2.8-6.79l0.63,0.3c-0.02,0.12-0.02,0.26-0.04,0.42
		c0.18,0.04,0.37,0.06,0.61,0.1c-0.1,0.44-0.2,0.84-0.32,1.3c0.14-0.1,0.26-0.18,0.36-0.26c0.73-0.62,1.58-1.06,2.53-1.24
		c0.24-0.06,0.49-0.08,0.71-0.06c0.12,0,0.24,0.08,0.32,0.18c0.14,0.14,0.24,0.34,0.39,0.5c0.06,0.06,0.2,0.04,0.3,0.08
		C173.88,15.1,173.94,15.2,173.94,15.38z M169.3,17.84c-0.02-0.06-0.04-0.1-0.06-0.2c-0.55,0.32-0.93,0.78-1.34,1.22
		c-0.08,0.08-0.08,0.24-0.14,0.5c0.47-0.5,0.81-0.92,1.2-1.32C169.03,17.96,169.18,17.92,169.3,17.84z M172.96,14.64
		c-0.3-0.24-0.53-0.14-0.75-0.1c-0.85,0.2-1.64,0.5-2.41,1.1C170.9,15.28,171.89,14.98,172.96,14.64z"/>
	<path class="st0" d="M176.31,21.11c0.04-0.06,0.08-0.1,0.12-0.18c-0.41-0.28-0.63-0.74-1.13-0.9c-0.12-0.04-0.2-0.2-0.3-0.3
		c-0.14-0.16-0.28-0.34-0.41-0.5c-0.06-0.08-0.08-0.18-0.1-0.26c-0.02-0.18-0.02-0.34-0.04-0.52c-0.38-0.02-0.83,0.3-1.17-0.18
		c0.02-0.14,0.02-0.32,0.04-0.52c0.14-0.1,0.28-0.2,0.43-0.32l-0.02,0.02c0.43,0.02,0.87,0.04,1.26-0.2
		c0.12-0.06,0.26-0.12,0.34-0.22c0.39-0.42,0.83-0.78,1.32-1.08c0.43-0.3,0.83-0.62,1.13-1.04c0.12-0.18,0.26-0.32,0.43-0.44
		c0.34-0.26,0.69-0.5,1.03-0.72c0.43-0.28,0.87-0.52,1.32-0.76c0.28-0.16,0.57-0.16,0.85,0c0.18,0.1,0.36,0.18,0.53,0.26
		c-0.08,0.06-0.28-0.12-0.26,0.22l0.26-0.22c0.59,0.3,0.71,0.68,0.45,1.26c-0.16,0.36-0.41,0.64-0.69,0.9
		c-0.79,0.72-1.7,1.28-2.63,1.82c-0.91,0.52-1.9,0.84-2.84,1.24c-0.1,0.04-0.22,0.08-0.3,0.12c0.02,1.06,0.63,1.54,2.17,1.66
		c-0.06-0.06-0.08-0.12-0.14-0.18c0.43-0.08,0.83-0.12,1.22-0.24c0.39-0.1,0.77-0.28,1.2-0.42c0.16,0.1,0.36,0.24,0.57,0.4
		c0.39,0.3,0.39,0.8-0.02,1.02c-0.75,0.44-1.56,0.66-2.43,0.66h-0.73C177.22,21.49,176.78,21.27,176.31,21.11z M175.5,18.7
		c-0.18,0.08-0.12,0.2-0.06,0.36C175.46,18.9,175.48,18.8,175.5,18.7z M179.27,15.5l-0.06-0.24c-0.75,0.42-1.4,0.9-1.97,1.46
		C178.01,16.44,178.9,15.88,179.27,15.5z"/>
</g>
</svg>
