<?xml version="1.0" encoding="utf-8"?>
<!-- Generator: Adobe Illustrator 18.1.0, SVG Export Plug-In . SVG Version: 6.00 Build 0)  -->
<svg version="1.1" id="圖層_1" xmlns="http://www.w3.org/2000/svg" xmlns:xlink="http://www.w3.org/1999/xlink" x="0px" y="0px"
	 width="350px" height="70px" viewBox="0 0 350 70" enable-background="new 0 0 350 70" xml:space="preserve" fill="#eeeeee">
<g id="loader-run">
	<path d="M14.2,50.3c-0.1,0-0.2,0-0.4,0c0-0.1,0-0.2,0-0.3c0.4-1.3,0.8-2.5,0.7-3.8c0-0.3,0.1-0.5,0-0.9c-0.4,1-0.7,2-1,2.9
		c-0.3,0.8-0.4,0.9-1.2,1.4c0-0.2,0-0.5,0-0.6c0.6-1.6,1-3.3,2-4.8c0.4-0.6,0.7-1.4,0.8-2.3c-0.6,0.1-1,0.2-1.5,0.3
		c-0.7,0.1-1.5,0.2-2.2,0.3c-0.2,0-0.4-0.2-0.7-0.4l-0.6,0.1c0-0.1,0-0.2,0-0.3c0.2-0.2,0.5-0.5,0.7-0.7c-0.3-0.3-0.6,0-0.9,0
		c0.1-0.2,0.1-0.5,0.2-0.6c0-0.5,0.3-0.7,0.8-0.8c1.4-0.3,2.7-0.6,4-0.9c0.7-0.1,1.3-0.5,2.1-0.5c0.2,0,0.6-0.3,0.6-0.5
		c0.4-1,1.1-1.9,1.4-3c0.1-0.4,0.4-0.7,0.7-1.3c-0.6,0-1-0.1-1.3,0.5c-0.1-0.1-0.1-0.2-0.2-0.4c-0.7,0-1.4-0.1-1.9,0.7
		c-0.8-0.1-1.6-0.4-2.2-0.9c0-0.5,0.1-1.1,0.4-1.6c0.2-0.5,0.6-1,1.2-1c0.7-0.1,1.5-0.2,2.3-0.2s1.8-0.2,2.6-0.1
		c0.1,0,0.2-0.1,0.4-0.1c0.7-0.8,0.7-1.9,1-2.8c0.2-0.7,0.5-1.5,0.7-2.2c0.5-1.3,1-2.5,1.5-3.7c-0.2-0.2-0.3-0.4-0.4-0.5
		c0.2-0.5,0.4-1,0.6-1.5c0,0,0.1,0,0.2,0l0.1,0.7c0.2-0.1,0.4-0.2,0.6-0.3c0.4,0.4,0.7,0.7,0.9,1.1c-0.7,3.3-2.6,6.1-3.7,9.3
		c2,0.2,4,0.4,6,0.6l0.4-0.5l2.8-5c0.3-0.5,0.6-0.9,0.1-1.4c0.2-0.2,0.4-0.5,0.6-0.6c0.7-0.2,1.4,0,1.9,0.5c0.6,0.7,0.4,1.5,0,2.3
		c-0.8,1.5-1.7,3-2.5,4.5l-0.6,0.9c0.2,0.1,0.4,0.1,0.6,0.2c1.3,0.4,2.4,1.1,3.5,1.9c0.6,0.4,0.8,0.8,0.9,1.5
		c0.1,0.4-0.1,0.7-0.1,1.1c-1.1,0.6-1.4-0.4-2-0.7C34.1,35.8,34,35.9,34,36c-1-1.3-2.6-1.2-4-1.7c-0.8,1.2-1.5,2.5-2.1,3.7
		c0.5,0.4,1,0.3,1.5,0.4c1.1,0.2,2.1,0.3,3.3,0.5c0.9,0.2,1.8,0.6,2.5,1.5L34,41c0.2,0.4,0.9,0.5,0.7,1.3c-2.5-0.9-5.1-1.5-7.8-1.5
		c-1.5,2.3-2.3,4.8-3.5,7.1c-0.7,0.2-0.7,0.2-1.2-0.2l0.7-1.6c-0.5,0.3-0.8,0.5-1.4,0.8c0-0.4,0-0.5,0-0.7c0.6-1.4,1.2-2.8,1.9-4.3
		c0.1-0.3,0.3-0.5,0.5-1c-2,0.2-3.8,0.1-5.7,0.5c-0.3,0.6-0.6,1.3-0.8,1.9c-0.7,1.5-1.2,3.1-2,4.5c-0.5,1-0.7,2-1,3.1
		C14.2,50.6,14.2,50.5,14.2,50.3z M25.2,38c0.4-0.7,0.7-1.4,0.9-2c0.4-0.6,0.7-1.3,1-2c-0.8-0.2-1.5-0.3-2.1-0.4
		c-0.5-0.1-0.9,0-1.3-0.2c-0.7-0.5-1.4-0.3-2.1-0.3L19.5,38L25.2,38L25.2,38z M30.8,33c0.8,0.4,1.6,0.6,2.4,0.5
		C31.8,32.6,31.4,32.5,30.8,33z M32.1,28.6c0,0-0.1-0.1-0.2-0.1c-0.2,0.4-0.5,0.7-0.7,1.1C31.8,29.5,31.8,29,32.1,28.6z M33.9,33.9
		c0.4,0.2,0.7,0.5,1.2,0.4C34.8,33.9,34.4,33.7,33.9,33.9z"/>
	<path d="M53,33c0,0.2-0.1,0.3-0.2,0.6c1.3-0.8,2.1-2.1,3.6-2.3c-0.1,0.2-0.3,0.3-0.6,0.5l2-0.4c0.5-0.1,0.7,0,1,0.4
		c0.6,0.8,0.8,1.6,0.7,2.6c-0.1,0.9-0.4,1.8-0.6,2.8c-0.7,2.5-1.4,5.2-2.1,7.7c-0.4,1.2-0.7,2.4-1.1,3.5c-0.1,0.4-0.3,0.7-0.5,1.1
		c-0.1-0.3-0.3-0.5-0.5-0.7c-0.1,0.4-0.3,0.5-0.5,0.8h-0.1c0-0.1,0-0.3,0-0.4c0.2-0.4,0.3-0.7,0.6-1.1c0.6-0.7,0.7-1.6,1-2.5
		c0.4-1,0.7-2.1,1.1-3.2c0.2-0.6,0.6-1.2,0.6-1.9c0-0.5,0.3-0.9,0.5-1.4c0.5-1.3,0.9-2.6,0.9-4c0-0.6,0-1.4-0.1-2
		c-0.4,0.3-0.3,0.6-0.4,1c-0.4,1.8-0.9,3.6-1.5,5.5c-0.7,2.4-1.5,4.7-2.2,7.1c-0.1,0.4-0.2,0.6-0.4,1.1c0-0.5,0-0.7,0-1.1
		c-0.4,0.7-0.7,1.3-0.9,2c0-0.3-0.1-0.5-0.1-0.5c0.4-1.1,0.7-2.2,1.1-3.3l0.6-2c0.5-1.6,1-3.2,1.4-4.7c0.4-1.2,0.5-2.5,0.7-3.5
		c0.1-0.5,0.1-1-0.2-1.5c-0.6,0-0.9,0.5-1.3,0.7c-1.2,1.2-2.1,2.5-3.1,3.9c-1.1,1.8-2.2,3.7-3.4,5.5l-0.6,0.8
		c-0.1,0-0.1-0.1-0.3-0.2c-0.2,0.4-0.4,0.8-0.6,1.1C47.1,45,46.3,45,46.2,44c0.7-1.7,1.4-3.5,2.1-5.4c1.1-2.7,2.3-5.4,3.4-8.2
		c1.7-4,3.2-8,4.8-12c0.7-1.8,1.5-3.5,2.2-5.3c0.1-0.3,0.3-0.5,0.6-0.7c-0.2,0.5-0.4,0.8-0.5,1.3l0.3,0.5c0.2-0.6,0.5-1.1,0.7-1.7
		c0.3,0.4,0.4,0.6,0.1,0.9c-0.3,0.4-0.6,0.8-0.8,1.3c-0.1,0.2-0.2,0.4-0.3,0.7c0.7-0.5,0.6-1.5,1.4-1.5c0.4,0.2,0.4,0.5,0.2,0.7
		c-0.3,0.8-0.6,1.6-0.9,2.5C58.8,19,58,21,57.2,22.8c-0.2,0.5-0.6,1-0.8,1.6c-0.4,1-0.7,2-1.2,3.1C54.4,29.5,53.7,31.3,53,33z
		 M58.5,33.4c0.3-0.3,0.2-0.5-0.1-0.7C58.1,33,58.3,33.3,58.5,33.4z"/>
	<path d="M63,41.9c-0.3,0.4-0.5,0.7-0.7,1.3c0.8-0.5,1.4-0.8,2-1.3c2.1-1.6,4.4-3.2,6.5-4.8l1.7-1.3c0.2-0.1,0.5-0.2,0.7-0.4
		l0.5,1.1c0.5-0.1,0.7-0.5,1.3-0.2c0.6,0.8,0.3,1.6,0,2.5c-0.2,0.5-0.5,1-0.7,1.5l-2.8,5.5c-0.1,0.2-0.2,0.4-0.4,0.6
		c-0.3-0.4-0.1-0.7,0-1c0.2-0.4,0.4-0.8,0.6-1.2c0.5-0.5,0.8-1.2,1-1.9c-0.5,0.5-1,1.1-1,1.9c-0.5,0.2-0.6,0.6-0.7,1
		c-0.2,0.5-0.5,1-0.7,1.5l-0.6-0.5c-0.1,0.1-0.2,0.1-0.5,0.2c-0.1-0.1-0.3-0.3-0.5-0.4c0.2-0.5,0.6-1.1,0.4-1.7
		c0-0.2,0.1-0.4,0.2-0.5l1.6-3c0.1-0.2,0.1-0.4,0.3-0.7l-2.9,2c-0.1,0-0.2,0-0.3,0c-0.4-0.1-0.4-0.1-0.7,0.4c0.1,0,0.4-0.1,0.5-0.1
		c0.3,0.1,0.5,0,0.6-0.2c0.3-0.1,0.6-0.2,1.1-0.4c-1.5,1.3-3,2.2-4.5,3.1c-0.8,0.5-1.7,0.9-2.5,1.3c-1,0.5-2,0.4-3.1,0
		c-0.5-0.2-0.7-0.5-0.7-1.1c0-1.1,0.4-2.2,1-3.1c0.7-1,1.5-2,2.3-3c1.8-2,3.7-3.8,5.9-5.3c0.8-0.5,1.7-0.9,2.6-1.1
		c0.4-0.1,0.7-0.4,1.1-0.5c0.4-0.2,0.8-0.5,1.2-0.5c0.7-0.2,1.1,0.3,1.6,0.7c-0.1,0-0.3-0.1-0.5-0.2c0,0.2-0.1,0.4-0.1,0.5
		c0.3,0,0.6,0.1,0.8,0.1c0.7,0.6,0.8,1.4,0.5,2.3c-0.7,0.4-0.8,0.3-1.2-0.4c-0.1,0.1-0.3,0.1-0.5,0.2c-0.1-0.1-0.2-0.2-0.4-0.3
		c-0.1-0.1-0.1-0.2-0.2-0.4c-0.5,0.2-0.8,0.4-1.2,0.5c-1.3,0.8-2.6,1.6-3.8,2.5c-0.7,0.5-1.3,0.9-2,1.4C64.7,39.6,63.9,40.8,63,41.9
		z M61.8,44.9C61.6,45,61.4,45,61.2,45C61.7,45.2,61.9,45.2,61.8,44.9z M62.3,44.4c0.2,0.1,0.4,0.1,0.5,0.2c0.1-0.1,0.1-0.3,0.3-0.5
		L62.3,44.4z M66.8,42.8L66.8,42.8l0.3-0.1L66.8,42.8z"/>
	<path d="M89.3,38.9c-0.6,2.2-1.1,4.4-1.8,6.6l-0.4,1.5c-0.1,0.3-0.1,0.6,0,0.9c0.2,0.6,0,1.1-0.6,1.6c-0.4,0.2-0.9,0.3-1.3-0.2
		c-0.1-0.1-0.3-0.2-0.4-0.2c-0.7-0.3-0.8-0.5-0.7-1.3l0.8-3.5c0.2-1,0.5-1.9,0.8-2.9c0.1-0.5,0.2-1.2,0.7-1.6
		c0.1-0.1,0.2-0.3,0.2-0.4c0.1-0.4,0.2-0.8,0.3-1.2c0-0.4,0-0.7-0.1-1c-0.6-0.1-1,0.1-1.5,0.3c-2.8,1.3-5.1,3-7.2,5.3
		c-0.2,0.2-0.4,0.5-0.7,0.5c-0.5,0.2-0.7,0-0.7-0.5c0.1-0.6,0.3-1.3,0.5-2c0.3-1.4,1-2.6,1.7-3.8l0.9-1.6c-0.1,0-0.2,0-0.4,0
		c0.6-1.1,1.1-2.2,2-3.2c0.2,0.2,0.3,0.3,0.5,0.5c-0.3,0.3-0.6,0.5-0.8,0.7c0.4,0.5,0.2,1.3,0.1,1.9c0.5-0.7,1-1.3,1.5-2
		c0,0.1,0.1,0.3,0.1,0.5c0,0.1-0.2,0.3-0.1,0.4c0.5,0.6-0.1,1.1-0.5,1.5c-0.2,0.4-0.5,0.7-0.6,1.1l1.8-0.9c-0.1,0.4-0.2,0.5-0.3,0.8
		c0.5-0.2,0.9-0.4,1.5-0.5c-0.2-0.1-0.3-0.2-0.4-0.3c1.3-1.7,3.3-1.1,4.1,0C89.3,36.7,89.6,37.8,89.3,38.9z M80.4,34.8
		c-0.1,0.1-0.2,0.2-0.3,0.4c0,0.1,0,0.1,0,0.2C80.3,35.3,80.6,35.2,80.4,34.8z"/>
	<path d="M114.9,17.6c-0.6,1.9-1.6,3.6-2.6,5.4c-1.5,2.5-3,5-4.7,7.4c-0.1,0.1-0.2,0.3-0.3,0.5c-1.4,3.1-2.6,6.3-3.6,9.5
		c0,0,0,0.1,0,0.2c0.4,0.4,0.7,0.8,1.1,1.3c-0.4,1.4-1,2.5-1.9,3.5c-0.5,0.6-1,0.7-1.8,0.4c-0.1,0-0.2-0.1-0.2-0.1
		c-0.3,0.1-0.6,0-0.7-0.3c-0.1-0.3-0.2-0.5-0.2-0.8c0.1-0.8,0.2-1.6,0.4-2.4c0.3-1,0.7-2,1-3c0.1-0.4,0.2-0.7,0.2-1.1
		c-0.2,0.2-0.4,0.4-0.6,0.5c-2,2.2-3.9,4.2-6.2,5.9c-0.8,0.6-1.8,1.2-2.7,1.5c-1,0.4-1.9,0-2.8-0.4c-0.6-0.3-0.7-0.7-0.7-1.4
		c0.1-1.7,0.9-3.2,1.9-4.6c2.2-3.2,5-5.5,8.6-7.1c1.1-0.5,2.3-0.8,3.6-0.7c0.9-1.3,2-2.4,2.6-3.8c0.7-1.7,1.6-3.4,2.4-5
		c0.5-0.8,0.9-1.6,1.5-2.5c0.2-0.4,0.6-0.5,0.8-0.9c0.6-1,1.1-1.9,1.6-3c0.3-0.7,0.6-1.1,1.3-1.5l0.2,0.5
		C114.6,15.7,115.3,16.5,114.9,17.6z M91.1,42.5l-0.1-0.4c0,0-0.1,0-0.1,0.1L91.1,42.5C91.1,42.5,91.1,42.5,91.1,42.5z M91.7,41
		c-0.3,0.1-0.4,0.4-0.5,0.6l0.2,0.1L91.7,41z M92,40.5c-0.1,0.1-0.1,0.2-0.1,0.4l0.3-0.3C92,40.5,92,40.5,92,40.5z M99.9,35.7
		C97.5,36.5,93.4,40,92,43C95.1,41,97.6,38.5,99.9,35.7z M93,39.5c0.1-0.1,0.1-0.2,0.2-0.4C93,39.3,92.8,39.2,93,39.5z M93.2,39.2
		c0.1-0.1,0.5-0.1,0.2-0.5L93.2,39.2z M100.4,36.1c-1.4,1.3-2.5,2.6-3.6,4.1l0.2,0.2c0.7-0.6,1.2-1.4,1.9-2
		C100.3,36.8,100.4,36.7,100.4,36.1z"/>
	<path d="M125,45.5l-0.5,0.2c-0.1-0.1-0.2-0.3-0.4-0.5l1.5-4.5c0.4-1.1,0.7-2.2,1-3.2l0.2-0.9c-0.6,0.1-1,0.4-1.4,0.6
		c-1,0.7-2,1.6-3.1,2.4c-0.8,0.6-1.8,1.3-2.6,1.9c-0.4,0.3-0.8,0.5-1.2,0.5c-0.5-0.1-0.9-0.5-1.4-0.7c-0.4-0.2-0.3-0.5-0.2-0.9
		c0.3-1.1,0.6-2.1,0.8-3.2c0-0.1,0-0.2,0.1-0.5c-0.8,0.5-1.5,0.9-2.2,1.4c-2,1.4-3.7,2.9-5.3,4.5c-0.1,0.2-0.3,0.4-0.5,0.5
		c-0.6,0.5-1.1,0.2-1.3-0.5c0-0.2-0.1-0.5-0.1-0.7l-0.6-0.2c0-0.1,0-0.3,0.1-0.4c0.8-1.5,1.7-2.9,2.4-4.4c0.7-1.4,1.4-2.7,2-4
		c0.1-0.2,0.3-0.5,0.5-0.6c1.1,0.8,2,1.6,1,3.2c0.1,0,0.2,0,0.3,0l0.5-0.3c0.7-0.4,1.3-0.8,2-1.2c0.5-0.2,0.8-0.4,1.3-0.5
		c0.4-0.1,0.7,0.1,1,0.3c1.1,0.7,1.6,1.6,1.2,2.8c-0.1,0.2,0,0.5,0,0.8l0.6-0.4c1.3-0.9,2.6-1.8,3.8-2.6c0.5-0.4,1.1-0.6,1.7-0.8
		c0.6-0.3,1.2-0.2,1.7,0.4c0.1,0.1,0.2,0.2,0.4,0.3c0.8,0.5,0.9,1.4,0.8,2.3c-0.2,1.9-0.7,3.7-1.4,5.5c-0.2,0.5-0.4,0.8-0.6,1.3
		l-0.5,1.4c-0.1,0.4-0.3,0.8-0.5,1.2c-0.1,0.4-0.5,0.5-0.7,0.5C125.2,46.2,125,45.9,125,45.5z M109.1,41.2c-0.3,0.1-0.4,0.1-0.4,0.1
		v0.1C108.8,41.4,108.9,41.3,109.1,41.2z M127.8,39.3c-0.3,0.5-0.6,0.9-0.8,1.4c-0.2,0.4-0.3,0.7-0.2,1.4
		C127.5,41.1,127.7,40.2,127.8,39.3z"/>
	<path d="M132,41.9c-0.3,0.4-0.5,0.7-0.7,1.3c0.8-0.5,1.4-0.8,2-1.3c2.1-1.6,4.3-3.2,6.5-4.8l1.7-1.3c0.2-0.1,0.5-0.2,0.7-0.4
		l0.5,1.1c0.5-0.1,0.7-0.5,1.3-0.2c0.6,0.8,0.3,1.6,0,2.5c-0.2,0.5-0.5,1-0.7,1.5l-2.8,5.5c-0.1,0.2-0.2,0.4-0.4,0.6
		c-0.3-0.4-0.1-0.7,0-1c0.2-0.4,0.4-0.8,0.6-1.2c0.5-0.5,0.8-1.2,1-1.9c-0.5,0.5-1,1.1-1,1.9c-0.5,0.2-0.6,0.6-0.7,1
		c-0.2,0.5-0.5,1-0.7,1.5l-0.6-0.5c-0.1,0.1-0.2,0.1-0.5,0.2c-0.1-0.1-0.3-0.3-0.5-0.4c0.2-0.5,0.6-1.1,0.4-1.7
		c0-0.2,0.1-0.4,0.2-0.5l1.6-3c0.1-0.2,0.1-0.4,0.3-0.7l-2.9,2c-0.1,0-0.2,0-0.3,0c-0.4-0.1-0.4-0.1-0.7,0.4c0.1,0,0.4-0.1,0.5-0.1
		c0.3,0.1,0.5,0,0.6-0.2c0.3-0.1,0.6-0.2,1-0.4c-1.5,1.3-3,2.2-4.5,3.1c-0.8,0.5-1.7,0.9-2.4,1.3c-1,0.5-2,0.4-3.1,0
		c-0.5-0.2-0.7-0.5-0.7-1.1c0-1.1,0.4-2.2,1-3.1c0.7-1,1.5-2,2.3-3c1.8-2,3.7-3.8,5.9-5.3c0.8-0.5,1.7-0.9,2.6-1.1
		c0.4-0.1,0.7-0.4,1.1-0.5c0.4-0.2,0.8-0.5,1.2-0.5c0.7-0.2,1.1,0.3,1.6,0.7c-0.1,0-0.3-0.1-0.5-0.2c0,0.2-0.1,0.4-0.1,0.5
		c0.3,0,0.6,0.1,0.8,0.1c0.7,0.6,0.8,1.4,0.5,2.3c-0.7,0.4-0.8,0.3-1.2-0.4c-0.1,0.1-0.3,0.1-0.5,0.2c-0.1-0.1-0.2-0.2-0.4-0.3
		c-0.1-0.1-0.1-0.2-0.2-0.4c-0.5,0.2-0.8,0.4-1.2,0.5c-1.3,0.8-2.6,1.6-3.8,2.5c-0.7,0.5-1.3,0.9-2,1.4
		C133.7,39.6,133,40.8,132,41.9z M130.7,44.9c-0.2,0.1-0.4,0.1-0.6,0.1C130.7,45.2,130.8,45.2,130.7,44.9z M131.4,44.4
		c0.2,0.1,0.4,0.1,0.5,0.2c0.1-0.1,0.1-0.3,0.3-0.5L131.4,44.4z M135.9,42.8L135.9,42.8l0.3-0.1L135.9,42.8z"/>
	<path d="M170.8,17.6c-0.6,1.9-1.6,3.6-2.6,5.4c-1.5,2.5-3,5-4.7,7.4c-0.1,0.1-0.2,0.3-0.3,0.5c-1.4,3.1-2.6,6.3-3.6,9.5
		c0,0,0,0.1,0,0.2c0.4,0.4,0.7,0.8,1.1,1.3c-0.4,1.4-1,2.5-1.9,3.5c-0.5,0.6-1,0.7-1.8,0.4c-0.1,0-0.2-0.1-0.2-0.1
		c-0.3,0.1-0.6,0-0.7-0.3c-0.1-0.3-0.2-0.5-0.2-0.8c0.1-0.8,0.2-1.6,0.4-2.4c0.3-1,0.7-2,1-3c0.1-0.4,0.2-0.7,0.2-1.1
		c-0.2,0.2-0.4,0.4-0.6,0.5c-2,2.2-3.9,4.2-6.1,5.9c-0.8,0.6-1.8,1.2-2.7,1.5c-1,0.4-1.9,0-2.8-0.4c-0.6-0.3-0.7-0.7-0.7-1.4
		c0.1-1.7,0.9-3.2,1.9-4.6c2.2-3.2,5-5.5,8.6-7.1c1.1-0.5,2.3-0.8,3.6-0.7c0.9-1.3,2-2.4,2.6-3.8c0.7-1.7,1.6-3.4,2.4-5
		c0.5-0.8,0.9-1.6,1.5-2.5c0.2-0.4,0.6-0.5,0.8-0.9c0.6-1,1.1-1.9,1.6-3c0.3-0.7,0.6-1.1,1.3-1.5l0.2,0.5
		C170.4,15.7,171.2,16.5,170.8,17.6z M147,42.5l-0.1-0.4c0,0-0.1,0-0.1,0.1L147,42.5C146.9,42.5,147,42.5,147,42.5z M147.6,41
		c-0.3,0.1-0.4,0.4-0.5,0.6l0.2,0.1L147.6,41z M147.8,40.5c-0.1,0.1-0.1,0.2-0.1,0.4l0.3-0.3C147.9,40.5,147.9,40.5,147.8,40.5z
		 M155.8,35.7c-2.4,0.8-6.5,4.3-7.9,7.3C151,41,153.4,38.5,155.8,35.7z M148.9,39.5c0.1-0.1,0.1-0.2,0.2-0.4
		C148.9,39.3,148.7,39.2,148.9,39.5z M149.1,39.2c0.1-0.1,0.5-0.1,0.2-0.5L149.1,39.2z M156.2,36.1c-1.4,1.3-2.5,2.6-3.6,4.1
		l0.2,0.2c0.7-0.6,1.2-1.4,1.9-2C156.1,36.8,156.2,36.7,156.2,36.1z"/>
	<path d="M168.9,44.5c0.1-0.1,0.1-0.2,0.2-0.3c-0.7-0.5-1-1.2-1.9-1.5c-0.2-0.1-0.4-0.4-0.5-0.5c-0.2-0.3-0.5-0.5-0.7-0.8
		c-0.1-0.1-0.1-0.3-0.2-0.5c0-0.3,0-0.5-0.1-0.8c-0.7,0-1.4,0.5-2-0.3c0-0.2,0-0.5,0.1-0.8c0.2-0.2,0.5-0.4,0.7-0.5l0,0
		c0.7,0,1.4,0.1,2-0.4c0.2-0.1,0.5-0.2,0.6-0.4c0.7-0.7,1.4-1.3,2.1-1.7c0.7-0.5,1.4-1,1.9-1.7c0.2-0.3,0.5-0.5,0.7-0.7
		c0.6-0.5,1.1-0.8,1.7-1.2c0.7-0.5,1.4-0.8,2.1-1.3c0.5-0.3,0.9-0.3,1.4,0c0.3,0.2,0.6,0.3,0.8,0.5c-0.1,0.1-0.5-0.2-0.5,0.4
		l0.5-0.4c0.9,0.5,1.1,1.1,0.7,2c-0.3,0.5-0.7,1.1-1.1,1.5c-1.3,1.2-2.8,2.1-4.3,3c-1.5,0.8-3.2,1.4-4.6,2c-0.2,0.1-0.4,0.1-0.5,0.2
		c0,1.7,1,2.5,3.5,2.7c-0.1-0.1-0.1-0.2-0.2-0.3c0.7-0.1,1.4-0.2,2-0.4c0.7-0.2,1.3-0.5,2-0.7c0.3,0.2,0.6,0.4,0.9,0.6
		c0.7,0.5,0.7,1.3,0,1.6c-1.2,0.7-2.6,1.1-4,1.1h-1.2C170.3,45.2,169.6,44.8,168.9,44.5z M167.5,40.6c-0.3,0.1-0.2,0.4-0.1,0.5
		C167.5,41,167.5,40.8,167.5,40.6z M173.7,35.5l-0.1-0.4c-1.2,0.7-2.3,1.5-3.3,2.4C171.6,37,173,36.1,173.7,35.5z"/>
	<path d="M194.8,45.5c-0.4-0.9-0.3-1.9-0.2-2.9c0.2-2.3,1.2-4.3,2.3-6.2c0.2-0.5,0.4-0.8,0.7-1.3c0.2-0.5,0.6-1,1-1.4
		c0.1,0.1,0.7,0.3,0.8,0.4c-0.4,0.3-0.7,0.5-1.1,0.9l0.4,0.2c0.1-0.1,0.3-0.3,0.4-0.4c0.1-0.2,0.5,0.1,0.5-0.2
		c0.1-0.2,0.3-0.3,0.5-0.2c0.2,0.5,0.2,0.7-0.2,1.1c-0.2,0.2-0.3,0.4-0.5,0.5c-0.2,0.4-0.5,0.8-0.7,1.2l-0.1-0.4
		c-0.5,0.9-0.9,1.7-1.3,2.6c-0.1,0.3-0.1,0.7-0.1,1.1c0,0.1,0,0.3,0,0.4c-0.3,0.5-0.3,1.2-0.4,1.8c-0.1,0.8,0,1.5,0.2,2.4
		c0,0.1,0.1,0.2,0.1,0.3c0.5,0,0.7-0.2,0.9-0.5c-0.1-0.1-0.2-0.1-0.2-0.1l1-0.8c0.2,0.2-0.3,0.4-0.4,0.6c0.4,0.1,0.8,0.1,1.3,0.1
		c-0.2,0.3-0.4,0.5-0.6,0.7c-0.4,0.4-0.8,0.5-1.2,0.9c-0.1,0.1-0.2,0.1-0.2,0.2C196.6,47.2,195.3,46.8,194.8,45.5z M200,31.4
		c-0.2,0-0.4,0.1-0.4,0c-0.1,0-0.3-0.2-0.2-0.4c0-0.6,0.2-1.3,0.7-1.6c0.5,0.1,0.7,0.4,0.8,0.9c0.2-0.4,0.5-0.5,0.8-0.4
		c0.1,0.3,0.2,0.5,0.1,0.9c-0.2,0.5-0.6,0.7-0.9,1C200.6,32.1,200.3,31.8,200,31.4z"/>
	<path d="M213.8,38.9c-0.6,2.2-1.1,4.4-1.8,6.6l-0.4,1.5c-0.1,0.3-0.1,0.6,0,0.9c0.2,0.6,0,1.1-0.6,1.6c-0.4,0.2-0.9,0.3-1.3-0.2
		c-0.1-0.1-0.3-0.2-0.4-0.2c-0.7-0.3-0.8-0.5-0.7-1.3l0.8-3.5c0.2-1,0.5-1.9,0.8-2.9c0.1-0.5,0.2-1.2,0.7-1.6
		c0.1-0.1,0.2-0.3,0.2-0.4c0.1-0.4,0.2-0.8,0.3-1.2c0-0.4,0-0.7-0.1-1c-0.6-0.1-1,0.1-1.5,0.3c-2.8,1.3-5.1,3-7.1,5.3
		c-0.2,0.2-0.4,0.5-0.7,0.5c-0.5,0.2-0.7,0-0.7-0.5c0.1-0.6,0.3-1.3,0.5-2c0.3-1.4,1-2.6,1.7-3.8l0.9-1.6c-0.1,0-0.2,0-0.4,0
		c0.6-1.1,1.1-2.2,2-3.2c0.2,0.2,0.3,0.3,0.5,0.5c-0.3,0.3-0.6,0.5-0.8,0.7c0.4,0.5,0.2,1.3,0.1,1.9c0.5-0.7,1-1.3,1.5-2
		c0,0.1,0.1,0.3,0.1,0.5c0,0.1-0.2,0.3-0.1,0.4c0.5,0.6-0.1,1.1-0.5,1.5c-0.2,0.4-0.5,0.7-0.6,1.1l1.8-0.9c-0.1,0.4-0.2,0.5-0.3,0.8
		c0.5-0.2,0.9-0.4,1.5-0.5c-0.2-0.1-0.3-0.2-0.4-0.3c1.3-1.7,3.3-1.1,4.1,0C213.8,36.7,214,37.8,213.8,38.9z M204.8,34.8
		c-0.1,0.1-0.2,0.2-0.3,0.4c0,0.1,0,0.1,0,0.2C204.7,35.3,205,35.2,204.8,34.8z"/>
	<path d="M314.5,19c-0.7,0.1-0.7,0.1-1.1-0.5c-0.7,0-0.7,0-0.9-1c-0.9-0.4-2-0.5-2.9-0.5c-2.5-0.2-5-0.4-7.4-0.5
		c-1.3-0.1-2.6-0.2-3.8-0.4c-0.7-0.1-1.4-0.4-2.1-0.5c-1.8-0.4-3.5-0.3-5.3-0.2c-1.5,0-3,0.1-4.5,0.2c-0.5,0-1,0.2-1.5,0.3
		c-0.5,0-0.8,0-1.3,0l-15.7,0.1h-2.3l-0.7,1c-2.6,4.5-5.1,9.2-7.4,13.9c-0.5,0.9-0.9,1.7-1.4,2.6c-0.7,1.4-1.3,2.7-1.9,4.2
		c-1.3,2.9-2.6,5.8-3.8,8.8c-1.2,2.8-2.3,5.6-3.4,8.5c-0.6,1.4-1.2,2.8-1.9,4.2c-0.1,0.3-0.3,0.5-0.5,0.9c-0.4-0.7-0.7-1.3-0.6-2
		c-0.5,0.5-0.5,1.3-1.1,1.5c-0.4-0.1-0.6-0.4-0.5-0.7l0.4-3.6c0.5-0.4,0.4-0.9,0.5-1.4c0.1-0.4,0.1-0.7-0.1-1.1
		c-0.2-0.2-0.1-0.6-0.1-0.9c-0.3-6.1-2-11.5-6.7-15.9c-2.7-2.5-5.7-4.5-9.1-5.8c-2-0.8-4-1.5-6-2.3c-1.3-0.5-2.6-1-3.8-1.5
		c-0.7-0.3-1.6-0.5-2.3-0.8c-0.7-0.3-1.4-0.5-2-0.9c-0.8-0.5-0.9-1.1-0.7-2c0.4-1,1-1.7,2-2.2c0.8-0.4,1.8-0.7,2.6-1
		c0.6-0.2,1-0.1,1.7,0.1c0.3,0.1,0.6,0.1,0.9,0c0.7-0.2,1.3-0.3,2-0.5c0.3-0.1,0.6-0.3,0.9-0.5c-0.2-0.2-0.2-0.4-0.3-0.5
		c0.1-0.1,0.1-0.1,0.2-0.2c0.7-0.2,1.5-0.4,2.2-0.5c2.2-0.4,4.5-0.7,6.7-0.6c0.5,0,0.8-0.2,1.3-0.4c0.3-0.1,0.6-0.2,0.8-0.3
		c-0.1,0-0.3-0.1-0.4-0.1V16c0.9-0.1,1.9-0.1,2.8-0.2c0.6-0.1,1.3,0,1.7-0.3c1.2-0.7,2.6-0.5,3.9-0.7c0.4-0.1,0.8,0.1,1.2,0.2
		c0.1,0,0.1,0.2,0.2,0.4c1.2-0.3,2.5-0.5,3.6-0.8c1.3-0.5,2.5-0.5,3.8-0.4c0.4,0,0.7,0,0.9-0.1c-0.2-0.1-0.4-0.2-0.6-0.2v-0.2
		c2-0.1,4-0.3,6-0.5c0.3,0.2,0.5,0.4,0.7,0.5c1.5-0.1,2.9-0.3,4.4-0.4c0.3,0,0.6-0.3,0.9,0c0.5-0.5,1.1-0.4,1.7-0.5
		c0.6-0.7,1-1.4,1.6-2c0.2-0.3,0.4-0.5,0.7-0.6c0.5-0.4,0.8-0.4,1.3,0c0.2,0.2,0.5,0.4,0.7,0.5l-0.3,0.3c0.1,0.1,0.2,0.4,0.3,0.5
		s0.3,0.2,0.4,0.3c-0.1,0.4-0.1,0.6-0.2,0.9c0.1,0,0.2,0.1,0.3,0.1c0.7,0,1.3,0,2,0c2.2,0,4.4,0.3,6.5,0.7c0.3,0,0.7,0.1,0.9,0.1
		c2.7-0.4,5.4-0.5,8,0.1c0.4,0.1,0.7,0.1,0.9,0.1c0.9-0.1,1.9,0.4,2.9,0.2c-0.1-0.1-0.2-0.1-0.4-0.3h7.7l-0.7-0.4
		c0.4-0.1,0.6-0.1,0.8-0.1c1.3,0,2.6,0.1,3.8,0.2c0.5,0,0.8,0.2,1.3,0.4c0.5,0.3,1.1,0.4,1.7,0.5c0.7,0.1,1.4,0.1,2,0
		c1.1-0.1,2,0.1,3.1,0.4c0.4,0.1,0.8,0.2,1.4,0.4c-0.3-0.2-0.5-0.4-0.6-0.5c0.1,0,0.2-0.1,0.2-0.1c1.5,0.1,2.6,0.9,3.5,1.9
		c0.2,0.3,0.4,0.6,0.5,0.9C315.3,17.8,315.2,18.5,314.5,19z M262.6,16c-0.3,0-0.5,0-0.7,0c-3.1,0.2-6.2,0.4-9.3,0.5
		c-3.3,0.3-6.4,0.7-9.7,1c-1.8,0.2-3.6,0.4-5.4,0.6c-3.2,0.5-6.3,1.1-9.5,1.7c-3.3,0.7-6.6,1.5-9.9,2.2c-0.2,0.1-0.5,0-0.8,0.1
		l0.9-0.6c-1.1,0.3-2.2,0.7-3.4,1.3l1,0.4c0.9,0.4,1.9,0.6,2.8,0.9c2.4,0.9,4.9,1.5,7.2,2.8c0.8,0.5,1.8,0.7,2.7,1.1
		c3.1,1.3,5.8,3,8.3,5.1c0.2,0.2,0.3,0.4,0.5,0.5c0.3,0.3,0.6,0.5,0.9,0.8c0.5,0.5,1.1,0.9,1.5,1.5c0.5,0.8,1.1,1.4,1.7,2
		c0.7,0.7,1.1,1.5,1.1,2.5c0.2,0.2,0.3,0.4,0.5,0.5c1.2,2,1.9,4.1,2.2,6.4c0.2,1.2,0.3,2.4,0.5,3.5c0.5-0.7,0.8-1.5,1.1-2.3
		c0.7-1.9,1.8-3.6,2.5-5.5c0.7-1.8,1.5-3.5,2.2-5.4c3.2-7,6.7-13.8,10.5-20.5C262.2,16.8,262.4,16.5,262.6,16z M228.1,18.7
		c0,0.1,0,0.1,0.1,0.2c0.2,0,0.6,0,0.7-0.1c0.7-0.2,1.5-0.5,2.2-0.3c1.2,0.2,2.3-0.2,3.5-0.2c0.5,0,0.8-0.1,1.3-0.2v-0.1
		c-0.3-0.1-0.7-0.2-1.1-0.3c0.7-0.2,1.3-0.5,2-0.5c0.9-0.4,2-0.4,3-0.8l-0.8-0.3c-1,0.3-2,0.5-3.1,0.7c0,0.1,0,0.2,0.1,0.3
		c-0.5,0.4-1,0.3-1.5,0.4c-1.3,0.2-2.7,0.5-4,0.7C229.7,18.3,228.9,18.5,228.1,18.7z M236.2,33.4c-0.9-0.8-0.9-0.8-1.7-0.9
		C235,33.2,235.5,33.4,236.2,33.4z M297.3,14.8c-0.5-0.2-0.6-0.2-1.6,0H297.3z M298.9,14.9c-0.5-0.2-0.9-0.4-1.5-0.1
		C297.9,15.2,298.3,15.1,298.9,14.9z M300.3,14.8h-1.1C299.6,15,299.9,15,300.3,14.8z"/>
	<path d="M265.3,41.9c-0.3,0.4-0.5,0.7-0.7,1.3c0.8-0.5,1.4-0.8,2-1.3c2.1-1.6,4.3-3.2,6.5-4.8l1.7-1.3c0.2-0.1,0.5-0.2,0.7-0.4
		l0.5,1.1c0.5-0.1,0.7-0.5,1.3-0.2c0.6,0.8,0.3,1.6,0,2.5c-0.2,0.5-0.5,1-0.7,1.5l-2.8,5.5c-0.1,0.2-0.2,0.4-0.4,0.6
		c-0.3-0.4-0.1-0.7,0-1c0.2-0.4,0.4-0.8,0.6-1.2c0.5-0.5,0.8-1.2,1-1.9c-0.5,0.5-1,1.1-1,1.9c-0.5,0.2-0.6,0.6-0.7,1
		c-0.2,0.5-0.5,1-0.7,1.5l-0.6-0.5c-0.1,0.1-0.2,0.1-0.5,0.2c-0.1-0.1-0.3-0.3-0.5-0.4c0.2-0.5,0.6-1.1,0.4-1.7
		c0-0.2,0.1-0.4,0.2-0.5l1.6-3c0.1-0.2,0.1-0.4,0.3-0.7l-2.9,2c-0.1,0-0.2,0-0.3,0c-0.4-0.1-0.4-0.1-0.7,0.4c0.1,0,0.4-0.1,0.5-0.1
		c0.3,0.1,0.5,0,0.6-0.2c0.3-0.1,0.6-0.2,1-0.4c-1.5,1.3-3,2.2-4.5,3.1c-0.8,0.5-1.7,0.9-2.4,1.3c-1,0.5-2,0.4-3.1,0
		c-0.5-0.2-0.7-0.5-0.7-1.1c0-1.1,0.4-2.2,1-3.1c0.7-1,1.5-2,2.3-3c1.8-2,3.7-3.8,5.9-5.3c0.8-0.5,1.7-0.9,2.6-1.1
		c0.4-0.1,0.7-0.4,1.1-0.5c0.4-0.2,0.8-0.5,1.2-0.5c0.7-0.2,1.1,0.3,1.6,0.7c-0.1,0-0.3-0.1-0.5-0.2c0,0.2-0.1,0.4-0.1,0.5
		c0.3,0,0.6,0.1,0.8,0.1c0.7,0.6,0.8,1.4,0.5,2.3c-0.7,0.4-0.8,0.3-1.2-0.4c-0.1,0.1-0.3,0.1-0.5,0.2c-0.1-0.1-0.2-0.2-0.4-0.3
		c-0.1-0.1-0.1-0.2-0.2-0.4c-0.5,0.2-0.8,0.4-1.2,0.5c-1.3,0.8-2.6,1.6-3.8,2.5c-0.7,0.5-1.3,0.9-2,1.4
		C267,39.6,266.2,40.8,265.3,41.9z M264,44.9c-0.2,0.1-0.4,0.1-0.6,0.1C263.9,45.2,264.1,45.2,264,44.9z M264.7,44.4
		c0.2,0.1,0.4,0.1,0.5,0.2c0.1-0.1,0.1-0.3,0.3-0.5L264.7,44.4z M269.2,42.8L269.2,42.8l0.3-0.1L269.2,42.8z"/>
	<path d="M279,45.5c-0.4-0.9-0.3-1.9-0.2-2.9c0.2-2.3,1.2-4.3,2.3-6.2c0.2-0.5,0.4-0.8,0.7-1.3c0.2-0.5,0.6-1,1-1.4
		c0.1,0.1,0.7,0.3,0.8,0.4c-0.4,0.3-0.7,0.5-1.1,0.9l0.4,0.2c0.1-0.1,0.3-0.3,0.4-0.4c0.1-0.2,0.5,0.1,0.5-0.2
		c0.1-0.2,0.3-0.3,0.5-0.2c0.2,0.5,0.2,0.7-0.2,1.1c-0.2,0.2-0.3,0.4-0.5,0.5c-0.2,0.4-0.5,0.8-0.7,1.2l-0.1-0.4
		c-0.5,0.9-0.9,1.7-1.3,2.6c-0.1,0.3-0.1,0.7-0.1,1.1c0,0.1,0,0.3,0,0.4c-0.3,0.5-0.3,1.2-0.4,1.8c-0.1,0.8,0,1.5,0.2,2.4
		c0,0.1,0.1,0.2,0.1,0.3c0.5,0,0.7-0.2,0.9-0.5c-0.1-0.1-0.2-0.1-0.2-0.1l1-0.8c0.2,0.2-0.3,0.4-0.4,0.6c0.4,0.1,0.8,0.1,1.3,0.1
		c-0.2,0.3-0.4,0.5-0.6,0.7c-0.4,0.4-0.8,0.5-1.2,0.9c-0.1,0.1-0.2,0.1-0.2,0.2C280.8,47.2,279.5,46.8,279,45.5z M284.2,31.4
		c-0.2,0-0.4,0.1-0.4,0c-0.1,0-0.3-0.2-0.2-0.4c0-0.6,0.2-1.3,0.7-1.6c0.5,0.1,0.7,0.4,0.8,0.9c0.2-0.4,0.5-0.5,0.8-0.4
		c0.1,0.3,0.2,0.5,0.1,0.9c-0.2,0.5-0.6,0.7-0.9,1C284.9,32.1,284.6,31.8,284.2,31.4z"/>
	<path d="M295.8,46.2c0-0.5-0.2-1.1-0.4-1.5c-0.2-0.7-0.3-1.5,0-2.2c0.4-1,0.7-1.9,1.1-3c-0.2,0.1-0.4,0.2-0.6,0.2
		c0-0.2,0-0.4-0.1-0.6c0.7-0.7,1.8-1.3,1.9-2.5c-2.6,2.3-5.2,4.5-8.1,6.4c0,0,0,0.2,0,0.4c0.7-0.3,1.3-0.6,1.9-1
		c0.8-0.6,1.7-1.4,2.5-2c0.4-0.3,0.7-0.5,1.1-0.8c-0.1,0.5-0.8,1.7-1.4,2.4c-0.6,0.5-1.1,1.1-1.8,1.6c-0.4,0.4-0.8,0.6-1.4,0.9
		c-0.7,0.4-1.1,0.1-1.3-0.7l-0.1-0.4c-0.5,0.3-0.9,0.5-1.4,0.7c-0.7-0.3-0.9-0.7-0.7-1.4c0.2-0.7,0.4-1.5,0.7-2.2
		c1.7-3.4,3.8-6.5,6.6-9.2c0.2-0.2,0.3-0.3,0.5-0.5c0.4-0.2,0.7-0.4,1-0.1c0.6,0.5,1.3,0.7,1.6,1.5c-0.4,0.5-0.7,0.9-1.5,1
		c-0.2,0-0.4,0.2-0.5,0.4c-1,0.9-1.9,1.9-2.6,3c-0.7,1.1-1.1,2.2-1.7,3.5l2.4-2l3.5-3.1c0.3-0.3,0.6-0.5,0.9-0.7
		c0.7-0.5,0.7-0.5,1.4,0.1c0.2,0.1,0.4,0.2,0.6,0.4c0.1,0.2,0.1,0.5,0.1,0.8c0.6,0.1,0.7,0.5,0.7,1s-0.2,1.1-0.5,1.5
		c-0.7,1.6-1.4,3.3-2.1,5c0.5-0.2,0.7-0.4,0.9-0.6c1.1-1.1,2.3-2.2,3.4-3.5c2.2-2.5,4.4-5,6.4-7.5c1.3-1.5,2.4-3.2,3.6-4.8
		c0.2-0.4,0.6-0.6,0.7-0.9c0.8,0.3,0.9,0.4,1.4,1.1c-0.2,0.2-0.4,0.5-0.5,0.8c0.3,0.1,0.6,0.2,0.9,0.4c-0.1,0.3-0.3,0.5-0.4,0.7
		c-2.2,3.3-4.6,6.4-7.3,9.4c-0.5,0.5-0.8,1-1.2,1.5c-0.7,0.8-1.4,1.7-2.1,2.5c-1.4,1.4-2.8,2.7-4.2,4c-0.4,0.4-0.8,0.6-1.3,0.9
		c-0.5,0.4-1.1,0.5-1.8,0.5C296.4,47.3,295.9,46.8,295.8,46.2z M297.1,44.5c-0.5,0.2-0.7,0.5-0.5,1.1L297.1,44.5z M297.5,43.3
		c0.3-1.5,0.7-2.9,1.4-4.2c0.2-0.4,0.3-0.8,0.4-1.3c-0.7,1-1.3,2.2-2,3.2c-0.6,1-0.5,2-0.6,3.1C297.2,44,297.4,43.6,297.5,43.3z
		 M299,43.9c0.7-0.5,1.1-1.3,2-1.6c1.1-1.2,2.3-2.4,3.3-3.5c1-1.1,2-2.3,3-3.5c0.5-0.5,0.9-1.2,1.5-1.7c0.2-0.3,0.6-0.5,0.7-1.1
		c-0.3,0.4-0.6,0.5-0.7,0.8c-1.4,1.5-2.9,3.1-4.3,4.5c-0.6,0.6-1.2,1.3-1.9,1.8c-1.3,1.2-2.6,2.3-3.8,3.5c-0.3,0.2-0.5,0.5-0.7,0.8
		c0,0.1,0.1,0.1,0.1,0.2C298.4,44.1,298.8,44.1,299,43.9z M311.6,30c-0.1-0.1-0.1-0.1-0.2-0.2c-0.5,0.5-0.9,1.1-1.3,1.7
		C310.8,31.3,311.3,30.6,311.6,30z"/>
	<path d="M313.5,41.9c-0.3,0.4-0.5,0.7-0.7,1.3c0.8-0.5,1.4-0.8,2-1.3c2.1-1.6,4.3-3.2,6.5-4.8l1.7-1.3c0.2-0.1,0.5-0.2,0.7-0.4
		l0.5,1.1c0.5-0.1,0.7-0.5,1.3-0.2c0.6,0.8,0.3,1.6,0,2.5c-0.2,0.5-0.5,1-0.7,1.5l-2.8,5.5c-0.1,0.2-0.2,0.4-0.4,0.6
		c-0.3-0.4-0.1-0.7,0-1c0.2-0.4,0.4-0.8,0.6-1.2c0.5-0.5,0.8-1.2,1-1.9c-0.5,0.5-1,1.1-1,1.9c-0.5,0.2-0.6,0.6-0.7,1
		c-0.2,0.5-0.5,1-0.7,1.5l-0.6-0.5c-0.1,0.1-0.2,0.1-0.5,0.2c-0.1-0.1-0.3-0.3-0.5-0.4c0.2-0.5,0.6-1.1,0.4-1.7
		c0-0.2,0.1-0.4,0.2-0.5l1.6-3c0.1-0.2,0.1-0.4,0.3-0.7l-2.9,2c-0.1,0-0.2,0-0.3,0c-0.4-0.1-0.4-0.1-0.7,0.4c0.1,0,0.4-0.1,0.5-0.1
		c0.3,0.1,0.5,0,0.6-0.2c0.3-0.1,0.6-0.2,1-0.4c-1.5,1.3-3,2.2-4.5,3.1c-0.8,0.5-1.7,0.9-2.4,1.3c-1,0.5-2,0.4-3.1,0
		c-0.5-0.2-0.7-0.5-0.7-1.1c0-1.1,0.4-2.2,1-3.1c0.7-1,1.5-2,2.3-3c1.8-2,3.7-3.8,5.9-5.3c0.8-0.5,1.7-0.9,2.6-1.1
		c0.4-0.1,0.7-0.4,1.1-0.5c0.4-0.2,0.8-0.5,1.2-0.5c0.7-0.2,1.1,0.3,1.6,0.7c-0.1,0-0.3-0.1-0.5-0.2c0,0.2-0.1,0.4-0.1,0.5
		c0.3,0,0.6,0.1,0.8,0.1c0.7,0.6,0.8,1.4,0.5,2.3c-0.7,0.4-0.8,0.3-1.2-0.4c-0.1,0.1-0.3,0.1-0.5,0.2c-0.1-0.1-0.2-0.2-0.4-0.3
		c-0.1-0.1-0.1-0.2-0.2-0.4c-0.5,0.2-0.8,0.4-1.2,0.5c-1.3,0.8-2.6,1.6-3.8,2.5c-0.7,0.5-1.3,0.9-2,1.4
		C315.4,39.6,314.5,40.8,313.5,41.9z M312.3,44.9c-0.2,0.1-0.4,0.1-0.6,0.1C312.2,45.2,312.4,45.2,312.3,44.9z M312.9,44.4
		c0.2,0.1,0.4,0.1,0.5,0.2c0.1-0.1,0.1-0.3,0.3-0.5L312.9,44.4z M317.4,42.8L317.4,42.8l0.3-0.1L317.4,42.8z"/>
	<path d="M339.9,38.9c-0.6,2.2-1.1,4.4-1.8,6.6l-0.4,1.5c-0.1,0.3-0.1,0.6,0,0.9c0.2,0.6,0,1.1-0.6,1.6c-0.4,0.2-0.9,0.3-1.3-0.2
		c-0.1-0.1-0.3-0.2-0.4-0.2c-0.7-0.3-0.8-0.5-0.7-1.3l0.8-3.5c0.2-1,0.5-1.9,0.8-2.9c0.1-0.5,0.2-1.2,0.7-1.6
		c0.1-0.1,0.2-0.3,0.2-0.4c0.1-0.4,0.2-0.8,0.3-1.2c0-0.4,0-0.7-0.1-1c-0.6-0.1-1,0.1-1.5,0.3c-2.8,1.3-5.1,3-7.1,5.3
		c-0.2,0.2-0.4,0.5-0.7,0.5c-0.5,0.2-0.7,0-0.7-0.5c0.1-0.6,0.3-1.3,0.5-2c0.3-1.4,1-2.6,1.7-3.8l0.9-1.6c-0.1,0-0.2,0-0.4,0
		c0.6-1.1,1.1-2.2,2-3.2c0.2,0.2,0.3,0.3,0.5,0.5c-0.3,0.3-0.6,0.5-0.8,0.7c0.4,0.5,0.2,1.3,0.1,1.9c0.5-0.7,1-1.3,1.5-2
		c0,0.1,0.1,0.3,0.1,0.5c0,0.1-0.2,0.3-0.1,0.4c0.5,0.6-0.1,1.1-0.5,1.5c-0.2,0.4-0.5,0.7-0.6,1.1l1.8-0.9c-0.1,0.4-0.2,0.5-0.3,0.8
		c0.5-0.2,0.9-0.4,1.5-0.5c-0.2-0.1-0.3-0.2-0.4-0.3c1.3-1.7,3.3-1.1,4.1,0C339.9,36.7,340.2,37.8,339.9,38.9z M330.9,34.8
		c-0.1,0.1-0.2,0.2-0.3,0.4c0,0.1,0,0.1,0,0.2C330.9,35.3,331.1,35.2,330.9,34.8z"/>
</g>
</svg>
