<?xml version="1.0" encoding="utf-8"?>
<!-- Generator: Adobe Illustrator 18.1.0, SVG Export Plug-In . SVG Version: 6.00 Build 0)  -->
<svg version="1.1" id="圖層_1" xmlns="http://www.w3.org/2000/svg" xmlns:xlink="http://www.w3.org/1999/xlink" x="0px" y="0px"
	 width="180px" height="180px" viewBox="0 0 180 180" enable-background="new 0 0 180 180" xml:space="preserve">
<g>
</g>
<g>
	<g>
		<path d="M81.5,165.9c0,0-0.1-0.1-0.3-0.3c0.7,1.7,0.5,0.9,0.5,0.6c0.4,0.8,0.8,1.6,1.2,2.5c0,0.1-0.1,0.1-0.5-0.6
			c0.6,1.4,0.8,1.5,1,1.6c0.8,1.5,1.6,3,2.5,4.5c0.1,0.3,0.2,0.5,0.3,0.7c0.7,1.1,1.2,1.8,1.6,2.1c0,0,0,0,0.1,0.1
			c0.5,0.7,1.1,1.3,1.8,1.8c-0.1,0-0.1-0.1-0.2-0.1c-0.2-0.1-0.4-0.2-0.4-0.1c0.3,0.3,0.7,0.5,1.1,0.6c0.4,0.2,0.9,0.5,1.4,0.5
			c0.3,0,0.5-0.1,0.7-0.3c0,0,0,0,0,0c0.5-0.7,0.6-1.7,0.7-2.6c0.1-1.1,0.3-2.1,0.6-3.2c0.5-2.5,1.1-5,1.9-7.5
			c0.4-1.2,0.8-2.5,1.3-3.7c0.3-0.7,0.7-1.3,0.3-2c-0.6-1-1.9-1.8-3-2.2c-0.5-0.2-0.7-0.1-0.9,0.3c-0.5,1.1-0.9,2.2-1.3,3.4
			c-0.8,2.3-1.4,4.7-1.9,7.1c-0.9-3.9-1.3-7.9-1.5-11.9c0,0,0,0,0,0c0.1-1.5,0-1.8,0-2.2c0-0.6,0-1.2,0-1.8c0.1,0.6,0.3,1,0.4,1.6
			c-0.1-1.6-0.2-2.1-0.3-2.8c0-0.5,0-1,0.1-1.6c0-0.2,0.1,0,0.2-0.1c0-0.5,0-0.9-0.1-1.4c0.1-1.5,0.3-3.1,0.5-4.6
			c0,0,0.1-0.2,0.2-1.4c0.4-2.6,1-5.1,1.7-7.6c0.1,0.1,0.3,0.3,0.4,0.4c0.2,0.2,0.3,0.4,0.4,0.5c0.1,0.1,0.1,0.1,0.1,0.2
			c0.1,0,0.2,0,0.3,0.1c1.2,1.1,2.6,2,4,2.7c0.1,0.1,0.2,0.1,0.4,0.2c0.9,0.4,1.8,0.8,2.7,1.1c0.3,0.2,0,0.2-0.2,0.1
			c-0.4-0.1-0.8-0.2-1.2-0.4c-0.8-0.3-1.6-0.7-2.3-1c0.9,0.5,1.7,0.9,2.7,1.2c0.9,0.3,1.7,0.4,2.6,0.5c0.2,0,0.3,0,0.6,0.1
			c0.7,0.2,1.8,0.2,2.8,0.2c1.4,0.1,2.8,0,4.1-0.1c-0.1,0-0.2,0-0.2,0.1c0.7-0.1,1.3-0.2,2-0.2c0.8,0,1.5-0.2,2.3-0.5
			c-0.4,0.1-0.9,0.1-1.5,0.2c1.6-0.4,3.1-0.9,4.6-1.5c0.5-0.2,0.7-0.2,0.4,0c0.9-0.4,1.9-0.8,2.6-1.5c0.7-0.4,1.4-0.9,2.2-1.3
			c-0.2,0.2-0.5,0.4-0.7,0.6c-0.1,0-0.9,0.5-0.9,0.7c0,0,1-0.4,1-0.5c0.6-0.5,1.2-1,1.8-1.5c0.1,0,0.4-0.2,0.7-0.4
			c0.5-0.4,1.1-0.8,1.6-1.2c0.1,0,1-0.7,1-0.6c0.9-0.9,1-1.2,1.7-2c0.8-0.6,1.5-1.3,2.1-2.2c-0.2,0.3-0.5,0.5-0.7,0.7
			c-1.5,1.5-3,2.9-4.6,4.2c-0.3,0.3-0.7,0.6-1.2,0.9c0,0,0.1-0.1,0.2-0.2c3.2-2.5,6-5.5,8.3-8.7c0.3-0.3-0.4,0.9-0.4,1.1
			c0.9-1.1,1.3-1.8,1.6-2.5c0.3-0.7,0.6-1.2,1.3-2.3c-0.2,0.3-0.3,0.6-0.5,0.9c0,0.1-0.2,0.3-0.2,0.4c0-0.1,0.4-0.6,0.5-0.7
			c0.2-0.3,0.4-0.6,0.6-1c0.4-0.6,0.7-1.3,1.1-2c-0.5,0.5-0.8,1.1-1.2,1.7c-0.5,0.7-0.9,1.5-1.4,2.2c2.1-3.3,3.6-7,4.3-10.8
			c0.6-3.8,0.3-7.9-1.9-11.1c-1.5-2.2-3.8-3.5-6.4-4c0,0,0,0,0,0c0,0-0.1,0-0.2,0c-1.3-0.2-2.6-0.3-3.9-0.2c0.3-0.1,0.8-0.2,1.6-0.2
			c-2.1-0.2-4.2,0.1-6.2,0.6c-1.9,0.5-4,1.2-5.7,2.4c-0.2,0.1-0.4,0.2-0.6,0.3c0,0-0.5,0.2-0.5,0.1c0-0.1,0.4-0.3,0.5-0.3
			c0.4-0.2,0.7-0.4,1.1-0.6c0.7-0.3,1.5-0.7,2.2-1.1c-2.4,0.8-4.8,1.9-7,3.2c-2.2,1.3-4.1,2.8-6,4.4c-1.2,1.2-2.4,2.3-3.6,3.6
			c-1.1,1.3-2.2,2.6-3.2,4c-0.4,0.5-0.7,1-1.1,1.5c0.1,0.2,0,0.4-0.2,0.8c-0.2,0.4-0.5,0.9-0.7,1.5l-0.6,0.7c0.2-0.2,0,0.3,0.2,0.2
			c-1.7,2.9-3.2,5.9-4.5,9c-0.6-1.1-1-2.2-1.5-3.4c0.4,0.5,0.7,1,1,1.6c-0.1-0.2-0.2-0.4-0.3-0.6c-0.3-0.7-0.6-1.4-0.8-2.1
			c-0.3-0.9-0.5-1.8-0.7-2.7c-0.4-1.8-0.6-3.7-0.9-6.4c0.2,0.4,0.2,0.9,0.3,1.4c0.1,0.7,0.2,1.4,0.3,2c0.2,1.1,0.4,2.2,0.7,3.3
			c-0.2-0.9-0.5-2.1-0.6-3.2c-0.1-0.4-0.1-0.7-0.1-1.1c0-0.2-0.1-0.7,0-0.9c-0.1-0.1-0.2-0.2-0.3-0.3c-0.2-3.2,0.3,0.4,0.4-0.6
			c-0.1-1-0.1-2.1-0.2-3.1c0-0.3,0-0.8-0.3-1c-0.1-0.1-0.2-0.1-0.2-0.2c-0.2-0.2-0.2-0.5-0.2-0.7c0.1-1,0.2-2.1,0.4-3.1
			c0.1-0.2,0.1-0.5,0.2-0.9c0.2-0.8,0.3-1.6,0.5-2.3c0,0.1,0,0.2,0,0.2c0.1,0.1,0.2-0.1,0.3-0.2c0.1-0.8,0.2-1.6,0.5-2.3
			c0.3-0.8,0.8-1.6,1.2-2.4c0.4-0.7,0.8-1.5,1.4-2.5c0.1,0-0.1,0.5-0.4,1c-0.2,0.5-0.5,1.1-0.4,1.3c0.8-1.9,1.9-3.6,3.1-5.3
			c0.3-0.4,0.5-0.7,0.5-0.9c0.9-0.9,1.8-1.8,2.7-2.7l0.1-0.1c0,0,0.1-0.1,0.1-0.1c0-0.1,0.1-0.2,0.1-0.3c0-0.1,0-0.1-0.1-0.2
			c0,0-0.1-0.1-0.1-0.1c-0.3-0.2-0.7-0.2-1.1-0.2l0,0l0,0l0,0l0,0c0,0,0,0,0,0c0,0,0,0-0.1,0c0,0,0,0,0.1-0.1l0,0l0,0
			c-0.8,0-1.7,0.2-2.3,0.7c-0.7,0.5-1.4,1.2-1.9,1.8c0.3-0.4,0.7-0.7,1-1.1c0.1-0.1,0.2-0.2,0.1-0.3c0,0-0.1-0.1,0-0.2
			c0.1-0.2,0.3-0.4,0.5-0.6c0.1,0,0.1-0.1,0.2-0.1c-0.1,0.1-0.3,0.2-0.4,0.4c-0.1,0.1-0.1,0.1-0.1,0.1L92.7,90
			c-2.1,2.4-4.1,4.8-5.5,7.7c-0.9,1.6-1.6,3.3-2.2,5.1c-0.1,0-0.1-0.1-0.2-0.4c-1,2.5-0.9,3-0.9,3.3c0.1,0.8-0.2,1.7-0.3,2.5
			c0.1-0.3,0.1-0.7,0.2-1c0-0.2,0.1-0.4,0.1-0.6c0,0,0,0.1,0,0.1c-0.5,2.4-0.7,4.9-0.7,7.3c-0.1-0.2-0.2-0.4-0.1,0.3
			c0.3,1,0.2,2.1,0.3,3.1c0,0.4,0,0.7,0,1.1c0.1,0.8,0.2,1.7,0.2,2.4c0.1,0.8,0.3,1.4,0.4,1.9l-0.2-0.7c0,0,0.1,0.8,0.3,1.6
			c0.2,0.8,0.4,1.6,0.4,1.6c0,0,0,0,0,0c0,0,0.1,0.1,0.1,0.1c0.1,1,0.5,2,0.8,2.9c0.4,1.1,1,2.2,1.6,3.1c0.4,0.3,0.6,0.8,0.9,1.2
			c0,0.1-0.1,0.2-0.1,0.3c-0.4,1.3-0.8,2.6-1.1,3.9c-0.3,1.1-0.6,2.1-0.7,3.2c0.2-1.2,0.5-2.3,0.9-3.4l0.2,0.3
			c-0.3,1.2-0.4,1.2-0.5,1.3c0,0-0.1,0-0.3,1.2c0.3-0.2,0.4-0.7,0.4-1c0.1-0.5,0.2-0.9,0.3-1.4c0.2-0.9,0.4-1.8,0.7-2.6
			c-0.1,0.9-0.3,1.7-0.5,2.6c0.1-0.6,0.3-1.1,0.5-1.7c-0.2,0.7-0.4,1.4-0.6,2.1c0-0.1,0.1-0.3,0.1-0.4c-0.2,0.8-0.4,1.6-0.6,2.4
			c-0.1,0.5-0.3,1.1-0.4,1.6c0-0.1-0.1-0.1-0.2,0.3c-0.3,1.1-0.5,2.2-0.6,3.4c0,0.4,0,0.7,0,1.1c-0.1,0.8-0.2,1.6-0.3,2.4
			c-0.2,0.5-0.4,0.1-0.6,3l0-2.4c-0.6,2.3-0.1,2.3-0.2,4c0.2-0.9,0.3-1.7,0.4-2.6c0.2-0.2,0.1,1.4,0.1,2.1l0-0.5c0,0,0,0.1,0,0.1
			c-0.1,2.1-0.2,4.1-0.1,6.2c0,0,0,0,0,0c0-0.2-0.1-0.4-0.1-0.7c0.1,1.6,0.2,3.3,0.3,4.9l0,0c0,0,0,0.1,0,0.1
			c0.1,0.9,0.2,1.7,0.3,2.6c-0.1-0.2-0.1-0.1,0,0.9c-0.2-0.2-0.2-0.6-0.3-0.9c-0.1-0.4-0.1-0.8-0.2-1.2c-0.1-0.9-0.2-1.8-0.2-2.7
			c0,0.6,0.1,1.4,0,2c0,0.2-0.1-0.1-0.1-0.1c-0.1-0.4-0.1-0.9-0.2-1.3c-0.1,0.7,0.3,2.4,0.4,3.7c0-0.2,0.2,0.2,0.2,0.1
			c-0.1,0,0,0.9,0.2,1.8c-1.3-2.8-2.5-5.5-3.6-8.3c-0.6-1.4-1.1-2.8-1.6-4.2c-0.2-0.7-0.5-1.5-0.7-2.2c-0.2-0.7-0.4-1.3-0.9-1.8
			c0.1,0,0.2,0,0.3,0c0.2,0-0.1-0.4-0.2-0.4c-0.3-0.4-0.7-0.6-0.9-0.8c-0.3-0.2-0.6-0.4-0.9-0.5c-0.3-0.1-0.4,0-0.6,0.1c0,0,0,0,0,0
			c-0.2-0.1-0.5-0.2-0.7-0.1c-0.3,0.1-0.1,0.4-0.1,0.6c0.2,0.8,0.4,1.6,0.7,2.4c0.5,1.6,1,3.2,1.7,4.7
			C78.7,159.9,80.1,162.9,81.5,165.9C81.5,166,79.1,160.7,81.5,165.9z M95.8,89.4c0.1,0,0.2,0,0.4,0l0,0l0,0h0
			C96,89.4,95.9,89.4,95.8,89.4C95.8,89.4,95.8,89.4,95.8,89.4C95.9,89.4,95.8,89.4,95.8,89.4z M92.7,131.5c0.1,0,0.1,0.1,0.2,0.1
			c0.1,0.2-0.1,0.2-0.3,0.1c0,0-0.1-0.1-0.1-0.1c0.1-0.3,0.2-0.6,0.3-0.8C92.7,130.9,92.6,131.2,92.7,131.5
			C92.7,131.5,92.7,131.5,92.7,131.5z M102.7,139.3c0.5,0.2,1,0.3,1.5,0.5c-0.4-0.1-0.9-0.2-1.3-0.3
			C102.9,139.4,102.8,139.3,102.7,139.3z M92.6,131.7c0.2,0.2,0.3,0.3,0.3,0.4C92.8,132,92.7,131.8,92.6,131.7z M96.1,89.4
			C96.1,89.4,96.1,89.4,96.1,89.4C96.1,89.4,96.1,89.4,96.1,89.4L96.1,89.4C96.1,89.4,96.1,89.4,96.1,89.4
			C96.1,89.4,96.1,89.4,96.1,89.4z M96.2,89.4L96.2,89.4C96.2,89.4,96.2,89.4,96.2,89.4L96.2,89.4z M96.9,89.6
			C96.9,89.6,96.9,89.6,96.9,89.6C96.9,89.6,96.9,89.6,96.9,89.6z M96.3,89.4C96.3,89.4,96.3,89.4,96.3,89.4c0.1,0,0.2,0,0.3,0
			C96.5,89.5,96.4,89.5,96.3,89.4C96.3,89.4,96.4,89.5,96.3,89.4z M96.2,89.4C96.2,89.4,96.2,89.4,96.2,89.4L96.2,89.4z
			 M132.3,125.1c-0.8,1.2-0.6,0.7-1,1.2c0.4-0.5,0.7-1,1-1.5L132.3,125.1z M132.6,116.9l-0.1-0.1c0.1-0.4,0.2-0.2,0.3-0.5
			C132.7,116.5,132.6,116.7,132.6,116.9z M132.7,116.2c-0.1,0.1-0.2-0.3-0.3-0.4c-0.3,0.9,0.1,1-0.3,1.7c0.1-1.2-0.3,0.4-0.6,0.7
			c0.3-0.1,0.6-0.5,0.9-1.3c-0.9,3.2-2.4,6.2-4.2,8.9c0,0,0,0,0,0c0,0,0,0.1,0,0.1c-0.2,0.3-0.5,0.7-0.7,1c0-0.1,0-0.3,0.2-0.5
			c-0.9,0.7-2,2.3-2.3,3.2c0,0,0,0-0.1,0.1c-0.7,0.4,0.2-0.7,0.3-1.2c-1.9,2.1-3.8,4-6,5.8c0.2,0.3-0.1,0.4-0.3,0.9l-0.3,0.1
			c0.1,0,0.1,0.2,0.2,0.2c-1.2,0.9-2.4,1.7-3.7,2.4c0.1-0.2,0.2-0.5,0.5-0.7c-0.5,0.5-1.1,0.7-1.7,1c-0.6,0.2-1.2,0.5-1.9,0.8
			c0.1-0.3,0.6-0.5,0.8-0.6c0.3-0.2,0.7-0.4,1-0.6c-0.5,0.2-1.4,0.7-1.5,0.6l0,0.3c-0.9,0.3,0-0.3-0.3-0.3c-0.3,0.1-0.8,0.2-1,0.5
			c-0.2,0.3,0.1,0.5-0.2,0.8c-0.3,0.1-0.6,0.1-0.9,0.2c-0.1,0-0.2,0-0.4,0.1c-0.2,0-0.5,0.1-0.7,0.1c0.1-0.1,0-0.3,0-0.3
			c-0.4,0.3-0.6,0.3-1,0.3c-0.5-0.1-1-0.1-1.5-0.2c0-0.1,0.2-0.1,0.3-0.2c0.2-0.1,0.4-0.1,0.4-0.2c-0.8,0.2-2,0.1-2.2,0.4
			c-0.7-0.1-1.3-0.3-1.8-0.4c-0.5-0.2-0.9-0.3-1.3-0.4c0.1,0,0.5,0.1,0.6-0.1c0.1-0.2,0.2-0.2,0.4-0.2c-0.3,0-0.7,0-1,0
			c-0.4,0-0.8-0.1-1.3-0.2c-0.4-0.1-0.7-0.2-1.1-0.2c-0.5-0.3-1-0.5-1.5-0.9c0-0.1,0.1-0.1,0.2-0.2c-1.3-1.1-0.6,0-1.8-1l0.6,0.5
			c0,0-0.1,0-0.1,0c-0.6-0.5-1.2-0.9-1.8-1.4c0.1,0,0.2,0,0-0.2c-0.7-0.1-1.4-1.5-1.8-2l0.2,0.2l-0.5-0.9c0,0,0,0,0,0
			c0,0-0.1,0-0.1,0c0-0.2-0.1-0.3-0.1-0.5l0-0.1c0,0,0-0.1,0-0.1c0-0.1-0.1-0.1,0-0.2c0,0,0-0.1,0.1-0.1l0-0.1l0-0.1
			c-0.1-0.4,0.2-1.1,0.4-1.5c0.1-0.4,0.5-1,0.5-1.5c-0.1,0.3-0.2,0.6-0.4,1l-0.3-0.2c0.3-0.7,0.3,0.1,0.4-0.7c-0.4,0-0.4,1-0.7,1.5
			c0-0.2,0-0.5,0.1-0.9c-0.1,0.2-0.1,0.3-0.2,0.5c0.1-0.2,0.2-0.5,0.3-0.7c0,0.1,0,0.1-0.1,0.2c0.1-0.2,0.2-0.5,0.3-0.7
			c0.1-0.2,0.1-0.3,0.2-0.5c0,0.1,0.1,0.1,0.2,0c0.5-0.7,0.4-1,0.4-1.4c0.1-0.2,0.2-0.5,0.3-0.7c0.2-0.1,0.3,0.1,0.7-0.7l-0.2,0.8
			c0.7-0.5,0.2-0.7,0.5-1.2c-0.2,0.1-0.3,0.1-0.5,0.7c-0.2,0,0-0.5,0.1-0.7l-0.1,0.1c0,0,0,0,0,0c0.3-0.6,0.6-1.2,0.9-1.8
			c0,0,0,0,0,0l0,0.2c0.2-0.5,0.4-1,0.7-1.4l0,0c0,0,0-0.1,0-0.1c0.1-0.2,0.2-0.4,0.4-0.7c0,0.1,0.1,0.1,0.2-0.2
			c0.2,0.3-0.5,1.2-0.6,1.4c0.1-0.2,0.3-0.4,0.5-0.5c0.2-0.1,0,0.4,0,0.5c0.3-0.1,0.3-0.7,0.6-1c-0.1,0-0.1-0.1-0.2-0.1
			c0.3,0.1,0.8-1.3,0.6-1.5l-0.2,0.8c-0.1,0-0.1-0.4-0.1-0.6c1-1.8,2.1-3.4,3.3-5.1c0.1,0.1,0.1,0.3,0.3,0.2
			c0.6-0.7,0.3-0.7,0.2-0.9c1.2-1.6,2.5-3.1,3.9-4.5c0,0,0.1,0.1,0,0.2c0.5-0.4,0.2-0.3,0.1-0.3c0.2-0.2,0.4-0.4,0.6-0.6
			c0.1,0,0.2,0,0,0.3c0.4-0.3,0.4-0.4,0.3-0.6c0.4-0.4,0.8-0.7,1.2-1.1c0.1,0,0.2-0.1,0.3-0.1c0.4-0.3,0.5-0.6,0.6-0.7
			c0.2-0.2,0.4-0.3,0.6-0.5c-0.1,0.1-0.1,0.2,0,0.3c0.2-0.5,0.6-0.8,1-1.1c0.5-0.4,1.1-0.8,1.6-1.2c1-0.7,2.1-1.3,3.2-1.9
			c2.2-1.2,4.7-2.1,7.2-2.3c0.1,0,0.1,0,0.2,0c0.4,0,0.8,0,1.1,0c0,0,0,0,0,0c0.2,0.1,0.4,0.1,0.5,0.1c0.1,0,0.1,0,0.2,0
			c0.2,0,0.4,0,0.6,0.1c-0.2,0.1-0.4,0.2-0.5,0.3c0.5,0,0.7-0.2,0.9-0.2c0.2,0,0.3,0.1,0.5,0.1c0.1,0.1,0,0.1,0,0.2
			c0.2,0,0.3,0,0.5,0c0.5,0.1,0.9,0.3,1.4,0.5c0,0,0.1,0.1,0.4,0.2c0.8,0.4,1.5,0.9,2.1,1.6c0.1,0.1,0.1,0.2,0,0.3
			c0.1,0,0.1,0,0.2,0c0.3,0.3,0.6,0.7,0.8,1.1c0.1,0.1,0.1,0.2,0.2,0.3c0.2,0.4,0.3,0.7,0.3,0.7c-0.1,0.2-0.2,0-0.3-0.2
			c-0.1-0.2-0.3-0.6-0.5-0.7c0.2,0.3,0.3,0.6,0.5,0.9c0.2,0.2,0.4,0.4,0.6,0.7c0.1,0.2,0.2,0.4,0.3,0.6c0,0.1,0.1,0.1,0.1,0.2
			c0.1,0.4,0.2,0.8,0.3,1.3c0,0,0-0.1-0.1-0.1c0.1,0.4,0,0.6,0,0.7c0,0.1-0.1,0.2,0.1,0.7c0-0.1,0.1-0.3,0.1-0.5
			c0.1,0.5,0.2,1,0.2,1.5c0,0.2-0.1,0.3-0.2,0.1c0,0.5,0.1,0.8,0.3,0.9c0,0.3,0,0.5,0,0.8c-0.2-0.3-0.2-1.1-0.4-0.3
			c0.1,0.2,0.2,0.5,0.2,0.7c-0.1,0.1-0.2,1.3-0.5,1.2c0,0.4,0.1,0.5,0.1,0.8c-0.2,0.3-0.3,0.5-0.2,0.9c0.4-1.7,0.5-1.2,0.6-2.7
			c0.1,0,0,0.2,0,0.4l0-0.1C133.2,113.9,133,115.1,132.7,116.2C132.6,116.4,133,115.1,132.7,116.2z M96.4,90.5L96.4,90.5
			C96.4,90.5,96.4,90.5,96.4,90.5z M96.8,89.6C96.8,89.5,96.7,89.5,96.8,89.6C96.8,89.5,96.8,89.5,96.8,89.6z M93.1,90.5
			c0.7-0.6,1.6-0.9,2.5-1.1c0,0,0,0,0,0c-0.8,0.1-1.6,0.3-2.2,0.8c-0.1,0.1-0.3,0.2-0.5,0.4C92.9,90.7,93,90.6,93.1,90.5
			C93.2,90.4,93,90.6,93.1,90.5z M85.7,127.2c0.2,0.4,0.3,0.7,0.5,1.1c0,0,0,0,0,0C86,127.9,85.8,127.5,85.7,127.2
			C85.8,127.5,85.7,127.2,85.7,127.2z M87.1,130.2c-0.4-0.6-0.7-1.2-1.1-1.7c-0.2-0.5-0.2-0.6-0.1-0.6c0.1,0,0.1,0.2,0.2,0.3
			c0.4,0.9,0.9,1.8,1.4,2.6C87.4,130.7,87.2,130.5,87.1,130.2C86.8,129.6,87.2,130.5,87.1,130.2z M85.6,168.4
			c-0.1-0.1-0.1-0.3-0.2-0.4C85.5,168.1,85.6,168.2,85.6,168.4z"/>
		<path d="M96.2,122.9c-0.1,0.2-0.1,0.4-0.2,0.7L96.2,122.9z"/>
		<path d="M97.8,121c0,0,0.1,0,0.1-0.1C97.9,120.9,97.8,120.9,97.8,121z"/>
		<path d="M112.9,138.3l0-0.1C112.9,138.2,112.9,138.3,112.9,138.3z"/>
		<path d="M95.4,124.4L95.4,124.4C95.5,124.2,95.5,124.3,95.4,124.4z"/>
		<path d="M96.1,124.1c-0.1,0.1-0.2,0.2-0.3,0.3C95.9,124.4,96,124.3,96.1,124.1z"/>
		<path d="M128.3,125.8C128.3,125.8,128.3,125.8,128.3,125.8C128.3,125.8,128.3,125.8,128.3,125.8z"/>
		<path d="M93.6,132.2c0,0,0.1,0,0.1,0C93.7,132.1,93.7,132.1,93.6,132.2z"/>
		<path d="M94.2,132.3c0,0.2-0.2-0.1-0.5-0.1C94,132.4,94.6,133,94.2,132.3z"/>
		<path d="M128.9,123.7l0.4-0.9L129,123C129,123.2,128.8,123.8,128.9,123.7z"/>
		<path d="M130.2,121.5c0.2-0.3,0.3-0.5,0.5-0.8l-0.1-0.7C130.2,120.9,130.6,120.7,130.2,121.5z"/>
		<path d="M131.4,119.3l0,0.2C131.4,119.3,131.4,119.3,131.4,119.3z"/>
		<path d="M131.3,119.2l-0.1-0.4c0,0-0.1,0.3-0.1,0.6c-0.1,0.3-0.1,0.6-0.1,0.6l0.2-0.4c0.1,0,0.2-0.2,0.3-0.2l0-0.5
			C131.3,118.9,131.3,119.1,131.3,119.2z"/>
		<path d="M131.6,118.3c0,0-0.1,0-0.1,0C131.5,118.3,131.5,118.3,131.6,118.3z"/>
		<path d="M132.1,105.8l0.2,0.5l0.2,0.1C132.3,106.2,132.2,106,132.1,105.8z"/>
		<path d="M130.4,102.7C130.3,102.7,130.3,102.7,130.4,102.7C130.3,102.7,130.3,102.7,130.4,102.7z"/>
		<path d="M124.5,100.1c-0.1,0-0.2,0-0.3,0C124.4,100.1,124.5,100.1,124.5,100.1z"/>
		<polygon points="130.4,102.9 130.1,102.7 130.2,103 		"/>
		<path d="M123.9,100.2l-0.3,0.2l0.2,0C124,100.3,124.1,100.2,123.9,100.2z"/>
		<polygon points="122.3,100.1 123,100.1 122.6,99.9 		"/>
		<path d="M99.2,118.4c0.5-0.5,0.6-1.2,1-1.7C99.7,117.1,99.4,117.9,99.2,118.4z"/>
		<path d="M97.4,123.2c0-0.2,0.1-0.4-0.1-0.1l-0.1-0.8C96.6,123.2,97.2,123.2,97.4,123.2C97.4,123.1,97.2,123.2,97.4,123.2z"/>
		<path d="M95,128.5l0.2-0.9l-0.2,0.4c-0.1-0.3-0.1-0.5-0.1-0.9C94.8,127.8,94.7,128.5,95,128.5z"/>
		<path d="M95.3,126.4c0,0.1-0.1,0.2-0.1,0.3C95.2,126.6,95.3,126.6,95.3,126.4z"/>
		<path d="M95,127c0,0.1,0,0.1,0,0.1c0-0.2,0.1-0.3,0.1-0.5C95.1,126.7,95,126.8,95,127C95,127.1,95,126.8,95,127z"/>
		<path d="M94.6,129.1c-0.2,0.5-0.4,1-0.5,1.5l0.3-0.5C94.1,129.8,94.7,129.4,94.6,129.1z"/>
		<path d="M99,136.3c-0.5-0.1-1.7-0.9-2.2-1.4l0,0.3c0.4,0.3,0.8,0.6,1.2,0.8c0.4,0.2,0.9,0.4,1.1,0.8C99.1,136.6,99.9,137,99,136.3
			C98.5,136.3,99.9,137,99,136.3z"/>
		<path d="M99.1,136.8C99.1,136.8,99.1,136.8,99.1,136.8C99.1,136.8,99.1,136.8,99.1,136.8z"/>
		<path d="M99.6,137.4c-0.2,0,0,0.2,0.1,0.3c0.3,0.2,0.7,0.3,0.6,0.1C99.9,137.9,100.1,137.4,99.6,137.4
			C99.4,137.3,100.1,137.4,99.6,137.4z"/>
		<path d="M103.9,139.1c-0.3-0.1-0.7-0.2-0.3,0c0.9,0.2,0.7-0.1,1.2-0.2C104.2,138.6,103.4,138.9,103.9,139.1
			C103.7,139.1,103.4,138.9,103.9,139.1z"/>
		<polygon points="110.5,139.6 111,139.2 110.7,139.2 		"/>
		<path d="M115.6,137.1c0.1,0,0.2,0,0.2,0l0.5-0.5c0,0-0.8,0.6-0.8,0.5C115.5,137.1,115.6,137.1,115.6,137.1
			C115.7,137.1,115.6,137.1,115.6,137.1z"/>
		<path d="M116.7,136.6c0,0,0.2-0.1,0.4-0.2c0.2-0.1,0.4-0.3,0.4-0.3l-0.3,0.1C116.8,136.4,117,136.4,116.7,136.6z"/>
		<path d="M118.4,135.4c-0.1,0.1-0.3,0.3-0.3,0.3s0.2-0.2,0.4-0.3c0.2-0.2,0.4-0.4,0.4-0.4c-0.1,0.1-0.2,0.1-0.2,0.1
			C118.7,135.1,118.6,135.3,118.4,135.4C118.3,135.6,118.6,135.3,118.4,135.4z"/>
		<path d="M84.7,157.5c0-0.7-0.1-1.5-0.1-2.1L84.7,157.5z"/>
		<path d="M84.7,166c0-0.2,0-0.3,0-0.5C84.7,165.5,84.7,165.7,84.7,166z"/>
		<path d="M87.8,116.1l0.1,0.2C87.9,116.1,87.8,116.1,87.8,116.1z"/>
		<path d="M84.8,152.3l0,0.1C84.8,152.8,84.8,152.7,84.8,152.3z"/>
		<path d="M84.4,152.8c-0.1,0.2-0.1,0.6-0.2,1.2C84.3,153.5,84.3,153.1,84.4,152.8z"/>
		<path d="M128.5,98.3c0.1,0,0.2,0,0.3,0C128.6,98.3,128.5,98.3,128.5,98.3z"/>
		<path d="M83.5,108.8c0-0.2,0.1-0.5,0.1-0.7C83.5,108.4,83.5,108.6,83.5,108.8z"/>
		<path d="M84.5,125.3c-0.1-0.1-0.1-0.1-0.2-0.2C84.4,125.3,84.4,125.4,84.5,125.3z"/>
		<path d="M83.8,123.7c0,0-0.2-0.7-0.2-0.7c-0.1,0,0.1,0.9,0.1,1c0-0.4,0.3,0.6,0.7,1.1C84.1,124.6,83.9,124.2,83.8,123.7
			C83.7,123.5,83.8,123.9,83.8,123.7z"/>
		<path d="M135.2,101.7c0.2,0.2,0.4,0.5,0.6,0.9c0.4,0.7,0.8,1.4,0.8,1.4c0-0.3-0.2-0.7-0.4-1c-0.1-0.1-0.2-0.3-0.4-0.5
			c-0.1-0.1-1-1.2-1-1.2c0,0,0,0.1,0,0.1C134.9,101.4,135,101.5,135.2,101.7C135.4,102,135,101.5,135.2,101.7z"/>
		<path d="M137.6,113.7c0,0.2,0,0.3,0,0.3c0.3-1.6,0.2-2,0.2-2.5c0-0.5,0-0.9-0.1-2.5c0,1,0,2-0.2,3
			C137.6,112.6,137.6,113.1,137.6,113.7C137.6,113.9,137.6,113.5,137.6,113.7z"/>
		<path d="M136.3,117.2l0.1-0.7C136.3,117.1,136.3,117.3,136.3,117.2z"/>
		<path d="M136.3,118.5c0.1,0,0.5-1.7,0.5-1.9c0.1-0.6,0.4-1.3,0.4-1.9c0,0.4-0.3,1-0.4,1.4c-0.1,0-0.4,0.9-0.5,1
			c-0.1,0.5-0.2,1-0.3,1.4c0.1-0.3,0.3-1,0.4-1.3C136.4,117.5,136.3,118.5,136.3,118.5z"/>
		<path d="M135.2,120.4c0.1-0.1,0.1-0.2,0.2-0.2C135.4,120.2,135.3,120.3,135.2,120.4z"/>
		<path d="M103.8,141.7c-0.6,0-1.2-0.1-1.2-0.1s1.8,0.2,1.8,0.2l0.6-0.1C104.6,141.7,104.2,141.7,103.8,141.7
			C103.2,141.6,104.1,141.7,103.8,141.7z"/>
		<path d="M92.1,136.8C92.2,136.8,92.2,136.8,92.1,136.8C92.1,136.7,92.1,136.7,92.1,136.8z"/>
		<path d="M88.9,155.1c0,0.3,0.1,0.6,0.1,1C89,155.7,88.9,155.3,88.9,155.1z"/>
		<path d="M92.3,137.3c0,0,0.2,0,0.2,0l-0.6-0.5L92.3,137.3z"/>
		<path d="M89.2,158c0,0,0-0.2,0-0.3c0-0.2,0-0.4,0-0.4c0-0.6-0.1-0.8-0.1-0.2c0,0,0,0.2,0.1,0.5C89.2,157.8,89.2,158,89.2,158z"/>
		<path d="M89.3,162.4c-0.1-0.8-0.1-1.6-0.2-2.4l-0.1,1.5L89.3,162.4z"/>
		<path d="M81.5,158c0.6,1.9,1.7,4.2,2.5,5.8C83.3,161.8,82.3,160,81.5,158z"/>
		<path d="M83.5,158.3c0.1,0.5,0.2,1.3,0.2,0.1l0.5,2.1C84.2,157.4,83.7,158.2,83.5,158.3C83.6,158.9,83.7,158.2,83.5,158.3z"/>
		<path d="M85.4,140.6c0.1-0.8,0.1-1.2-0.1-1c-0.2,1-0.3,2-0.5,3l0.3-1.5c0,0.8,0,1.4-0.1,2.5C85.2,142.5,85.3,141.4,85.4,140.6
			C85.5,139.9,85.3,141.4,85.4,140.6z"/>
		<path d="M84.7,146.3c0-0.3,0.1-0.7,0.1-1.1C84.7,145.5,84.6,145.7,84.7,146.3z"/>
		<path d="M85,144c0-0.2,0-0.3,0-0.4c-0.1,0.5-0.1,1.1-0.2,1.6C84.9,145,85,144.6,85,144C85,143.8,85,144.6,85,144z"/>
		<path d="M86,137.4c0.4-1.5,0.8-3.1,1.3-4.6c0,0,0,0,0-0.1c0,0,0,0,0,0l0,0c-0.2,0.5-0.4,1-0.5,1.4c0.1,0.4-0.2,1.1-0.4,1.4
			C86.2,136.2,86,136.9,86,137.4z"/>
		<path d="M83.2,106c0.3-1.6,0.7-3,1.1-3.9c-0.1,0.2,0-0.3,0-0.7c0.1-0.4,0-0.5-0.6,1.4c-0.3,1.4-0.6,2.8-0.8,4.2
			c-0.3,1.7-0.5,3.5-0.6,4.8l0.3-0.5C82.8,109.6,82.9,107.7,83.2,106C83.5,104.4,82.9,107.7,83.2,106z"/>
		<path d="M84.4,102.1c0,0,0.1-0.1,0.1-0.3C84.5,101.9,84.4,102,84.4,102.1z"/>
		<path d="M86,99.2c0.1-0.2,1-1.7,0.8-1.9c0,0-0.1,0.1-0.1,0.1c-0.1,0.5-0.3,0.8-0.5,1.1c-0.1,0.1-0.8,1.4-0.7,1.4
			C85.6,100,85.9,99.3,86,99.2C86.3,98.7,85.8,99.6,86,99.2z"/>
		<path d="M87.6,109.3c0,0,0-0.2,0.1-0.4c0-0.2,0.1-0.4,0.1-0.4l-0.2-1C87.6,108.1,87.6,108.7,87.6,109.3z"/>
		<path d="M89.9,125.2c0,0.1,0,0.3,0,0.3s0.2,0.2,0.3,0.3c0.1,0.1,0.1,0.1,0.2,0.1c0,0,0,0,0,0c0,0,0,0,0,0c-0.2-0.3-0.3-0.7-0.5-1
			c0,0,0,0.1,0,0.1C89.9,125.1,89.9,125.1,89.9,125.2C89.9,125.3,89.9,125.1,89.9,125.2z"/>
		<path d="M90.8,125.4c-0.1,0.2-0.1,0.4-0.2,0.7c0,0,0.2-0.4,0.3-0.7c0.3-0.6,0.6-1.2,0.6-1.2l-0.5,0.9
			C90.9,125.1,90.8,125.2,90.8,125.4C90.7,125.4,90.8,125.3,90.8,125.4z"/>
		<path d="M93.2,120.8c-0.3,0.6-0.6,1.2-0.6,1.2c0.5-1,1.1-2,1.6-3.1c-0.2,0.3-0.3,0.5-0.5,0.7C93.8,119.7,93.5,120.2,93.2,120.8
			C92.9,121.4,93.5,120.2,93.2,120.8z"/>
	</g>
	<g>
		<g>
			<path d="M30.1,103.3c0-0.2,0-0.3,0-0.4c-0.1,0-0.2,0-0.3-0.1c0-0.3-0.1-0.5-0.1-0.8c0.1-0.7,0.2-1.4,0.3-2.1
				c0.2-1.4,0.5-2.8,0.7-4.2c0.2-1.5,0.3-3,0.4-4.4c0-0.3,0.3-0.6,0.3-0.9l0.1-4c0-0.1-0.1-0.1-0.1-0.2l-0.2,0.1
				c-0.1-1.7-0.4-3.4-0.8-5c-0.5-1.6-1.4-3-2.1-4.5c1.1,0.6,1.8,1.5,2.2,2.7c0.4,1,0.6,2.1,0.8,3.1c0.1,0.3,0.1,0.7,0.1,1
				c0,0.1,0,0.2,0,0.3c0.3,1,0.4,2,0.5,3c0.1,0.7,0.1,1.5,0.3,2.2c0-1.3,0.1-2.6-0.1-3.9c-0.2-1.1-0.3-2.2-0.5-3.3
				c-0.2-0.7-0.5-1.4-0.7-2.2c-0.2-0.7-0.5-1.3-0.9-2c-0.3-0.5-0.7-1-1.2-1.5c0.1,0.2,0.2,0.5,0.3,0.7c-0.8-1.5-2.1-2.6-3.6-3.3
				C24.7,73.3,23.9,73,23,73c0.7,0.3,1.5,0.6,2.1,0.9c0.7,0.4,1.3,0.9,1.9,1.4c-0.4-0.2-0.9-0.5-1.4-0.7c-0.5-0.2-1-0.4-1.5-0.6
				c-0.5-0.2-1-0.3-1.6-0.5c-0.1,0.2-0.1,0.4-0.1,0.5c-0.3,2.1-0.6,4.2-0.7,6.4c0,0.7-0.1,1.4-0.2,2.1c-0.1,0.4-0.2,0.5-0.7,0.5
				l-0.4-0.5c-0.1,0.1-0.2,0.2-0.3,0.3c0,0-0.1,0-0.1,0c0,0,0,0,0,0c-0.3-1.7,0.1-3.4,0.2-5.1c0.1-1.2,0.3-2.5,0.4-3.7
				c0-0.2,0-0.4,0.1-0.6c-0.4,0-0.8,0-1.2,0c-1.5,0.1-2.9,0.1-4.3,0.3c-0.7,0.1-1.4,0.3-2,0.4c-1.4,0.3-2.8,0.5-4.2,0.8
				c-0.5,0.1-1,0.2-1.5,0.2c-0.3,0-0.6-0.1-1.1-0.1C6.6,74.4,6,74.3,6.1,74c0.1-0.3,0-0.6,0-1c0.4-0.2,0.8-0.5,1.2-0.6
				c1.5-0.6,2.9-1.1,4.4-1.6c1.9-0.7,3.8-1.3,5.7-1.9c1.4-0.5,2.7-0.9,4.2-1.4c0-0.2,0.1-0.5,0.2-0.7c0.4-1.8,0.7-3.5,1.1-5.3
				c0.2-0.7,0.4-1.4,0.6-2.2c0.1-0.3,0.2-0.5,0.3-0.7c0.4,0.1,0.8,0.2,1.1,0.3c0.1,0.2,0.2,0.3,0.4,0.6c0,0.1,0,0.3-0.1,0.5
				c-0.7,1.5-0.9,3.2-1.3,4.8c-0.1,0.7-0.3,1.3-0.4,2.1c0.2,0,0.3,0,0.4,0c0.6-0.2,1.1-0.3,1.7-0.6c1.3-0.5,2.5-1,3.7-1.6
				c0.2-0.1,0.5-0.3,0.7,0c0,0.1,0.2,0,0.3,0c1.1-0.4,2.3-0.6,3.3-1.1c0.8-0.4,1.6-0.7,2.5-1c0.2-0.1,0.3-0.1,0.5-0.2
				c0.1-0.6,0.2-1.2,0.3-1.7c0.1-0.6,0.3-1.2,0.5-1.8c0.2-0.5,0.4-1,0.2-1.5c-0.1-0.2,0-0.5,0.1-0.7c0.4-2.7,0.9-5.5,1.3-8.2
				c0.1-0.7,0.2-1.4,0.3-2.2c0.1-0.6,0.2-1.3,0.1-1.9c-0.1-1,0.3-1.9,0.5-2.9l1.2,0.3c0.2,1.3,0,2.5,0.3,3.8c0,0-0.1,0.1-0.3,0.2
				l-0.3,2.5c-0.3-1.1-0.2-2.1,0-3.3c-0.6,0.3-0.5,0.8-0.5,1.2c-0.2,0.7-0.5,1.4-0.4,2.2c0.1,0.6-0.1,1.2-0.2,1.8c0,0.4,0,0.8,0,1.2
				c0,0.1,0.1,0.2,0.1,0.3c0.1-0.2,0.1-0.4,0.2-0.7c0,3.6-0.8,6.9-1.3,10.4c0.9-0.3,1.6-0.5,2.4-0.8l4.8-1.6c1.6-0.5,3.1-1,4.7-1.5
				c0.3-0.1,0.6-0.2,0.8-0.2c0.8-0.1,1.5-0.3,2.2-0.5c0.4-0.1,0.7-0.5,1.1-0.6c0.7-0.1,1.4-0.5,2.1-0.7c2.6-0.7,5.3-1.5,8-2
				c0.5-0.1,1-0.1,1.5-0.1c0.3,0,0.6,0,0.8,0.2c0.1,0.1,0.3,0.1,0.4,0.1c0.5-0.1,0.8,0.3,1.2,0.6c0.1,0.1,0.1,0.2,0.1,0.3
				c0,0.4,0.1,0.8-0.1,1.2c-0.2-0.2-0.3-0.3-0.4-0.4l-1.1,0.4c-0.3-1-1.1-0.6-1.6-0.6c-0.5,0.1-1.1,0.2-1.6,0.4l-1.8,0.4l-3.7,1
				c-0.7,0.2-1.5,0.4-2.2,0.7c-0.8,0.3-1.7,0.6-2.4,0.9c-1.1,0.6-2.3,0.9-3.5,1.3c-3.4,1.2-6.7,2.3-10.1,3.4c-0.5,0.2-1,0.2-1.5,0.4
				l-0.5,0.2c-0.1,0.5-0.3,1.1-0.4,1.6c-0.4,0-0.3,0.3-0.4,0.5c0.1,0,0.2,0.1,0.2,0.1c-0.1,0.9-0.2,1.8-0.4,2.8
				c-1,6.2-2,12.4-3,18.6c-0.1,0.9-0.4,1.8-0.6,2.8c0-0.7,0.1-1.3,0.1-2c0,0-0.1,0-0.1,0c-0.1,0.8-0.3,1.6-0.4,2.5
				c-0.1,0.6,0,1.2,0,1.9c0,1.6-0.2,3.1-0.4,4.7c-0.2,1.2-0.4,2.4-0.9,3.5c-0.2,0.5-0.3,0.9-0.3,1.5c0,0.4-0.2,0.8-0.5,1.2
				L30.1,103.3z M19.6,72.3c-0.2,0-0.3,0-0.4,0c0.3-0.1,0.6-0.1,0.8-0.1c0.3,0,0.6,0.2,0.9-0.1c-1.6-0.1-3.2,0-4.7,0.2
				c-0.8,0.1-1.5,0.1-2.2,0.3c-0.6,0.1-1.1,0.2-1.6,0.4l0,0.2c0.2,0,0.4-0.1,0.6-0.1c1-0.1,2-0.2,3-0.4c0.9-0.1,1.8-0.2,2.7-0.1
				l0.7,0.1C19.4,72.5,19.5,72.4,19.6,72.3z M15.4,70.9c0.8-0.3,1.6-0.6,2.5-0.8c0.9-0.2,1.8-0.4,2.7-0.6c0.3-0.1,0.6-0.2,0.8-0.3
				l0.1-0.5c-0.1,0-0.2,0-0.2,0c-0.6,0.2-1.1,0.4-1.7,0.7c-0.9,0.3-1.8,0.6-2.7,0.9c-0.9,0.3-1.8,0.5-2.7,0.8
				c-0.4,0.1-0.7,0.3-1,0.6c0.3,0,0.5,0,0.8-0.1C14.4,71.2,14.9,71.1,15.4,70.9z M21.1,69.8c-0.5,0-0.9,0.2-1.3,0.4
				c-0.5,0.2-0.9,0.4-1.4,0.6c-1,0.4-2,0.7-3.1,1.1c1.1-0.1,2-0.1,2.9-0.2c0.9,0,1.8,0,2.7,0C21.2,70.8,21.2,70.3,21.1,69.8z
				 M21.7,73.5c-0.2,0.3-0.2,0.3-0.1,0.6C21.7,73.9,21.7,73.7,21.7,73.5z M22.2,70l-0.2,0c-0.1,0.5-0.2,1-0.3,1.6
				c0,0,0.1,0.1,0.2,0.2C22.1,71.1,22.2,70.6,22.2,70z M33.5,83.9c0-0.7,0-1.5,0-2.2c0.1-0.8,0.2-1.5,0.4-2.3
				c0.1-0.6,0.3-1.3,0.3-1.9c0.1-0.7,0.4-1.3,0.3-2c0-0.1,0.1-0.2,0.1-0.2c0.1-0.2,0.1-0.5,0.1-0.7c0.1-0.6,0.2-1.2,0.3-1.8
				c0.1-0.9,0.2-1.8,0.3-2.7c0-0.4,0-0.9,0.1-1.2c0.2-1.4,0.5-2.8,0.7-4.3c-0.2,0-0.4,0-0.5,0c-0.6,0.2-1.1,0.4-1.7,0.6
				c-1.1,0.5-2.2,1-3.3,1.2c-0.6,0.1-1.1,0.3-1.7,0.5c-0.5,0.2-0.9,0.4-1.4,0.6c-0.8,0.3-1.6,0.6-2.4,0.9c-0.7,0.3-1.4,0.5-2.1,0.7
				L22.7,72c0.3,0.1,0.5,0.2,0.7,0.2c0.8,0.1,1.6,0.3,2.3,0.7c0.4,0.2,0.8,0.5,1.1,0.8c0.5,0.4,1,0.8,1.5,1.1
				c0.3,0.2,0.6,0.3,0.9,0.6c0.5,0.5,0.9,1.1,1.3,1.7c0.8,1.2,1.4,2.5,1.7,3.9c0.3,1.2,0.6,2.4,0.8,3.6c0.1,0.7,0.1,1.4,0.1,2
				c0-0.1-0.1-0.2-0.1-0.3c0,0.3,0.1,0.6,0.2,0.9c0.1,0.3,0,0.6,0,0.9C33.4,86.6,33.5,85.2,33.5,83.9z M36.6,71c0-0.3,0-0.7,0.1-1
				c0.1-0.3,0.3-0.6,0.1-0.9c0,0.3-0.1,0.6-0.1,0.9c-0.3,0.8-0.4,1.7-0.5,2.6l0,0.7C36.4,72.5,36.5,71.8,36.6,71z"/>
			<path d="M30,103.9c-0.1,0-0.2,0-0.3-0.1c-0.1-0.1-0.2-0.2-0.2-0.4c0,0,0,0,0-0.1c-0.2-0.1-0.3-0.2-0.3-0.4c0-0.1,0-0.2,0-0.2
				c0-0.2-0.1-0.4-0.1-0.7c0.1-0.6,0.2-1.3,0.3-1.9l0.1-0.3c0.1-0.5,0.2-0.9,0.3-1.4c0.2-0.9,0.3-1.8,0.5-2.7
				c0.2-1.3,0.3-2.7,0.4-4.4c0-0.3,0.1-0.5,0.2-0.7c0-0.1,0.1-0.2,0.1-0.2l0.1-3.6c-0.2-0.1-0.3-0.3-0.3-0.5
				c-0.2-1.8-0.4-3.4-0.8-4.9c-0.3-1.1-0.8-2.1-1.4-3.1c-0.2-0.4-0.5-0.9-0.7-1.3c-0.1-0.2-0.1-0.5,0.1-0.7c0,0,0,0,0,0
				c-0.1-0.2-0.3-0.4-0.5-0.5c-0.2,0.2-0.5,0.2-0.7,0.1l-0.4-0.2c-0.3-0.2-0.6-0.3-0.9-0.5c-0.5-0.2-1-0.4-1.5-0.6
				c-0.3-0.1-0.6-0.2-1-0.3c-0.3,2-0.6,4.1-0.7,6.2c0,0.7-0.1,1.4-0.2,2.2c-0.1,0.8-0.6,1-1.2,1c-0.2,0-0.4,0-0.5-0.2l0,0
				c0,0-0.1,0-0.1,0.1c-0.3,0.1-0.8-0.2-0.8-0.5c0,0,0-0.1,0-0.1c-0.2-1.3,0-2.5,0.1-3.7c0-0.5,0.1-0.9,0.1-1.4
				c0.1-0.9,0.2-1.7,0.3-2.6c0.1-0.4,0.1-0.8,0.2-1.2c0,0,0,0,0,0l0,0c-0.2,0-0.3,0-0.5,0c-1.4,0.1-2.9,0.1-4.3,0.3
				c-0.4,0-0.8,0.1-1.2,0.2c-0.3,0.1-0.5,0.1-0.8,0.2c-1.3,0.3-2.5,0.5-3.8,0.7L9,75.4c-0.5,0.1-1,0.2-1.6,0.2c-0.3,0-0.5,0-0.8-0.1
				l-0.4-0.1c-0.2,0-0.4-0.1-0.5-0.3c-0.1-0.1-0.1-0.3,0-0.5c-0.1-0.2-0.3-0.5-0.2-0.9c0-0.1,0-0.3,0-0.4c0-0.1,0-0.3,0-0.4
				c0-0.2,0.1-0.4,0.3-0.5l0.3-0.1c0.3-0.2,0.7-0.4,1.1-0.5c1-0.4,2-0.7,3-1.1l1.4-0.5c1-0.3,2-0.7,3-1l2.7-0.9
				c1.2-0.4,2.4-0.8,3.6-1.3l0.2-0.1l0.4-2.1c0.2-1.2,0.5-2.4,0.7-3.5c0.1-0.6,0.3-1.2,0.5-1.8l0.1-0.4c0.1-0.2,0.2-0.4,0.3-0.6
				l0.1-0.2c0.1-0.2,0.4-0.4,0.7-0.3c0.4,0.1,0.7,0.2,1,0.3l0.2,0.1c0.1,0,0.2,0.1,0.3,0.2c0.1,0.2,0.3,0.4,0.4,0.6
				c0.1,0.1,0.1,0.2,0.1,0.4c0,0.2,0,0.5-0.1,0.7c-0.5,1.2-0.8,2.4-1,3.7c-0.1,0.3-0.1,0.7-0.2,1c-0.1,0.4-0.2,0.8-0.2,1.2
				c0.4-0.1,0.8-0.2,1.1-0.4c0.9-0.4,1.7-0.7,2.5-1.1l1.2-0.5c0.3-0.2,0.8-0.3,1.1,0l0.7-0.2c0.9-0.3,1.7-0.5,2.4-0.9
				c0.5-0.3,1.1-0.5,1.7-0.7c0.3-0.1,0.6-0.2,0.8-0.3c0.1,0,0.1,0,0.2-0.1l0-0.3c0.1-0.4,0.1-0.8,0.2-1.2c0.1-0.6,0.3-1.3,0.5-1.9
				l0.1-0.3c0.1-0.4,0.2-0.6,0.1-0.8c-0.1-0.3,0-0.6,0-0.9l0-0.2l0.5-3.1c0.3-1.7,0.5-3.4,0.8-5.1c0.1-0.7,0.2-1.4,0.3-2.1
				c0.1-0.6,0.2-1.2,0.1-1.8c0-0.8,0.1-1.6,0.3-2.3c0.1-0.3,0.1-0.5,0.2-0.8c0-0.2,0.1-0.3,0.3-0.4c0.1-0.1,0.3-0.1,0.5-0.1l1.2,0.3
				c0.2,0.1,0.4,0.3,0.4,0.5c0.1,0.6,0.1,1.1,0.1,1.6c0,0.7,0,1.4,0.2,2.1c0.1,0.2,0,0.5-0.2,0.6c0,0-0.1,0.1-0.1,0.1L41.4,48
				c0,0.3-0.3,0.5-0.6,0.5c-0.1,0-0.2,0-0.3-0.1c0,0.3-0.1,0.7-0.1,1c0,0.2-0.1,0.3-0.1,0.5c0,0,0,0.1,0,0.1
				c0.2,0.1,0.3,0.3,0.3,0.5c0,2.8-0.5,5.5-0.9,8.1c-0.1,0.5-0.2,0.9-0.2,1.4c0.5-0.2,1-0.3,1.5-0.5l4.8-1.6
				c0.8-0.2,1.5-0.5,2.2-0.7c0.8-0.3,1.6-0.5,2.4-0.8c0.3-0.1,0.6-0.2,1-0.2c0.5,0,0.9-0.2,1.4-0.3c0.2-0.1,0.5-0.1,0.7-0.2
				c0.1,0,0.2-0.1,0.3-0.2c0.2-0.1,0.4-0.3,0.8-0.4c0.4-0.1,0.8-0.2,1.1-0.3c0.3-0.1,0.6-0.2,1-0.3l0.7-0.2c2.4-0.7,4.9-1.4,7.4-1.9
				c0.6-0.1,1.1-0.1,1.6-0.1c0.4,0,0.9,0,1.2,0.3c0.1,0,0.1,0,0.2,0c0.6,0,1,0.4,1.2,0.7l0.1,0.1c0.2,0.1,0.3,0.4,0.3,0.7
				c0,0.5,0,0.9-0.1,1.4c-0.1,0.2-0.2,0.3-0.4,0.4c-0.2,0-0.4,0-0.5-0.1c-0.1-0.1-0.1-0.1-0.2-0.2L67.5,56c-0.2,0.1-0.3,0-0.5,0
				c-0.1-0.1-0.3-0.2-0.3-0.4c-0.1-0.2-0.1-0.2-0.2-0.2c-0.1,0-0.3,0-0.4,0c-0.1,0-0.3,0-0.4,0c-0.3,0-0.7,0.1-1,0.2
				c-0.2,0-0.3,0.1-0.5,0.1l-1.8,0.4l-3.7,1c-0.2,0.1-0.4,0.1-0.7,0.2c-0.5,0.1-1,0.3-1.4,0.5c-0.3,0.1-0.7,0.3-1,0.4
				c-0.5,0.2-1,0.3-1.4,0.6c-1,0.5-2,0.8-3,1.1l-0.6,0.2c-2.4,0.8-4.7,1.6-7.1,2.4l-3,1c-0.3,0.1-0.6,0.2-0.9,0.2
				c-0.2,0-0.4,0.1-0.6,0.2l-0.1,0c-0.1,0.3-0.1,0.5-0.2,0.8l-0.1,0.5c0,0.1-0.1,0.2-0.2,0.3c0,0.1,0.1,0.2,0.1,0.3l-0.1,0.9
				c-0.1,0.6-0.2,1.2-0.3,1.9c-1,6.2-2,12.4-3,18.6c-0.1,0.9-0.4,1.8-0.6,2.8c-0.1,0.2-0.2,0.4-0.5,0.4c0,0.4,0,0.7,0,1.1
				c0,0.2,0,0.4,0,0.6c0,1.7-0.2,3.2-0.5,4.8l-0.1,0.4c-0.2,1.1-0.4,2.2-0.8,3.2c-0.2,0.4-0.3,0.8-0.3,1.2c0,0.7-0.4,1.2-0.7,1.6
				c-0.1,0.1-0.2,0.2-0.4,0.2l-1.2,0.2C30.1,103.9,30.1,103.9,30,103.9z M30.3,102.3c0.1,0.1,0.2,0.2,0.3,0.3l0.3-0.1
				c0.2-0.2,0.3-0.4,0.2-0.6c0-0.6,0.2-1.2,0.3-1.7c0.4-1,0.6-2,0.8-3l0.1-0.4c0.3-1.5,0.4-3,0.4-4.6c0-0.2,0-0.4,0-0.6
				c0-0.4,0-0.9,0-1.3c0.1-0.5,0.2-1.1,0.3-1.6c0-0.1,0-0.1,0-0.2c0,0-0.1,0-0.1,0c-0.1,0-0.2,0-0.2-0.1c0,0.2,0,0.4,0,0.6
				c0,0.3-0.2,0.6-0.5,0.6c-0.1,0-0.1,0-0.2,0l0,0.8c0,0.3-0.1,0.5-0.2,0.7c-0.1,0.1-0.1,0.2-0.1,0.3c-0.1,1.7-0.3,3.1-0.4,4.5
				c-0.1,0.9-0.3,1.9-0.5,2.8c-0.1,0.5-0.2,0.9-0.3,1.4l-0.1,0.3c-0.1,0.6-0.2,1.2-0.3,1.8C30.3,102.1,30.3,102.2,30.3,102.3z
				 M35.2,75.5c0,0.5-0.1,1-0.2,1.3c-0.1,0.2-0.1,0.4-0.1,0.7c0,0.4-0.1,0.9-0.2,1.3c0,0.2-0.1,0.4-0.1,0.6c0,0.2-0.1,0.5-0.1,0.8
				c-0.1,0.5-0.2,1-0.2,1.5c-0.1,0.6-0.1,1.1,0,1.6l0,0.5c0,1.3-0.1,2.4-0.3,3.5c0,0,0,0,0,0c0-0.1,0-0.2,0-0.3
				c0.7-4.4,1.4-8.8,2.1-13.3c-0.2,0-0.4-0.2-0.4-0.4c-0.1,0.3-0.1,0.6-0.2,0.9l0,0.2c0,0.3-0.1,0.5-0.2,0.8
				C35.3,75.4,35.2,75.4,35.2,75.5z M20.5,82c0.1,0,0.2,0.1,0.3,0.2l0.1,0.1c0.1-0.7,0.2-1.3,0.2-1.9c0.1-2,0.3-3.9,0.6-5.7
				c0,0-0.1,0-0.1,0c-0.2,0-0.4-0.1-0.5-0.3c0,0.3-0.1,0.5-0.1,0.8c-0.1,0.8-0.2,1.7-0.3,2.5c0,0.5-0.1,1-0.1,1.5
				C20.5,80.2,20.4,81.1,20.5,82z M23.4,71.6c1,0.1,1.9,0.4,2.6,0.7c0.3,0.2,0.6,0.4,0.9,0.6l0.3,0.2c0.2,0.1,0.4,0.3,0.6,0.4
				c0.3,0.2,0.6,0.5,0.8,0.6c0.4,0.2,0.7,0.4,1,0.7c0.5,0.5,1,1.1,1.4,1.8c0.8,1.2,1.4,2.6,1.8,4.1c0.1,0.2,0.1,0.5,0.2,0.7
				c0.1-0.5,0.1-0.9,0.2-1.4c0-0.2,0.1-0.5,0.1-0.7c0-0.2,0.1-0.5,0.1-0.7c0.1-0.4,0.2-0.8,0.2-1.2c0-0.3,0.1-0.6,0.2-0.8
				c0.1-0.4,0.2-0.7,0.1-1c0-0.1,0-0.4,0.1-0.5c0.1-0.2,0.1-0.4,0.1-0.6l0-0.3c0.1-0.5,0.2-1,0.3-1.5c0.1-0.7,0.2-1.3,0.3-2l0.1-0.7
				c0-0.2,0-0.4,0-0.5c0-0.2,0-0.5,0.1-0.7c0.2-1.1,0.4-2.3,0.6-3.5c-0.5,0.2-0.9,0.3-1.2,0.5l-0.2,0.1c-1,0.4-2.1,0.9-3.3,1.1
				c-0.5,0.1-1,0.3-1.6,0.5c-0.3,0.1-0.5,0.2-0.8,0.4C28.3,67.9,28.1,68,28,68c-0.7,0.3-1.3,0.5-2,0.8L25.5,69
				c-0.4,0.1-0.8,0.3-1.2,0.4l-0.6,0.2L23.4,71.6z M6.9,74.3c0.1,0,0.3,0,0.4,0c0.5,0,1-0.1,1.5-0.2l0.5-0.1
				c0.9-0.2,1.9-0.3,2.9-0.5c-0.1-0.1-0.2-0.2-0.3-0.4l0-0.2c-0.1-0.3,0.1-0.6,0.4-0.7l0.3-0.1c0.2,0,0.3-0.1,0.5-0.1
				c-0.2,0-0.4-0.2-0.4-0.4c-0.1-0.2,0-0.5,0.1-0.6c0,0,0.1-0.1,0.1-0.1c-0.3,0.1-0.6,0.2-0.9,0.3l-1.4,0.5c-1,0.3-2,0.7-3,1.1
				C7.3,73,7,73.1,6.7,73.3c0,0.2,0.1,0.5,0,0.7C6.8,74.1,6.9,74.2,6.9,74.3z M20.8,72.8c0.1,0,0.2,0.1,0.3,0.2
				c0.1,0.1,0.1,0.2,0.2,0.2c0,0,0,0,0,0c0.2-0.2,0.5-0.3,0.7-0.2c0.1,0,0.1,0.1,0.2,0.1c0,0,0.1,0,0.1-0.1c0,0,0.1,0,0.1,0
				c0,0,0,0,0,0c0-0.1,0.1-0.3,0.2-0.3c-0.1-0.1-0.3-0.2-0.3-0.3c0,0-0.1,0-0.1,0.1c-0.2,0.1-0.5,0-0.6-0.2c0,0,0,0,0,0
				c0,0.1-0.1,0.2-0.1,0.3C21.2,72.6,21,72.7,20.8,72.8z M22.1,69.4c0,0,0.1,0,0.1,0l0.2,0c0.1,0,0.1,0,0.2,0.1l0.1-0.4
				c0-0.2,0.2-0.4,0.4-0.5l1-0.3c0.4-0.1,0.8-0.3,1.1-0.4l0.5-0.2c0.6-0.2,1.3-0.5,1.9-0.8c0.2-0.1,0.3-0.2,0.5-0.2
				c0.3-0.1,0.6-0.3,0.9-0.4c0.6-0.2,1.2-0.4,1.8-0.5c1-0.2,2-0.6,3-1.1l0.2-0.1c0.5-0.2,1.1-0.4,1.7-0.6c0.2-0.1,0.3-0.1,0.5-0.1
				c0.2-0.1,0.4,0.1,0.5,0.2c0.1,0.1,0.2,0.3,0.2,0.5c-0.3,1.5-0.5,2.9-0.7,4.3c0,0.2,0,0.4,0,0.6c0,0.1,0,0.2,0,0.3c0,0,0,0,0,0
				c0-0.1,0-0.4,0.1-0.6c0-0.3,0.2-0.5,0.5-0.6c0.1,0,0.2,0,0.3,0c0,0,0-0.1,0-0.1c0.1-0.6,0.2-1.2,0.3-1.8l0.1-0.6
				c-0.2-0.2-0.2-0.4-0.2-0.6c0-0.4,0.2-0.7,0.4-0.8l0-0.1c0.1-0.4,0.2-0.7,0.3-1.1c0-0.2,0.2-0.3,0.4-0.4l0.5-0.2
				c0.3-0.1,0.5-0.1,0.7-0.2c0.3-0.1,0.5-0.1,0.8-0.2l3-1c2.4-0.8,4.7-1.6,7.1-2.4l0.7-0.2c1-0.3,1.9-0.6,2.8-1.1
				c0.5-0.3,1.1-0.4,1.6-0.6c0.3-0.1,0.6-0.2,0.9-0.3c0.5-0.2,1.1-0.4,1.6-0.5c0.2-0.1,0.4-0.1,0.7-0.2l6.1-1.5
				c0.4-0.1,0.8-0.2,1.2-0.2c0.1,0,0.2,0,0.3,0c0.7-0.1,1.3,0,1.7,0.5l0.6-0.2c0,0,0.1,0,0.1,0c0,0,0,0,0,0c0,0,0,0,0-0.1l-0.1-0.1
				c-0.2-0.2-0.3-0.3-0.4-0.3c0,0-0.2,0-0.2,0c-0.2,0-0.5-0.1-0.7-0.3c-0.2,0-0.3,0-0.3,0c-0.5,0-1,0-1.4,0.1
				c-2.4,0.5-4.9,1.2-7.2,1.8l-0.7,0.2c-0.3,0.1-0.6,0.2-0.9,0.3c-0.4,0.2-0.9,0.3-1.3,0.4c-0.1,0-0.2,0.1-0.3,0.2
				c-0.2,0.1-0.4,0.3-0.8,0.4c-0.2,0.1-0.4,0.1-0.7,0.2c-0.5,0.1-1.1,0.3-1.6,0.3c-0.2,0-0.5,0.1-0.7,0.2c-0.8,0.3-1.6,0.5-2.4,0.8
				c-0.7,0.2-1.5,0.5-2.2,0.7l-4.8,1.6c-0.5,0.2-1,0.4-1.6,0.5L39,61.6c-0.2,0.1-0.4,0-0.6-0.1c-0.2-0.1-0.2-0.3-0.2-0.5
				c0.1-0.8,0.3-1.6,0.4-2.4c0.4-2.3,0.8-4.5,0.9-6.8c0,0-0.1-0.1-0.1-0.2c-0.1-0.2-0.1-0.3-0.2-0.4l0,0c-0.1,0.7-0.2,1.5-0.4,2.2
				l-0.5,3.1c0,0.1,0,0.2,0,0.2c0,0.1,0,0.2,0,0.2c0.2,0.6,0,1.2-0.1,1.6L38,58.8c-0.2,0.6-0.3,1.1-0.4,1.7
				c-0.1,0.4-0.1,0.8-0.2,1.2l-0.1,0.5c0,0.2-0.2,0.3-0.3,0.4c-0.3,0.1-0.4,0.2-0.5,0.2c-0.3,0.1-0.6,0.2-0.8,0.3
				c-0.5,0.2-1.1,0.4-1.6,0.7c-0.8,0.4-1.7,0.7-2.6,0.9l-0.8,0.2c-0.3,0.1-0.6,0.1-0.8-0.1c-0.1,0-0.1,0.1-0.1,0.1l-1.2,0.5
				c-0.8,0.4-1.7,0.7-2.5,1.1c-0.4,0.2-0.9,0.3-1.3,0.5l-0.4,0.1c-0.2,0-0.3,0-0.4,0.1c-0.2,0-0.4-0.1-0.6-0.2
				c-0.1-0.1-0.3-0.3-0.2-0.5c0.1-0.7,0.3-1.4,0.4-2.1c0.1-0.3,0.1-0.7,0.2-1c0.3-1.3,0.5-2.6,1.1-3.9c0,0,0-0.1,0-0.1
				c-0.1-0.1-0.1-0.1-0.1-0.2c-0.1,0-0.3-0.1-0.5-0.1c0,0.1-0.1,0.1-0.1,0.2L24,59.8c-0.2,0.6-0.3,1.1-0.5,1.7
				c-0.3,1.2-0.5,2.4-0.7,3.5l-0.5,2.4c0,0.2-0.2,0.4-0.4,0.4l-0.5,0.2c0,0,0.1,0,0.1,0c0.2,0,0.3,0.1,0.4,0.2
				c0.1,0.1,0.2,0.3,0.1,0.5L22,69.2c0,0.1,0,0.1-0.1,0.2C22,69.4,22,69.4,22.1,69.4z M40.4,41.9c0,0.1,0,0.1,0,0.2
				c-0.2,0.7-0.3,1.3-0.3,1.9c0,0.2,0,0.3,0,0.5c0.1-0.2,0.3-0.3,0.5-0.4c0,0,0.1,0,0.1-0.1c0-0.3,0-0.7,0-1c0-0.4,0-0.7,0-1.1
				L40.4,41.9z"/>
		</g>
		<g>
			<path d="M46.3,73.8c0-0.1,0.1-0.1,0.1-0.2c-0.5-0.2-0.9-0.7-1.5-0.7c-0.1,0-0.3-0.2-0.4-0.3c-0.2-0.1-0.4-0.3-0.6-0.5
				c-0.1-0.1-0.1-0.2-0.2-0.3c-0.1-0.2-0.1-0.4-0.2-0.6c-0.4,0.1-0.9,0.6-1.4,0.1c0-0.2-0.1-0.4-0.1-0.6c0.1-0.2,0.3-0.3,0.4-0.5
				l0,0c0.5-0.1,1-0.2,1.4-0.6c0.1-0.1,0.3-0.2,0.3-0.3c0.3-0.6,0.7-1.1,1.2-1.6c0.4-0.5,0.8-0.9,1-1.5c0.1-0.2,0.2-0.4,0.4-0.6
				c0.3-0.4,0.6-0.7,1-1.1c0.4-0.4,0.8-0.8,1.3-1.2c0.3-0.3,0.6-0.3,1-0.2c0.2,0.1,0.5,0.1,0.7,0.2c-0.1,0.1-0.4-0.1-0.2,0.3
				l0.2-0.3c0.7,0.2,1,0.6,0.8,1.3c-0.1,0.5-0.3,0.8-0.5,1.2c-0.7,1-1.6,1.9-2.5,2.8c-0.9,0.8-1.9,1.5-2.9,2.2
				c-0.1,0.1-0.2,0.1-0.3,0.2c0.3,1.2,1.1,1.6,2.9,1.3c-0.1,0-0.1-0.1-0.2-0.2c0.5-0.2,0.9-0.4,1.3-0.6c0.4-0.2,0.8-0.5,1.2-0.8
				c0.2,0.1,0.5,0.2,0.7,0.3c0.5,0.2,0.6,0.8,0.2,1.2c-0.7,0.7-1.6,1.2-2.6,1.4L48,73.8C47.4,74,46.8,73.8,46.3,73.8z M44.7,71.2
				c-0.2,0.1-0.1,0.3,0,0.4C44.7,71.5,44.7,71.4,44.7,71.2z M48.1,66.6L48,66.3c-0.7,0.7-1.3,1.4-1.8,2.2C47,68,47.8,67.1,48.1,66.6
				z"/>
			<path d="M47.3,74.5c-0.3,0-0.5,0-0.8-0.1l-0.3,0c-0.2,0-0.4-0.1-0.4-0.3c0-0.1-0.1-0.1-0.1-0.2c-0.1,0-0.1-0.1-0.2-0.1
				c-0.3-0.2-0.4-0.3-0.7-0.3c-0.3,0-0.5-0.2-0.6-0.3c-0.3-0.2-0.5-0.4-0.7-0.6c-0.2-0.2-0.3-0.3-0.3-0.5c0,0,0-0.1,0-0.1
				c-0.4,0.1-1,0.1-1.4-0.2c-0.1-0.1-0.2-0.3-0.2-0.4c0-0.1,0-0.2,0-0.3l0-0.3c0-0.2,0-0.3,0.1-0.5c0.1-0.1,0.2-0.3,0.4-0.4
				c0,0,0,0,0,0l0,0c0,0,0,0,0,0l0,0l0,0c0.1-0.1,0.3-0.3,0.5-0.2c0.4-0.1,0.7-0.2,0.9-0.4c0.1-0.1,0.2-0.2,0.2-0.2
				c0.3-0.6,0.8-1.2,1.3-1.7c0.3-0.4,0.7-0.8,0.9-1.3c0.1-0.3,0.2-0.5,0.4-0.8c0.3-0.4,0.7-0.8,1-1.1c0.4-0.4,0.9-0.8,1.3-1.2
				c0.4-0.4,1-0.5,1.5-0.3c0.1,0,0.3,0.1,0.4,0.1l0.2,0c0,0,0,0,0,0l0,0c0,0,0,0,0,0c1,0.3,1.5,1,1.3,2c-0.1,0.6-0.4,1.1-0.6,1.4
				c-0.8,1.1-1.7,2.1-2.6,2.9c-0.6,0.6-1.3,1.1-2,1.6c-0.3,0.2-0.6,0.4-0.9,0.6c0.2,0.5,0.7,0.6,1.5,0.6c0.1-0.1,0.1-0.1,0.2-0.2
				l0.4-0.2c0.3-0.1,0.6-0.2,0.8-0.4c0.2-0.1,0.4-0.3,0.7-0.4c0.2-0.1,0.4-0.3,0.6-0.4c0.2-0.1,0.3-0.1,0.5-0.1
				c0.2,0.1,0.5,0.2,0.8,0.3c0.4,0.2,0.7,0.6,0.8,1c0.1,0.4-0.1,0.8-0.4,1.1C51,73.5,50,74,48.9,74.2l-0.8,0.2
				C47.9,74.5,47.6,74.5,47.3,74.5z M46.9,73.3c0.3,0,0.7,0.1,1,0l0.8-0.2c0.9-0.2,1.6-0.6,2.3-1.2c0-0.1,0-0.2-0.1-0.2
				c-0.1-0.1-0.3-0.1-0.4-0.2c-0.1,0.1-0.2,0.1-0.3,0.2c-0.3,0.2-0.5,0.3-0.7,0.5c-0.2,0.1-0.5,0.3-0.8,0.4
				c-0.1,0.2-0.3,0.4-0.5,0.4C47.5,73,47,73.1,46.6,73c0,0,0,0,0,0C46.7,73,46.8,73.1,46.9,73.3z M43.5,70.6c0.2,0,0.5,0.2,0.5,0.4
				c0,0,0,0.1,0,0.1c0.1-0.2,0.2-0.3,0.3-0.4c0.1-0.1,0.2-0.1,0.3-0.1c0,0,0.1-0.1,0.1-0.1c0.1-0.1,0.2-0.1,0.3-0.2
				c0.4-0.3,0.7-0.5,1-0.7c0.6-0.5,1.3-0.9,1.9-1.5c0.8-0.8,1.7-1.6,2.4-2.7c0.3-0.4,0.4-0.7,0.4-1c0.1-0.3,0.1-0.4,0-0.5
				c-0.1,0.1-0.3,0.2-0.5,0.2c-0.2,0-0.4-0.2-0.5-0.4c0,0,0,0,0-0.1c-0.2,0-0.3,0-0.4,0.1c-0.4,0.4-0.9,0.8-1.3,1.2
				c-0.3,0.3-0.6,0.7-1,1.1c-0.1,0.1-0.2,0.3-0.3,0.4c0,0.1-0.1,0.2-0.1,0.2c0.3-0.3,0.5-0.6,0.8-0.9c0.1-0.1,0.3-0.2,0.5-0.1
				c0.2,0,0.3,0.2,0.4,0.3l0.1,0.3c0.1,0.2,0.1,0.4,0,0.6c-0.4,0.6-1.3,1.6-2.1,2.1c-0.2,0.2-0.5,0.1-0.7-0.1
				c-0.2-0.2-0.2-0.4-0.2-0.6c-0.4,0.4-0.7,0.9-1,1.3c-0.1,0.2-0.3,0.4-0.4,0.5C43.9,70.4,43.7,70.5,43.5,70.6
				C43.4,70.6,43.5,70.6,43.5,70.6z"/>
		</g>
		<g>
			<path d="M61.1,63.5c0.1,0.5-0.2,1.2-0.7,1.5c-0.1-0.1-0.3-0.2-0.4-0.4c0,0-0.1,0-0.1,0c-0.2,0-0.4,0.3-0.6,0.1
				c0,0-0.2,0.1-0.3,0.2c-0.3,0.2-0.6,0.4-0.8,0.7c-0.6,0.6-1.1,1.2-1.6,1.9l0,0c-0.1,0.3-0.2,0.7-0.4,1c-0.2,0.5-0.5,0.9-0.8,1.4
				c-0.2,0.3-0.3,0.7-0.4,1c-0.1,0.7-0.4,1.3-0.6,2l-0.9-0.3c-0.2-0.3-0.4-0.7-0.6-1.1c0.4-2.8,1.2-5.6,1.4-8.5l0.8,0.2
				c0,0.1,0,0.3,0.1,0.5c0.2,0,0.4,0,0.7,0c0,0.5,0,1,0,1.6c0.1-0.2,0.2-0.3,0.3-0.4c0.7-0.9,1.5-1.6,2.5-2.1
				c0.3-0.1,0.5-0.2,0.8-0.3c0.1,0,0.3,0,0.4,0.1c0.2,0.1,0.4,0.3,0.6,0.5c0.1,0,0.2,0,0.4,0C61,63.2,61.1,63.3,61.1,63.5z
				 M56.5,67.5c0-0.1-0.1-0.1-0.1-0.2c-0.5,0.5-0.8,1.1-1.2,1.7c-0.1,0.1,0,0.3,0,0.6c0.4-0.7,0.7-1.3,1-1.8
				C56.3,67.7,56.4,67.6,56.5,67.5z M59.8,62.9c-0.4-0.2-0.6,0-0.9,0.1c-0.9,0.4-1.7,1-2.4,1.9C57.7,64.1,58.7,63.5,59.8,62.9z"/>
			<path d="M54.3,73.5c0,0-0.1,0-0.1,0l-0.9-0.3c-0.2,0-0.3-0.1-0.4-0.3l-0.1-0.2c-0.1-0.3-0.3-0.6-0.4-0.9c0-0.1-0.1-0.2-0.1-0.3
				c0.2-1.2,0.4-2.4,0.6-3.5c0.3-1.6,0.6-3.3,0.7-4.9c0-0.2,0.1-0.3,0.2-0.4c0.1-0.1,0.3-0.1,0.5-0.1l0.8,0.2
				c0.2,0.1,0.4,0.2,0.4,0.4l0.2,0c0.1,0,0.3,0.1,0.4,0.2c0.1,0.1,0.2,0.2,0.2,0.4c0.6-0.6,1.3-1.1,2-1.4c0.3-0.1,0.6-0.3,0.9-0.3
				c0,0,0.2,0,0.2,0c0.2,0,0.5,0.1,0.7,0.3c0.1,0.1,0.2,0.2,0.3,0.3c0,0,0.1,0.1,0.1,0.1c0.1,0,0.1,0,0.1,0c0.4,0,0.8,0.2,0.9,0.8
				c0.2,0.8-0.2,1.7-1,2.2c-0.2,0.1-0.5,0.1-0.7-0.1l-0.1-0.1c0,0,0,0,0,0c-0.1,0.1-0.3,0.1-0.5,0.1c-0.3,0.2-0.5,0.4-0.8,0.6
				c-0.6,0.5-1.1,1.2-1.5,1.8L57,68c-0.1,0.3-0.2,0.6-0.4,0.9c-0.1,0.3-0.3,0.6-0.5,0.8c-0.1,0.2-0.2,0.3-0.3,0.5
				c-0.2,0.3-0.3,0.6-0.3,0.8c-0.1,0.5-0.3,1-0.4,1.5l-0.2,0.5C54.9,73.3,54.6,73.5,54.3,73.5z M53.9,72.1l0.1,0
				c0.1-0.5,0.3-0.9,0.4-1.4c0.1-0.3,0.2-0.6,0.3-0.9c0-0.1-0.1-0.2-0.1-0.3l0-0.2c0-0.2,0-0.4,0.1-0.7l0.1-0.2
				c0.3-0.6,0.6-1.1,1.2-1.6c0.1-0.1,0.2-0.2,0.4-0.2c0.4-0.5,0.8-1.1,1.4-1.5c0.3-0.3,0.6-0.5,0.9-0.7c0.4-0.3,0.6-0.3,0.8-0.2
				c0.1-0.1,0.2-0.1,0.4-0.2c0,0,0.1,0,0.1,0c0.2,0,0.4,0,0.5,0.1c0.1-0.1,0.1-0.3,0.1-0.4c0,0-0.1,0-0.1,0c-0.1,0-0.3,0-0.4-0.1
				c-0.1,0-0.1-0.1-0.2-0.1L59.2,64c-0.8,0.5-1.5,0.9-2.3,1.4c-0.1,0.1-0.3,0.1-0.4,0.1c0,0,0,0,0,0l-0.1,0.2
				c-0.2,0.2-0.4,0.3-0.7,0.2c-0.2-0.1-0.4-0.3-0.4-0.6c0-0.3,0-0.6,0-0.9c0,0-0.1,0-0.1,0c-0.1,0-0.2,0-0.3-0.1
				c-0.2,1.3-0.4,2.7-0.7,4c-0.2,1.1-0.4,2.2-0.6,3.3C53.6,71.7,53.7,71.9,53.9,72.1L53.9,72.1z"/>
		</g>
		<g>
			<path d="M65.3,69.4c0-0.1,0.1-0.1,0.1-0.2c-0.5-0.2-0.9-0.7-1.5-0.7c-0.1,0-0.3-0.2-0.4-0.3c-0.2-0.1-0.4-0.3-0.6-0.5
				c-0.1-0.1-0.1-0.2-0.2-0.3c-0.1-0.2-0.1-0.4-0.2-0.6c-0.4,0.1-0.9,0.6-1.4,0.1c0-0.2-0.1-0.4-0.1-0.6c0.1-0.2,0.3-0.3,0.4-0.5
				l0,0c0.5-0.1,1-0.2,1.4-0.6c0.1-0.1,0.3-0.2,0.3-0.3c0.3-0.6,0.7-1.1,1.2-1.6c0.4-0.5,0.8-0.9,1-1.5c0.1-0.2,0.2-0.4,0.4-0.6
				c0.3-0.4,0.6-0.7,1-1.1c0.4-0.4,0.8-0.8,1.3-1.2c0.3-0.3,0.6-0.3,1-0.2c0.2,0.1,0.5,0.1,0.7,0.2c-0.1,0.1-0.4-0.1-0.2,0.3
				l0.2-0.3c0.7,0.2,1,0.6,0.8,1.3c-0.1,0.5-0.3,0.8-0.5,1.2c-0.7,1-1.6,1.9-2.5,2.8c-0.9,0.8-1.9,1.5-2.9,2.2
				c-0.1,0.1-0.2,0.1-0.3,0.2c0.3,1.2,1.1,1.6,2.9,1.3c-0.1,0-0.1-0.1-0.2-0.2c0.5-0.2,0.9-0.4,1.3-0.6c0.4-0.2,0.8-0.5,1.2-0.8
				c0.2,0.1,0.5,0.2,0.7,0.3c0.5,0.2,0.6,0.8,0.2,1.2c-0.7,0.7-1.6,1.2-2.6,1.4L67,69.5C66.4,69.6,65.9,69.5,65.3,69.4z M63.7,66.8
				c-0.2,0.1-0.1,0.3,0,0.4C63.7,67.1,63.7,67,63.7,66.8z M67.1,62.2L67,62c-0.7,0.7-1.3,1.4-1.8,2.2C66,63.6,66.8,62.8,67.1,62.2z"
				/>
			<path d="M66.3,70.1c-0.3,0-0.5,0-0.8-0.1l-0.3,0c-0.2,0-0.3-0.1-0.4-0.3c0-0.1-0.1-0.1-0.1-0.2c-0.1,0-0.1-0.1-0.2-0.1
				C64.2,69.2,64,69,63.8,69c-0.3,0-0.5-0.2-0.6-0.3c-0.3-0.2-0.5-0.4-0.7-0.6c-0.2-0.2-0.3-0.3-0.3-0.5c0,0,0-0.1,0-0.1
				c-0.4,0.1-1,0.1-1.4-0.2c-0.1-0.1-0.2-0.2-0.2-0.4c0-0.1,0-0.1,0-0.2c0-0.1,0-0.2-0.1-0.4c0-0.2,0-0.3,0.1-0.5
				c0.2-0.2,0.3-0.3,0.4-0.4c0,0,0,0,0,0l0,0c0.1-0.2,0.4-0.3,0.5-0.2c0.4-0.1,0.7-0.2,0.9-0.4c0.1-0.1,0.2-0.2,0.2-0.2
				c0.3-0.6,0.8-1.2,1.3-1.7c0.3-0.4,0.7-0.8,0.9-1.3c0.1-0.3,0.2-0.5,0.5-0.8c0.3-0.4,0.7-0.8,1-1.1c0.4-0.4,0.9-0.8,1.3-1.2
				c0.4-0.4,1-0.5,1.5-0.3c0.1,0,0.3,0.1,0.4,0.1l0.2,0.1c0,0,0,0,0,0l0,0c0,0,0,0,0,0c1,0.3,1.5,1,1.3,2c-0.1,0.6-0.4,1.1-0.6,1.4
				c-0.8,1.1-1.7,2-2.6,2.9c-0.6,0.6-1.4,1.1-2,1.6c-0.3,0.2-0.6,0.4-0.8,0.6c0.2,0.5,0.7,0.6,1.5,0.6c0.1-0.1,0.1-0.1,0.2-0.2
				l0.4-0.2c0.3-0.1,0.6-0.2,0.8-0.4c0.2-0.1,0.5-0.3,0.7-0.4c0.2-0.1,0.4-0.2,0.5-0.4c0.1-0.1,0.3-0.1,0.5-0.1
				c0.2,0.1,0.5,0.2,0.8,0.3c0.4,0.2,0.7,0.6,0.8,1c0.1,0.4-0.1,0.8-0.4,1.1c-0.8,0.7-1.7,1.3-2.8,1.5L67.1,70
				C66.9,70.1,66.6,70.1,66.3,70.1z M65.9,68.9c0.3,0.1,0.7,0.1,0.9,0l0.8-0.2c0.9-0.2,1.6-0.6,2.3-1.2c0-0.1,0-0.2-0.1-0.2
				c-0.1-0.1-0.3-0.1-0.4-0.2c-0.1,0.1-0.2,0.1-0.3,0.2c-0.3,0.2-0.5,0.3-0.8,0.5c-0.2,0.1-0.5,0.3-0.8,0.4
				c-0.1,0.2-0.3,0.4-0.5,0.4c-0.6,0.1-1.1,0.1-1.6,0.1c0,0,0,0,0,0C65.7,68.7,65.8,68.8,65.9,68.9z M62.5,66.3
				c0.2,0,0.5,0.2,0.5,0.4c0,0,0,0.1,0,0.1c0.1-0.2,0.2-0.3,0.3-0.4c0.1-0.1,0.2-0.1,0.3-0.1c0,0,0.1-0.1,0.1-0.1
				c0.1,0,0.1-0.1,0.2-0.2c0.4-0.3,0.7-0.5,1-0.7c0.7-0.5,1.3-0.9,1.9-1.5c0.8-0.8,1.7-1.7,2.4-2.7c0.2-0.4,0.4-0.7,0.4-1
				c0.1-0.3,0.1-0.4,0-0.5c-0.1,0.2-0.3,0.2-0.5,0.2c-0.2,0-0.4-0.2-0.5-0.4c0,0,0,0,0-0.1c-0.2,0-0.3,0-0.4,0.1
				c-0.4,0.4-0.9,0.8-1.3,1.2c-0.3,0.3-0.6,0.7-1,1.1c-0.1,0.1-0.2,0.3-0.3,0.4c0,0.1-0.1,0.2-0.1,0.2c0.3-0.3,0.5-0.6,0.9-0.9
				c0.1-0.1,0.3-0.2,0.5-0.1c0.2,0,0.3,0.2,0.4,0.3l0.1,0.3c0.1,0.2,0.1,0.4,0,0.6c-0.4,0.6-1.3,1.6-2.1,2.1
				c-0.2,0.1-0.5,0.1-0.7-0.1c-0.2-0.2-0.2-0.4-0.2-0.6c-0.4,0.4-0.7,0.9-1,1.3c-0.1,0.2-0.3,0.4-0.4,0.5C63,66,62.7,66.2,62.5,66.3
				C62.4,66.3,62.5,66.3,62.5,66.3z"/>
		</g>
		<g>
			<path d="M125.1,6.8l-0.2,0.3c-0.3-0.1-0.4-0.2-0.7-0.4c-0.2,0.1-0.4,0.3-0.6,0.4l-0.7-0.3c-0.8,0.4-1.1,1.2-1.5,1.9l-0.8,1.3
				c-0.2,0.3-0.5,0.5-0.5,0.9l-0.2,0.3c-0.4,0.5-0.7,0.9-1.1,1.5c-0.3,0.6-0.6,1.2-0.9,1.8c-0.3,0.5-0.6,1-0.7,1.6
				c0.2-0.3,0.4-0.7,0.6-1c0.1-0.1,0.2-0.2,0.4-0.3c0,0.2-0.1,0.5-0.1,0.7c-1.3,3.9-2.9,7.8-4.4,11.6c-1.6,4.2-3.2,8.4-4.5,12.7
				c-0.8,2.7-1.5,5.4-2.2,8.1c-0.3,1.2-0.6,2.4-0.9,3.6l-0.3-0.3l-0.6,2.3l-1,4.2c-0.1,0.4-0.2,0.7,0,1.1c0.1,0.2,0,0.4,0,0.6
				c0,0.4-0.1,0.7,0,1.1c0.1-0.7,0.3-1.3,0.4-1.9c0.1,0,0.1,0,0.1,0c-0.1,0.5-0.1,0.9-0.2,1.4c-0.4,3.4-0.9,6.9-1.3,10.3
				c-0.1,0.5-0.2,1.1-0.3,1.6c-0.2,0.8-0.6,0.9-1.3,0.4c-0.1,0.1-0.2,0.1-0.2,0.2c-0.4-0.1-0.6-0.4-0.7-0.8c-0.4-2-0.9-3.9-1.3-5.9
				c-0.1-0.6-0.2-1.3-0.3-1.9l0.2,0.1c-0.2-0.9-0.4-1.7-0.6-2.6c-0.1-0.5-0.3-1-0.3-1.6c0-0.2-0.1-0.5-0.1-0.7
				c-0.2-0.7-0.5-1.5-0.3-2.3c-0.1,0-0.2,0-0.2,0c-0.5-2.6-1-5.1-1.5-7.8c-0.4,0.3-0.4,0.7-0.6,1l-0.2,0.5l-0.1-0.4
				c-0.1,0.4-0.2,0.7-0.3,1.1c-0.2,0.2-0.3,0.4-0.2,0.7l-0.1,0.4c0,0-0.2,0-0.2,0c-0.1,0.3-0.3,0.7-0.4,1.1c0.2-0.1,0.3-0.1,0.3-0.2
				L94,55.7l-1.4,5.7L92.4,62c-0.1,0-0.2,0-0.2-0.1c-0.1,0.2-0.1,0.3-0.2,0.5c0-0.1-0.1-0.1,0-0.2c0.3-1.2,0.6-2.5,0.9-3.8
				c0-0.2,0-0.3,0-0.5c-0.2,0.5-0.4,1.1-0.6,1.6C92,60,92,60.5,91.8,60.9c-0.3,0.7-0.1,1.4-0.2,2c0,0.8-0.1,1.5-0.1,2.3
				c0.1,0.1,0.1,0.2,0.1,0.4c-0.1,0.5-0.2,1.1-0.3,1.6c-0.3,1.4-0.6,2.7-0.9,4.1c-0.1,0.3-0.2,0.7-0.5,0.9c-0.1-0.1-0.3-0.2-0.4-0.3
				c-0.1,0.1-0.2,0.2-0.2,0.3c0,0-0.1,0-0.2-0.1c-0.7,0.1-1-0.4-1.2-1c-0.3-0.8-0.5-1.6-0.7-2.4c-1-4.2-2-8.4-3-12.6
				c-0.6-2.5-1.1-5-1.7-7.4c-0.2-0.8-0.2-1.6-0.2-2.5c0-0.2,0.2-0.5,0.3-0.7c0.9,0,1.5,0.5,2.2,0.9c0,0.1-0.1,0.2-0.1,0.3
				c0.1,0.1,0.2,0.2,0.3,0.4c0.1,0.4-0.2,0.7-0.9,0.6l0.2,0.8c0.9,3.7,1.7,7.4,2.6,11c0.3,1.5,0.5,3,0.9,4.4
				c0.4,1.5,0.8,2.9,1.2,4.3c0.1,0.2,0.2,0.3,0.3,0.5c0.3-1.5,0.6-3,0.9-4.4c0.9-4.6,2-9.1,3.5-13.5c0.1-0.4,0.3-0.8,0.7-1.2
				c0.3-0.3,0.4-0.8,0.6-1.2c0.1-0.4,0.2-0.7,0.4-1.1c0,0,0,0,0,0c0,0,0,0-0.1,0l-0.1,0c0,0,0-0.1,0-0.1c0.3-0.4,0.4-1,1-1.2
				c0.2,0.2,0.4,0.3,0.4,0.5c0.1,0.4,0.4,0.6,0.6,0.7c0.4,0.2,0.6,0.5,0.7,0.9c0.2,0.6,0.4,1.2,0.5,1.8c0.1,0.3,0,0.6,0.1,0.9
				c0.1,0.5,0.1,0.9,0.2,1.4c0.6,1.9,0.9,3.9,1.3,5.9c0.1,0.6,0.1,1.2,0.2,1.8c0.2,1.1,0.6,2.2,0.8,3.4c0.2,1,0.4,2,0.6,3
				c0,0.2,0.1,0.4,0.2,0.6c0.2-0.9,0.3-1.8,0.4-2.7c0.4-2.4,0.7-4.8,1.1-7.2c0.5-2.8,1.1-5.5,1.7-8.3c0.1-0.6,0.3-1.2,0.5-1.8
				c0.4-1.3,0.6-2.6,1-3.9c0.4-1.3,0.7-2.6,1.1-3.9c0.3-0.9,0.6-1.8,0.9-2.7c0-0.1,0.1-0.3,0.1-0.4c0.4-0.5,0.5-1.1,0.6-1.7
				c1-3.2,2.2-6.3,3.4-9.3c1-2.5,2-5,3.1-7.5c1.2-2.8,2.5-5.6,4-8.3c0.5-1,1.2-1.9,1.8-2.8c0.2-0.3,0.5-0.6,0.8-0.8
				c0.3-0.3,0.7-0.3,1.1-0.2c0.4,0.2,0.8,0.4,1.2,0.7l-0.2,0.6C124.6,6.5,124.8,6.6,125.1,6.8z M88.5,67.4c-0.2-0.7-0.4-1.3-0.6-2
				c-0.1-0.4-0.2-0.7-0.3-1.1c0,0.8,0.1,1.6,0.2,2.4c0.1,1.3,0.5,2.5,0.7,3.8c0,0.1,0.1,0.2,0.3,0.5c0.1-0.4,0.2-0.6,0.2-0.8
				C88.9,69.2,88.7,68.3,88.5,67.4z M89.3,71.2c-0.1,0.3-0.1,0.5-0.1,0.7C89.5,71.7,89.5,71.4,89.3,71.2z M90.6,64.9
				c-0.2,0.2-0.3,0.5-0.4,0.7l-0.7,3.5c-0.1,0.6,0,1,0.3,1.7c0.1-0.4,0.1-0.6,0.2-0.9c0-0.4,0-0.8,0.1-1.2c0.1-1.1,0.3-2.3,0.5-3.4
				C90.6,65.1,90.6,65,90.6,64.9z M93.8,55.2c-0.1,0.2-0.2,0.4-0.2,0.6c0.1,0,0.1,0,0.1,0C93.8,55.6,93.9,55.4,93.8,55.2z
				 M96.3,46.7l-0.4-0.3c-0.1,0.1-0.2,0.2-0.3,0.3C95.7,46.6,95.9,46.7,96.3,46.7z M108.9,37.1c-1.2,3.8-2.3,7.6-3.2,11.4
				c0-0.3,0-0.6,0.1-0.9c-0.5,1.1-0.7,2.3-0.7,3.6c0.1-0.2,0.1-0.2,0.2-0.3c0.2-0.6,0.4-1.1,0.6-1.7c0.2-0.4,0.4-0.8,0.6-1.3
				c0.3-1.2,0.6-2.3,0.9-3.5l0.1-0.4c0.1-0.4,0.2-0.7,0.3-1.1c0.1-0.2,0.1-0.5,0.1-0.7c0.4-1.2,0.8-2.4,0.9-3.7
				C109,38.1,109,37.6,108.9,37.1z M109.3,36c-0.1,0.3-0.1,0.5-0.2,0.7C109.2,36.5,109.4,36.3,109.3,36z M110.5,32.2l-0.6,1.8
				c0,0,0.1,0,0.1,0.1C110.4,33.4,110.6,32.7,110.5,32.2z"/>
			<path d="M89.3,72.9c0,0-0.1,0-0.1,0c0,0-0.1,0-0.1,0c0,0-0.1,0-0.1,0c-0.8,0-1.3-0.5-1.6-1.5c-0.2-0.8-0.5-1.6-0.7-2.4
				c-1-4.2-2-8.4-3-12.7c-0.3-1.2-0.6-2.5-0.9-3.7c-0.3-1.2-0.5-2.5-0.8-3.7c-0.2-0.8-0.2-1.5-0.2-2.2l0-0.4c0-0.3,0.1-0.5,0.2-0.7
				c0-0.1,0.1-0.1,0.1-0.2c0.1-0.3,0.3-0.4,0.6-0.4c0.9,0,1.5,0.4,2.1,0.7l0.3,0.2c0.3,0.1,0.4,0.5,0.3,0.7c0,0,0,0,0,0
				c0.1,0.1,0.2,0.2,0.2,0.3c0.1,0.3,0,0.7-0.2,0.9c-0.1,0.1-0.3,0.3-0.6,0.4l0,0.1c0.5,2,0.9,4,1.4,6.1l1.2,5
				c0.2,0.7,0.3,1.5,0.4,2.2c0.1,0.7,0.3,1.5,0.4,2.2c0.2,0.9,0.5,1.8,0.8,2.7c0.2-0.8,0.3-1.5,0.5-2.3c0.8-3.8,1.9-8.7,3.5-13.6
				c0.1-0.4,0.3-0.9,0.8-1.4c0.1-0.1,0.2-0.4,0.3-0.6c0-0.1,0.1-0.2,0.1-0.4c0.1-0.2,0.1-0.4,0.2-0.6c0,0-0.1-0.1-0.1-0.1
				c0-0.1,0-0.4,0.1-0.5c0.1-0.1,0.1-0.2,0.1-0.3c0.2-0.4,0.5-1,1.3-1.2c0.2-0.1,0.4,0,0.6,0.2c0,0,0.1,0.1,0.1,0.1
				c0.2,0.1,0.4,0.3,0.5,0.6c0,0.1,0,0.2,0.3,0.3c0.5,0.2,0.9,0.6,1,1.2c0.2,0.7,0.4,1.3,0.5,1.9c0.1,0.3,0.1,0.5,0.1,0.7
				c0,0.1,0,0.2,0,0.3c0,0.1,0,0.3,0,0.5c0,0.3,0,0.5,0.1,0.8c0.5,1.4,0.7,3,1,4.4c0.1,0.5,0.2,1,0.3,1.5c0.1,0.3,0.1,0.6,0.1,1
				c0,0.3,0,0.5,0.1,0.8c0.1,0.6,0.3,1.3,0.5,1.9c0.1,0.5,0.2,1,0.4,1.4c0.1,0.2,0.1,0.5,0.2,0.7c0.1-0.7,0.2-1.4,0.3-2.1
				c0.2-1.6,0.5-3.2,0.7-4.8c0.4-2.1,0.8-4.1,1.3-6.1l0.5-2.1c0.1-0.6,0.3-1.2,0.5-1.9c0.2-0.6,0.4-1.3,0.5-2
				c0.2-0.7,0.3-1.3,0.5-1.9c0.2-0.7,0.4-1.5,0.6-2.2c0.1-0.5,0.3-1.1,0.4-1.6c0.2-0.7,0.4-1.3,0.6-2l0.3-0.8
				c0.1-0.2,0.1-0.4,0.2-0.5c0.2-0.3,0.3-0.7,0.4-1.1l0.1-0.4c1-3.2,2.2-6.4,3.5-9.4l1-2.4c0.7-1.7,1.4-3.4,2.1-5.1
				c1.4-3.4,2.7-6,4-8.4c0.5-0.9,1.1-1.8,1.7-2.7l0.1-0.2c0.2-0.4,0.6-0.6,0.9-0.9c0.6-0.5,1.2-0.6,1.8-0.3c0.3,0.2,0.6,0.3,0.9,0.5
				l0.4,0.2c0.2,0.1,0.4,0.4,0.3,0.7l0,0.1c0.1,0,0.1,0.1,0.2,0.1c0.1,0.1,0.2,0.2,0.3,0.4c0,0.2,0,0.3-0.1,0.5l-0.2,0.3
				c-0.2,0.3-0.5,0.4-0.8,0.2c-0.1-0.1-0.3-0.1-0.4-0.2c0,0,0,0,0,0l-0.2,0.2c-0.2,0.1-0.4,0.1-0.6,0.1L123,7.5
				c-0.4,0.3-0.6,0.7-0.8,1.2L121.9,9l-1,1.5c-0.2,0.2-0.2,0.2-0.2,0.3c0,0.1,0,0.3-0.1,0.4l-0.2,0.3c-0.1,0.2-0.3,0.4-0.4,0.5
				c-0.2,0.3-0.5,0.6-0.7,0.9c-0.3,0.4-0.5,0.9-0.7,1.4l0,0.1c0.1,0.1,0.1,0.3,0.1,0.4l0,0.2c0,0.2-0.1,0.4-0.1,0.5
				c-0.9,2.9-2.1,5.8-3.2,8.6c-0.4,1-0.8,2-1.2,3c-1.6,4.3-3.2,8.4-4.4,12.6c-0.7,2.4-1.3,4.8-2,7.2l-0.2,0.9
				c-0.2,0.7-0.4,1.5-0.5,2.2c-0.1,0.5-0.2,0.9-0.3,1.4c-0.1,0.2-0.2,0.4-0.4,0.4c0,0,0,0,0,0l-1.5,5.8c0,0.1,0,0.1-0.1,0.2
				c0.1,0,0.2,0.1,0.3,0.1c0.2,0.1,0.3,0.4,0.3,0.6c0,0.2-0.1,0.5-0.1,0.7c0,0.2-0.1,0.4-0.1,0.7c-0.4,3.4-0.9,6.9-1.3,10.3
				c-0.1,0.6-0.2,1.1-0.3,1.7c-0.3,1.1-1,1.5-1.9,1c-0.1,0-0.3,0.1-0.4,0c-0.6-0.2-0.9-0.6-1.1-1.2c-0.2-1-0.4-1.9-0.6-2.9
				c-0.2-1-0.5-2-0.7-3.1c-0.1-0.4-0.2-0.9-0.2-1.3l-0.1-0.6c0-0.1,0-0.3,0.1-0.4l-0.1-0.2c-0.1-0.6-0.3-1.2-0.4-1.8l0-0.1
				c-0.1-0.5-0.3-1-0.3-1.6c0-0.2-0.1-0.4-0.1-0.5l-0.1-0.5c-0.1-0.5-0.3-1-0.2-1.6c-0.1-0.1-0.1-0.2-0.2-0.3c-0.4-2-0.8-3.9-1.1-6
				c-0.1,0.1-0.1,0.1-0.2,0.2c0,0.1,0,0.1-0.1,0.2c0,0.1-0.1,0.2-0.1,0.2c-0.1,0.1-0.1,0.1-0.1,0.1c0.1,0.1,0.1,0.2,0,0.3l-0.1,0.4
				c0,0.2-0.2,0.3-0.3,0.4c0,0,0,0.1-0.1,0.1c0.1,0.1,0.1,0.3,0.1,0.5l-0.7,2.4L93,62.2c-0.1,0.2-0.2,0.4-0.5,0.4c0,0,0,0.1-0.1,0.1
				c-0.1,0.1-0.2,0.2-0.3,0.3c0,0.7-0.1,1.4-0.1,2.1c0,0.1,0.1,0.2,0.1,0.3c0,0.1,0,0.2,0,0.3c0,0.2-0.1,0.4-0.1,0.6
				c-0.1,0.3-0.1,0.7-0.2,1c-0.3,1.4-0.6,2.8-0.9,4.1c-0.1,0.4-0.2,0.9-0.7,1.2c-0.2,0.1-0.4,0.2-0.6,0
				C89.6,72.8,89.5,72.9,89.3,72.9z M101.7,71.7c0.1,0,0.2,0,0.3,0.1c0.2,0.1,0.2,0.1,0.3,0.2c0,0,0-0.1,0.1-0.3
				c0.1-0.5,0.2-1,0.3-1.5c0.4-3.1,0.8-6.2,1.2-9.2c-0.1-0.1-0.2-0.2-0.2-0.4c-0.1-0.4,0-0.8,0-1.2c0-0.1,0-0.2,0-0.3
				c0-0.1,0-0.2,0-0.2c-0.1-0.2-0.1-0.4-0.1-0.6c-0.2,1.1-0.3,2.2-0.5,3.4c-0.1,0.8-0.2,1.6-0.3,2.3l-0.1,0.7
				c-0.1,0.7-0.2,1.3-0.3,2c0,0.2-0.2,0.4-0.4,0.5c-0.2,0.1-0.5,0-0.6-0.2c-0.3-0.3-0.3-0.6-0.4-0.9c-0.1-0.4-0.2-1-0.3-1.5
				c-0.1-0.5-0.2-1-0.3-1.5c-0.1-0.5-0.2-0.9-0.4-1.4c-0.2-0.7-0.3-1.3-0.5-2c-0.1-0.3-0.1-0.7-0.1-1c0-0.3,0-0.5-0.1-0.8
				c-0.1-0.5-0.2-1-0.3-1.5c-0.3-1.5-0.5-2.9-1-4.3c-0.1-0.4-0.1-0.7-0.2-1c0-0.2,0-0.3,0-0.5c0-0.1,0-0.3,0-0.4c0-0.2,0-0.3,0-0.5
				c-0.1-0.5-0.3-1.1-0.5-1.8c-0.1-0.3-0.2-0.4-0.4-0.5c-0.2-0.1-0.4-0.2-0.6-0.4l-0.2,0l-0.2,0c0,0.1,0,0.1,0,0.2l-0.1,0.4
				c-0.1,0.3-0.2,0.5-0.3,0.8c0,0.1-0.1,0.2-0.1,0.3c-0.1,0.4-0.3,0.8-0.7,1.2c-0.2,0.2-0.3,0.5-0.5,0.9c-0.8,2.4-1.5,4.9-2.1,7.2
				l0.1-0.3c0.1-0.2,0.3-0.4,0.5-0.4c0.1,0,0.2,0,0.2,0l0.3-1.1c-0.1,0-0.2-0.1-0.2-0.2c-0.1-0.2-0.1-0.3,0-0.5
				c0.1-0.2,0.1-0.4,0.2-0.5c0.1-0.2,0.3-0.4,0.5-0.4l0.2-0.7c-0.1-0.2-0.2-0.4-0.1-0.6l0.2-0.6c0.1-0.2,0.1-0.4,0.2-0.6
				c0-0.1,0.1-0.2,0.2-0.3c-0.1-0.4,0.1-0.8,0.3-1c0-0.1,0.1-0.3,0.1-0.4l0.1-0.5c0.1-0.2,0.2-0.3,0.4-0.4c0.1-0.3,0.2-0.7,0.7-1
				c0.2-0.1,0.4-0.2,0.6-0.1c0.2,0.1,0.3,0.2,0.4,0.4c0.5,2.5,0.9,4.9,1.4,7.3c0.1,0,0.2,0.1,0.2,0.2c0.1,0.1,0.1,0.3,0.1,0.5
				c-0.1,0.6,0,1.1,0.2,1.6l0.1,0.4c0.1,0.2,0.2,0.5,0.2,0.9c0,0.4,0.1,0.8,0.2,1.2l0,0.2c0.2,0.6,0.3,1.2,0.4,1.9l0.2,0.8
				c0,0.2,0,0.3-0.1,0.5l0,0.1c0.1,0.4,0.1,0.8,0.2,1.2c0.2,1,0.5,2,0.7,3.1c0.2,0.9,0.4,1.9,0.6,2.9c0,0.1,0,0.2,0.1,0.2
				C101.5,71.7,101.6,71.7,101.7,71.7z M83,46.1c0,0.1,0,0.1,0,0.1l0,0.4c0,0.7,0,1.3,0.1,1.9c0.3,1.2,0.6,2.5,0.8,3.7
				c0.3,1.2,0.6,2.5,0.8,3.7c0.8,3.3,1.5,6.6,2.3,9.8c-0.1-0.5-0.1-1-0.1-1.6c0-0.1,0-0.2,0.1-0.3c0,0,0,0,0,0
				c-0.2-0.8-0.3-1.5-0.5-2.3c-0.1-0.7-0.3-1.4-0.4-2.2l-1.2-5c-0.5-2-0.9-4-1.4-6.1l-0.2-0.8c0-0.2,0-0.4,0.1-0.5
				c0.1-0.1,0.3-0.2,0.5-0.2c0.1,0,0.1,0,0.1,0c0,0,0,0,0-0.1c-0.1-0.1-0.1-0.2-0.1-0.3C83.8,46.4,83.4,46.2,83,46.1z M104.8,51.8
				c-0.4,1.7-0.7,3.4-1.1,5.1c0,0.3-0.1,0.5-0.1,0.8c0-0.1,0-0.1,0-0.2l1.4-5.7c-0.1,0-0.1,0-0.2,0
				C104.9,51.8,104.9,51.8,104.8,51.8z M110.6,31.7c0.2,0,0.4,0.2,0.5,0.5c0,0.1,0,0.1,0,0.2c0.7-1.8,1.4-3.6,2.1-5.5
				c0.4-1,0.8-2,1.2-3.1c0.9-2.3,1.9-4.7,2.7-7.1c-0.2-0.1-0.3-0.2-0.3-0.4c-0.2,0.4-0.4,0.8-0.5,1.2c-0.7,1.7-1.4,3.4-2.1,5.1
				l-1,2.4C112.3,27.1,111.4,29.4,110.6,31.7z M123,5.6c-0.1,0-0.2,0-0.3,0.1c-0.3,0.3-0.6,0.5-0.7,0.7l-0.1,0.2
				c-0.6,0.9-1.1,1.7-1.6,2.6c-0.5,0.8-0.9,1.7-1.4,2.6c0.1-0.2,0.2-0.3,0.4-0.5c0.1-0.2,0.2-0.3,0.4-0.5l0-0.1c0-0.5,0.3-0.8,0.5-1
				l0.1-0.1l0.9-1.5c0.3-0.6,0.7-1.4,1.5-1.8c0.2-0.1,0.3-0.1,0.5,0l0.4,0.2l0,0c0.1-0.1,0.2-0.1,0.3-0.2c0,0,0,0,0,0l0-0.1l0,0
				c-0.3-0.2-0.5-0.3-0.7-0.4C123.1,5.7,123,5.6,123,5.6z"/>
		</g>
		<g>
			<path d="M112.7,58.5c0-0.1,0.1-0.1,0.1-0.2c-0.5-0.2-0.9-0.7-1.5-0.7c-0.1,0-0.3-0.2-0.4-0.3c-0.2-0.1-0.4-0.3-0.6-0.5
				c-0.1-0.1-0.1-0.2-0.2-0.3c-0.1-0.2-0.1-0.4-0.2-0.6c-0.4,0.1-0.9,0.6-1.4,0.1c0-0.2-0.1-0.4-0.1-0.6c0.1-0.2,0.3-0.3,0.4-0.5
				l0,0c0.5-0.1,1-0.2,1.4-0.6c0.1-0.1,0.3-0.2,0.3-0.3c0.3-0.6,0.7-1.1,1.2-1.6c0.4-0.5,0.8-0.9,1-1.5c0.1-0.2,0.2-0.4,0.4-0.6
				c0.3-0.4,0.6-0.7,1-1.1c0.4-0.4,0.8-0.8,1.3-1.2c0.3-0.3,0.6-0.3,1-0.2c0.2,0.1,0.5,0.1,0.7,0.2c-0.1,0.1-0.3-0.1-0.2,0.3
				l0.2-0.3c0.7,0.2,1,0.6,0.8,1.3c-0.1,0.5-0.3,0.8-0.5,1.2c-0.7,1-1.6,1.9-2.5,2.8c-0.9,0.8-1.9,1.5-2.9,2.1
				c-0.1,0.1-0.2,0.1-0.3,0.2c0.3,1.2,1.1,1.6,2.9,1.3c-0.1-0.1-0.1-0.1-0.2-0.2c0.5-0.2,0.9-0.4,1.3-0.6c0.4-0.2,0.8-0.5,1.2-0.8
				c0.2,0.1,0.5,0.2,0.7,0.3c0.5,0.2,0.6,0.8,0.2,1.2c-0.7,0.7-1.6,1.2-2.6,1.4l-0.8,0.2C113.8,58.7,113.2,58.5,112.7,58.5z
				 M111.1,55.9c-0.2,0.1-0.1,0.3,0,0.4C111.1,56.2,111.1,56,111.1,55.9z M114.5,51.3l-0.1-0.3c-0.7,0.7-1.3,1.4-1.8,2.2
				C113.3,52.7,114.2,51.8,114.5,51.3z"/>
			<path d="M113.7,59.2c-0.3,0-0.5,0-0.8-0.1l-0.3,0c-0.2,0-0.4-0.1-0.5-0.3c0-0.1-0.1-0.1-0.1-0.2c-0.1,0-0.1-0.1-0.2-0.1
				c-0.3-0.2-0.5-0.3-0.7-0.3c-0.3,0-0.5-0.2-0.6-0.3c-0.3-0.2-0.5-0.4-0.7-0.6c-0.2-0.2-0.3-0.3-0.3-0.5c0,0,0,0,0-0.1
				c-0.4,0.2-1,0.1-1.4-0.2c-0.1-0.1-0.2-0.2-0.2-0.4l0-0.2c0-0.1,0-0.2-0.1-0.4c0-0.2,0-0.3,0.1-0.5c0.1-0.1,0.2-0.3,0.3-0.4l0,0
				l0,0c0.1-0.2,0.3-0.2,0.5-0.2c0.3-0.1,0.7-0.1,0.9-0.4c0.2-0.1,0.2-0.2,0.2-0.2c0.3-0.6,0.8-1.2,1.3-1.7c0.4-0.4,0.7-0.8,0.9-1.3
				c0.1-0.3,0.3-0.5,0.5-0.8c0.3-0.4,0.7-0.8,1-1.1c0.4-0.4,0.9-0.8,1.3-1.2c0.4-0.4,1-0.5,1.5-0.3c0.1,0,0.2,0.1,0.4,0.1l0.2,0.1
				c0,0,0,0,0,0c1,0.3,1.5,1,1.3,2c-0.1,0.6-0.4,1.1-0.6,1.4c-0.8,1.1-1.7,2-2.6,2.9c-0.7,0.6-1.4,1.1-2,1.6
				c-0.3,0.2-0.6,0.4-0.8,0.6c0.2,0.5,0.7,0.6,1.5,0.6c0.1-0.1,0.1-0.1,0.2-0.2l0.4-0.2c0.3-0.1,0.6-0.2,0.8-0.4
				c0.2-0.1,0.4-0.3,0.7-0.4c0.2-0.1,0.4-0.2,0.6-0.4c0.2-0.1,0.3-0.1,0.5-0.1c0.2,0.1,0.5,0.2,0.8,0.3c0.4,0.2,0.7,0.6,0.8,1
				c0.1,0.4-0.1,0.8-0.4,1.1c-0.8,0.8-1.7,1.3-2.8,1.5l-0.8,0.2C114.2,59.2,114,59.2,113.7,59.2z M113.3,58c0.3,0,0.7,0.1,1,0
				l0.8-0.2c0.9-0.2,1.6-0.6,2.3-1.2c0-0.1,0-0.2-0.1-0.2c-0.1-0.1-0.3-0.1-0.4-0.2c-0.1,0.1-0.2,0.1-0.3,0.2
				c-0.3,0.2-0.5,0.3-0.8,0.5c-0.2,0.1-0.5,0.3-0.8,0.4c-0.1,0.2-0.3,0.4-0.5,0.4c-0.6,0.1-1.1,0.1-1.6,0.1c0,0,0,0,0,0
				C113.1,57.7,113.2,57.8,113.3,58z M109.9,55.3c0.2,0,0.5,0.2,0.5,0.4l0,0.1c0.1-0.2,0.2-0.3,0.3-0.4c0.1-0.1,0.2-0.1,0.3-0.1
				c0,0,0.1-0.1,0.1-0.1c0.1-0.1,0.2-0.1,0.3-0.2c0.4-0.3,0.7-0.5,1-0.7c0.6-0.4,1.3-0.9,1.9-1.5c0.8-0.8,1.7-1.7,2.4-2.7
				c0.2-0.4,0.4-0.7,0.4-1c0.1-0.3,0.1-0.4,0-0.5c-0.1,0.2-0.3,0.2-0.5,0.2c-0.2,0-0.4-0.2-0.5-0.4c0,0,0,0,0-0.1
				c-0.2,0-0.3,0-0.4,0.1c-0.4,0.4-0.9,0.8-1.3,1.2c-0.3,0.3-0.6,0.7-1,1.1c-0.1,0.1-0.2,0.3-0.3,0.4c0,0.1-0.1,0.1-0.1,0.2
				c0.3-0.3,0.5-0.6,0.8-0.9c0.1-0.1,0.3-0.2,0.5-0.1c0.2,0,0.3,0.2,0.4,0.3L115,51c0.1,0.2,0.1,0.4,0,0.6c-0.4,0.6-1.3,1.6-2.1,2.1
				c-0.2,0.2-0.5,0.1-0.7-0.1c-0.2-0.2-0.2-0.4-0.2-0.6c-0.4,0.4-0.7,0.9-1,1.3c-0.1,0.2-0.3,0.4-0.4,0.5
				C110.3,55.1,110.1,55.2,109.9,55.3C109.8,55.3,109.8,55.3,109.9,55.3z"/>
		</g>
		<g>
			<path d="M157.4,40.8c-0.1,0.1-0.2,0.3-0.2,0.4c-0.1,0.2-0.4,0.2-0.6,0.2c-0.1-0.4,0.6-0.6,0.2-1l-0.5,0.2c0-0.2-0.1-0.4-0.1-0.7
				l-0.5,1.1c-0.2-0.4,0-0.7,0.2-1c0.4-0.7,0.4-1.5-0.2-2.2c0-0.1-0.1-0.1-0.2-0.2c-0.1,0-0.1,0-0.2-0.1c0,0.1-0.1,0.1-0.1,0.3
				c-1.1-0.2-2,0.5-2.9,0.8c-0.6,0.2-1,0.6-1.5,1c-1,0.7-1.9,1.4-2.8,2.1l-0.5,0.4l0.1,1.9c0.2,3.2,0.4,6.4,0.6,9.7
				c0.1,2.8,0.2,5.6,0.3,8.4c0,0.8,0,1.6,0,2.4c0,0.5,0,0.9,0.1,1.4c0.2,1.5,0.2,2.9,0.1,4.4c0,0.1,0,0.3,0,0.4
				c0.3,2.3,0.2,4.5,0.1,6.8c0,0.3-0.2,0.6,0.1,0.8c0,0-0.1,0.1-0.1,0.2c0,0.3-0.2,0.6-0.1,0.8c0.3,1,0.1,2,0.1,2.9
				c0,0.3-0.1,0.7-0.3,1c0-0.1-0.1-0.2-0.1-0.3c0-0.6,0.2-1.2,0-1.8l-0.2,0.6L148,83c-0.1,0.3-0.3,0.5-0.6,0.7
				c-0.4,0.3-0.8,0.7-1.3,1.1l-0.2-1c0.3-0.3,0.6-0.5,0.7-0.9c0.2-0.4,0.2-0.9,0.3-1.3c0-2.1,0.1-4.2,0-6.3
				c-0.2-5.2-0.3-10.3-0.5-15.5c-0.1-3-0.3-6-0.4-9c0-0.9,0-1.8,0-2.7c0-0.9-0.1-1.7-0.1-2.6l0-1.3c0-0.3,0-0.5,0-1l-1,0.8
				c-4,3.4-7.2,7.4-9.7,11.9c-0.7,1.3-1.3,2.7-1.9,4c-0.1,0.2-0.2,0.5-0.1,0.7c0,0.4-0.2,0.7-0.4,1c-0.2,0.3-0.5,0.4-0.9,0.3
				c-0.1,0-0.2,0.1-0.3,0.1c-0.3-0.2-0.3-0.2-0.3-0.6l-0.2,0.1c0-0.1-0.1-0.1-0.1-0.2c0-0.3,0-0.5-0.3-0.6c-0.1,0-0.1,0-0.1-0.1
				c-0.1-0.2-0.1-0.3-0.2-0.5c0-0.5-0.4-0.8-0.2-1.3c0.4-1.1,0.7-2.3,1-3.4c0-0.1,0.1-0.2,0.1-0.2c0.5-0.3,0.4-0.7,0.4-1.1
				c0-0.3,0-0.6,0.1-0.8c2.2-7.6,4.7-15,7.9-22.3c0.4-0.9,0.7-1.8,1.3-2.5c0.2-0.2,0.4-0.5,0.7-0.6c0.3-0.1,0.5-0.6,0.7-0.9
				c0.2-0.2,0.3-0.4,0.5-0.5c0.3-0.3,0.6-0.4,1-0.2c0.3,0.1,0.6,0.3,0.9,0.4c0.7,0.3,1,1,1.2,1.7c0.2,1,0.3,2,0.5,3.1
				c0.4,2.4,0.6,4.9,0.7,7.4c0,0.5,0.1,1,0.1,1.5c0.6-0.3,1.1-0.6,1.6-0.9c1-0.7,1.9-1.3,2.8-2.1c0.8-0.7,1.8-0.9,2.7-1.2
				c1-0.3,2.6,0.3,3.2,1.1C158.2,38.2,158.2,39.9,157.4,40.8z M143.9,27.7c-0.4,0.5-0.8,0.9-1.1,1.4c-0.4,0.7-0.8,1.4-1.1,2.1
				c-1.2,2.5-2.3,5-3.4,7.5c-0.4,0.8-0.7,1.6-0.8,2.5c-0.3,2-0.8,3.9-1.5,5.7c-0.1,0.1-0.2,0.3-0.3,0.4c-0.4-0.5-0.1-1,0-1.4
				c0.1-0.5,0.3-1,0.4-1.5c0-0.5,0.5-0.8,0.3-1.3c-0.2,0.8-0.9,1.3-0.9,2.2c0,0.8-0.4,1.5-0.6,2.2c-0.3,1-0.7,2-0.7,3.1
				c0.1,0,0.1,0,0.2,0c-0.2,1-0.5,2.1-0.7,3.1c-0.1,0.3-0.1,0.6,0.1,0.9l0.2-0.3c0.4-0.8,0.8-1.7,1.2-2.5c0.1-0.3,0.3-0.5,0.4-0.8
				c0.4-1,1.1-1.9,2-2.5c0.1-0.1,0.3-0.3,0.4-0.4c0.2-0.4,0.5-0.7,0.8-1.1c0.4-0.4,0.7-0.8,1-1.2c0.2-0.2,0.4-0.5,0.7-0.7
				c0.3-0.3,0.6-0.5,1-0.8c0.2-0.1,0.4-0.1,0.6-0.3c1.1-0.8,2.1-1.7,3.2-2.5c0.2-0.1,0.2-0.3,0-0.5c-0.9,0.8-1.8,1.5-2.7,2.3
				c-0.4,0.3-0.8,0.6-1.2,0.8c0.1-0.2,0.3-0.3,0.4-0.5c0.4-0.3,0.7-0.7,1.1-1l2.4-2c0-0.4,0.1-0.8,0-1.2c-0.2-0.6-0.2-1.2-0.3-1.8
				c-0.2-2.1-0.4-4.1-0.5-6.2l-0.2-2.2C144.4,28.7,144.3,28.2,143.9,27.7z M141.3,29.3C141.4,29.4,141.4,29.4,141.3,29.3
				c0.1,0.1,0.1,0.1,0.1,0c0.1-0.2,0.2-0.3,0.1-0.6C141.4,29,141.4,29.2,141.3,29.3z M148.1,67.7c-0.1-0.1-0.3-0.2-0.5-0.4l0.1,3.1
				c0.1-0.3,0.1-0.7,0.2-1c0.3-0.4,0.2-0.8,0.1-1.2C148.1,68.1,148.1,67.9,148.1,67.7z M148.5,80.2c0,0.3,0,0.4,0,0.6
				c0,0.1,0,0.1,0.1,0.1C148.6,80.7,148.7,80.5,148.5,80.2z M156.5,39c0,0.2-0.1,0.4-0.2,0.6C156.5,39.5,156.6,39.3,156.5,39z"/>
			<path d="M146.1,85.4c-0.1,0-0.1,0-0.2,0c-0.2-0.1-0.4-0.2-0.4-0.4l-0.2-1c0-0.2,0-0.4,0.1-0.5c0.1-0.1,0.2-0.2,0.3-0.3
				c0.1-0.2,0.3-0.3,0.3-0.4c0.1-0.3,0.2-0.7,0.2-1.1l0-1.2c0-1.7,0-3.4,0-5.1l0-1.3c-0.1-4.7-0.3-9.4-0.5-14.1
				c-0.1-1.4-0.1-2.9-0.2-4.3c-0.1-1.6-0.2-3.1-0.2-4.7c0-0.5,0-1.1,0-1.6c0-0.4,0-0.7,0-1.1c0-0.6-0.1-1.2-0.1-1.9l-0.1-1.8l0,0
				c-3.9,3.3-7.1,7.3-9.5,11.8c-0.5,0.9-0.9,1.9-1.3,2.8l-0.5,1.2c-0.1,0.1-0.1,0.3-0.1,0.4c0.1,0.6-0.2,1-0.4,1.3
				c-0.6,0.8-1.1,0.8-1.5,0.7c-0.2,0.1-0.5,0.1-0.6,0c-0.2-0.2-0.3-0.3-0.4-0.4c-0.1,0-0.2-0.1-0.3-0.3c-0.1-0.1-0.2-0.3-0.2-0.6
				c-0.3-0.1-0.4-0.3-0.4-0.5c-0.1-0.2-0.1-0.3-0.2-0.5c0-0.1,0-0.2-0.1-0.4c-0.1-0.3-0.3-0.7-0.1-1.2c0.3-0.8,0.5-1.5,0.7-2.2
				c0.1-0.4,0.2-0.8,0.3-1.1c0,0,0.1-0.4,0.3-0.6c0.1-0.1,0.2-0.1,0.1-0.4l0-0.3c0-0.3,0-0.6,0.1-1c2.6-8.8,5.1-15.9,7.9-22.4
				l0.2-0.3c0.3-0.8,0.7-1.6,1.2-2.3c0.2-0.3,0.5-0.6,0.9-0.8c0.1,0,0.2-0.3,0.3-0.4c0.1-0.1,0.1-0.2,0.2-0.3l0.2-0.2
				c0.1-0.1,0.2-0.3,0.3-0.4c0.3-0.4,0.8-0.5,1.1-0.5c0.2,0,0.4,0,0.5,0.1c0.3,0.1,0.6,0.3,0.8,0.4c0.9,0.4,1.4,1.1,1.7,2.2
				c0.2,0.8,0.3,1.6,0.4,2.4l0.1,0.7c0.3,2.2,0.5,4.5,0.7,7.4c0,0.2,0,0.4,0,0.6c0.3-0.1,0.5-0.3,0.7-0.4l0.7-0.5
				c0.7-0.5,1.4-1,2-1.5c0.8-0.6,1.6-0.9,2.4-1.2l0.5-0.2c1.1-0.4,3.1,0.3,3.9,1.3c0.8,1.1,0.7,3.2-0.1,4.2c0,0.1-0.1,0.1-0.1,0.2
				l-0.1,0.2c-0.3,0.4-0.8,0.6-1.3,0.4c-0.2-0.1-0.3-0.2-0.4-0.4c0,0,0,0,0-0.1c-0.1,0.1-0.2,0.1-0.3,0.1l0,0
				c-0.2,0-0.5-0.2-0.5-0.4c-0.3-0.8,0.1-1.3,0.3-1.6c0.2-0.4,0.2-0.9,0-1.3c-0.1,0-0.2,0-0.3,0c-0.6-0.1-1.2,0.2-1.9,0.5
				c-0.2,0.1-0.5,0.2-0.7,0.3c-0.4,0.2-0.7,0.4-1.1,0.7l-0.3,0.2c-1,0.7-1.9,1.4-2.8,2.1l-0.3,0.2l0.2,3.1c0.2,2.7,0.3,5.4,0.5,8.2
				c0.1,2.8,0.2,5.6,0.3,8.4c0,0.5,0,0.9,0,1.4c0,0.3,0,0.7,0,1c0,0.4,0.1,0.9,0.1,1.3c0.2,1.3,0.2,2.7,0.1,4.5c0,0,0,0.3,0,0.3
				c0.3,2,0.2,4,0.2,5.9l0,1c0,0.1,0,0.2,0,0.3c0,0.1,0,0.1,0,0.2c0.1,0.1,0.1,0.1,0.1,0.2c0,0.1,0,0.4-0.1,0.5l0,0c0,0,0,0.1,0,0.2
				c0,0.1,0,0.2,0,0.3c0.3,0.9,0.2,1.8,0.2,2.6l0,0.5c0,0.4-0.1,0.8-0.4,1.3c-0.1,0.2-0.4,0.3-0.6,0.3c-0.1,0-0.2,0-0.2-0.1
				c-0.2,0.2-0.3,0.4-0.5,0.5c-0.3,0.3-0.6,0.5-0.9,0.8l-0.3,0.3C146.4,85.4,146.3,85.4,146.1,85.4z M147.4,70.8
				c0,1,0.1,2.1,0.1,3.1l0,1.3c0,1.7,0,3.5,0,5.2l0,1.2c0,0.4-0.1,0.9-0.3,1.4c0.1-0.1,0.1-0.2,0.2-0.3l0.5-1.8c0-0.1,0-0.2,0-0.2
				c0-0.2,0-0.4,0-0.7c0-0.2,0.2-0.4,0.4-0.5c0-0.1,0-0.2-0.1-0.2c-0.1-0.3-0.1-0.6,0-0.9c0-0.1,0-0.1,0-0.2
				c-0.1-0.3-0.1-0.6-0.1-0.8l0-1.1c0-1.9,0.1-3.7-0.1-5.5c-0.1,0.1-0.2,0.1-0.4,0.1C147.6,71,147.5,70.9,147.4,70.8z M145.9,42.7
				c0.1,0,0.1,0,0.2,0c0.2,0.1,0.3,0.3,0.4,0.5l0,0.2c0,0.3,0,0.6,0,0.8l0,1.9c0,0.6,0.1,1.3,0.1,1.9c0,0.4,0,0.8,0,1.2
				c0,0.5,0,1,0,1.5c0.1,1.6,0.1,3.1,0.2,4.7c0.1,1.4,0.1,2.9,0.2,4.3c0.1,2.4,0.2,4.7,0.2,7.1c0.1-0.1,0.1-0.1,0.2-0.1
				c0.2-0.1,0.4-0.1,0.6,0.1c0-0.3-0.1-0.6-0.1-0.9c-0.1-0.5-0.1-1-0.1-1.4c0-0.3,0-0.7,0-1c0-0.4,0-0.9,0-1.3
				c-0.1-2.8-0.2-5.6-0.3-8.4c-0.1-2.7-0.3-5.4-0.5-8.2l-0.2-3.5c0-0.2,0.1-0.4,0.2-0.5l0.5-0.4c0.6-0.4,1.1-0.9,1.7-1.3l-0.1,0.1
				c-0.4,0.2-0.7,0.4-1.1,0.7l-0.5,0.3c-0.2,0.1-0.4,0.1-0.6,0c-0.2-0.1-0.3-0.3-0.3-0.5l0-0.4c0-0.4-0.1-0.8-0.1-1.1
				c-0.1-2.8-0.3-5.2-0.7-7.3l-0.1-0.7c-0.1-0.8-0.3-1.6-0.4-2.4c-0.2-0.7-0.4-1.1-0.9-1.3c-0.4-0.2-0.7-0.3-1-0.4
				c-0.1,0-0.2,0-0.2,0.1c-0.1,0.1-0.2,0.2-0.3,0.3l-0.3,0.4c-0.2,0.3-0.4,0.6-0.7,0.8c0.1,0.2,0.2,0.4,0.2,0.5
				c0-0.1,0.1-0.1,0.1-0.2c0.2-0.3,0.5-0.7,0.7-1c0.1-0.2,0.3-0.3,0.4-0.5c0.1-0.1,0.3-0.2,0.5-0.2c0.2,0,0.4,0.1,0.5,0.2
				c0.5,0.7,0.7,1.4,0.7,1.9l0.3,3.2c0.1,1.8,0.3,3.5,0.4,5.3l0,0.4c0,0.5,0.1,0.9,0.2,1.3c0.2,0.4,0.1,0.7,0.1,1.1
				c0,0.1,0,0.2,0,0.3c0,0.1,0,0.2-0.1,0.3c0.1,0.1,0.1,0.3,0.1,0.4c0,0.2-0.1,0.5-0.3,0.7l-0.9,0.7c-0.8,0.6-1.5,1.2-2.3,1.8
				c-0.2,0.1-0.4,0.2-0.5,0.3c-0.1,0-0.1,0-0.2,0.1l-0.1,0.1c-0.3,0.2-0.5,0.4-0.7,0.6c-0.2,0.2-0.4,0.4-0.6,0.6
				c-0.2,0.3-0.4,0.4-0.5,0.6c-0.2,0.2-0.4,0.5-0.6,0.7l-0.1,0.1c-0.2,0.3-0.4,0.5-0.6,0.8c-0.2,0.3-0.4,0.6-0.6,0.7
				c-0.8,0.6-1.4,1.3-1.8,2.3c-0.1,0.2-0.2,0.4-0.3,0.6l-0.2,0.4c-0.4,0.8-0.8,1.5-1.2,2.3l-0.2,0.4c-0.1,0.2-0.3,0.3-0.5,0.3
				c0,0,0,0,0,0c-0.2,0-0.4-0.1-0.5-0.3c-0.3-0.5-0.2-1-0.2-1.3c0.2-0.9,0.4-1.7,0.6-2.6c-0.1-0.1-0.1-0.2-0.2-0.3
				c-0.1-1,0.2-1.8,0.5-2.7c0.1-0.2,0.1-0.4,0.2-0.6c0.1-0.3,0.2-0.5,0.3-0.8c0.2-0.4,0.3-0.8,0.3-1.2c-0.8,2.6-1.7,5.3-2.6,8.2
				c-0.1,0.2-0.1,0.4-0.1,0.6l0,0.2c0,0.3,0,0.9-0.5,1.3c-0.1,0.4-0.2,0.8-0.3,1.2c-0.2,0.8-0.4,1.5-0.7,2.3c0,0.1,0,0.2,0.1,0.4
				c0.1,0.2,0.2,0.4,0.2,0.7c0,0,0,0,0,0c0,0,0,0,0,0.1c0.2,0.1,0.4,0.3,0.5,0.6c0,0,0,0,0,0c0.2,0.1,0.3,0.3,0.3,0.4
				c0,0,0.1,0,0.2,0c0.2,0,0.2,0,0.2-0.1c0.2-0.3,0.3-0.4,0.3-0.5c0-0.3,0-0.7,0.2-1.1l0.5-1.1c0.4-1,0.9-1.9,1.4-2.9
				c2.5-4.6,5.8-8.7,9.8-12.1l1-0.8C145.6,42.7,145.7,42.7,145.9,42.7z M134.9,50.2c0.2,0.1,0.3,0.4,0.2,0.6c0,0.2-0.1,0.3-0.1,0.5
				c0.1-0.1,0.2-0.3,0.2-0.4c0.5-1.2,1.2-2.1,2.2-2.8c0.1-0.1,0.2-0.2,0.2-0.2c0.2-0.4,0.5-0.7,0.7-1l0.1-0.1
				c0.2-0.2,0.4-0.4,0.6-0.7c0.2-0.2,0.3-0.4,0.5-0.5c0.3-0.3,0.5-0.6,0.8-0.8c0.2-0.2,0.5-0.4,0.7-0.6c0-0.1,0.1-0.2,0.1-0.3
				l0.1-0.2c0.1-0.1,0.2-0.3,0.3-0.4c0.4-0.4,0.8-0.7,1.2-1.1l2.2-1.8c0,0,0-0.1,0-0.1c0-0.2,0-0.4,0-0.5c-0.2-0.6-0.3-1.1-0.3-1.7
				l0-0.3c-0.2-1.7-0.3-3.5-0.4-5.3l-0.3-3.2c0-0.2-0.1-0.4-0.1-0.6c-0.2,0.2-0.3,0.4-0.4,0.6c-0.4,0.7-0.7,1.4-1.1,2.1
				c-1.1,2.5-2.3,5-3.4,7.5c-0.3,0.7-0.6,1.5-0.7,2.3c-0.2,1.8-0.7,3.6-1.5,5.8c-0.1,0.1-0.1,0.2-0.2,0.3c0,0.1-0.1,0.1-0.1,0.2
				c-0.1,0.2-0.3,0.3-0.5,0.3c-0.1,0-0.2,0-0.3-0.1c0,0.2-0.1,0.3-0.2,0.5C135.2,49,135,49.6,134.9,50.2z M141,29.8
				c-0.2,0.4-0.4,0.8-0.6,1.2l-0.2,0.4c-1.7,3.9-3.2,7.9-4.8,12.5c0,0,0,0,0,0c0.2-0.3,0.3-0.5,0.3-0.7c0.1-0.3,0.3-0.5,0.5-0.5
				c0.1,0,0.2,0,0.3,0c0.1-0.5,0.2-1,0.3-1.5c0.1-1,0.5-1.9,0.8-2.7c1.1-2.5,2.3-5,3.4-7.5c0.2-0.3,0.3-0.7,0.5-1.1
				c0,0-0.1,0-0.1,0.1c-0.2,0-0.3,0-0.5-0.1C141.1,29.9,141,29.8,141,29.8z M157,39.7c0.1,0,0.2,0.1,0.3,0.1
				c0.2-0.7,0.2-1.7-0.2-2.3c-0.4-0.6-1.9-1.1-2.5-0.9l-0.5,0.2c-0.7,0.3-1.5,0.5-2,1c-0.2,0.2-0.4,0.3-0.6,0.5
				c0.2-0.1,0.4-0.2,0.6-0.3c0.2-0.1,0.4-0.2,0.7-0.3c0.7-0.3,1.3-0.6,2.1-0.6c0.1-0.1,0.2-0.2,0.3-0.2c0.1,0,0.3,0,0.5,0.1
				c0.1,0,0.1,0,0.2,0.1c0,0,0.1,0.1,0.1,0.1c0.1,0.1,0.2,0.2,0.3,0.3c0.3,0.3,0.5,0.7,0.5,1.1c0.1,0.1,0.2,0.2,0.2,0.3
				C157.2,39.1,157.1,39.5,157,39.7z"/>
		</g>
		<g>
			<path d="M159.2,40.8c0.1,0.5-0.2,1.2-0.7,1.5c-0.1-0.1-0.3-0.2-0.4-0.4c0,0-0.1,0-0.1,0c-0.2,0-0.4,0.3-0.6,0.1
				c0,0-0.2,0.1-0.3,0.2c-0.3,0.2-0.6,0.4-0.9,0.7c-0.6,0.6-1.1,1.2-1.6,1.9l0,0c-0.1,0.3-0.2,0.7-0.4,1c-0.2,0.5-0.5,0.9-0.8,1.4
				c-0.2,0.3-0.3,0.7-0.4,1c-0.1,0.7-0.4,1.3-0.6,2l-0.9-0.3c-0.2-0.3-0.4-0.7-0.6-1.1c0.4-2.8,1.2-5.6,1.4-8.5l0.8,0.2
				c0,0.1,0,0.3,0.1,0.5c0.2,0,0.4,0,0.7,0c0,0.5,0,1,0,1.6c0.1-0.2,0.3-0.3,0.3-0.4c0.7-0.9,1.5-1.6,2.5-2.1
				c0.3-0.1,0.5-0.2,0.8-0.3c0.1,0,0.3,0,0.4,0.1c0.2,0.1,0.4,0.3,0.6,0.5c0.1,0,0.2,0,0.4,0C159.1,40.5,159.2,40.6,159.2,40.8z
				 M154.6,44.9c0-0.1-0.1-0.1-0.1-0.2c-0.5,0.5-0.8,1.1-1.2,1.7c-0.1,0.1,0,0.3,0,0.6c0.4-0.7,0.7-1.3,1-1.8
				C154.4,45.1,154.5,45,154.6,44.9z M157.9,40.3c-0.4-0.2-0.6,0-0.9,0.1c-0.9,0.4-1.7,1-2.4,1.9C155.8,41.5,156.8,40.9,157.9,40.3z
				"/>
			<path d="M152.5,50.8c0,0-0.1,0-0.1,0l-0.9-0.3c-0.2,0-0.3-0.1-0.4-0.3l-0.1-0.2c-0.1-0.3-0.3-0.6-0.5-0.9c0-0.1-0.1-0.2-0.1-0.3
				c0.2-1.2,0.4-2.4,0.6-3.5c0.3-1.6,0.6-3.2,0.7-4.9c0-0.2,0.1-0.3,0.2-0.4c0.1-0.1,0.3-0.1,0.5-0.1l0.8,0.2
				c0.2,0.1,0.4,0.2,0.4,0.4l0.2,0c0.1,0,0.3,0.1,0.4,0.2c0.1,0.1,0.2,0.2,0.2,0.4c0.6-0.6,1.3-1.1,2-1.4c0.3-0.1,0.6-0.3,0.9-0.3
				c0,0,0.2,0,0.2,0c0.2,0,0.5,0.1,0.7,0.3c0.1,0,0.2,0.2,0.4,0.3c0,0,0.1,0,0.1,0.1c0.1,0,0.1,0,0.1,0c0.4,0,0.8,0.2,0.9,0.8
				c0.2,0.8-0.2,1.7-1,2.2c-0.2,0.1-0.5,0.1-0.7-0.1l-0.1-0.1c-0.1,0.1-0.3,0.1-0.5,0.1c-0.3,0.2-0.5,0.4-0.8,0.6
				c-0.6,0.5-1.1,1.2-1.5,1.8l-0.1,0.1c-0.1,0.3-0.2,0.6-0.4,0.8c-0.1,0.3-0.3,0.6-0.5,0.9c-0.1,0.2-0.2,0.3-0.3,0.5
				c-0.2,0.3-0.3,0.6-0.3,0.8c-0.1,0.5-0.3,1-0.4,1.5l-0.2,0.5C153,50.7,152.7,50.9,152.5,50.8z M152,49.5l0.1,0l0,0
				c0.1-0.5,0.3-0.9,0.4-1.4c0.1-0.3,0.2-0.6,0.3-0.9c0-0.1-0.1-0.2-0.1-0.3l0-0.2c0-0.2,0-0.5,0.1-0.7l0.1-0.2
				c0.3-0.6,0.6-1.1,1.2-1.6c0.1-0.1,0.3-0.2,0.4-0.2c0.4-0.5,0.8-1.1,1.4-1.5c0.3-0.3,0.6-0.5,0.9-0.7c0.3-0.3,0.5-0.3,0.8-0.2
				c0.1-0.1,0.2-0.1,0.4-0.2c0,0,0.1,0,0.1,0c0.2,0,0.3,0,0.5,0.1c0.1-0.1,0.1-0.3,0.1-0.4c0,0-0.1,0-0.1,0c-0.1,0-0.3,0-0.4-0.1
				c-0.1,0-0.1-0.1-0.2-0.1l-1,0.6c-0.7,0.4-1.4,0.8-2.1,1.3c-0.1,0.1-0.3,0.1-0.4,0.1c0,0,0,0-0.1,0.1l-0.1,0.2
				c-0.2,0.2-0.4,0.3-0.7,0.2c-0.2-0.1-0.4-0.3-0.4-0.6c0-0.3,0-0.6,0-0.9c0,0-0.1,0-0.1,0c-0.1,0-0.2,0-0.3-0.1
				c-0.2,1.3-0.4,2.7-0.7,3.9c-0.2,1.1-0.4,2.2-0.6,3.3C151.7,49,151.8,49.3,152,49.5z"/>
		</g>
		<g>
			<path d="M163.4,46.8c0-0.1,0.1-0.1,0.1-0.2c-0.5-0.2-0.9-0.7-1.5-0.7c-0.1,0-0.3-0.2-0.4-0.3c-0.2-0.1-0.4-0.3-0.6-0.5
				c-0.1-0.1-0.1-0.2-0.2-0.3c-0.1-0.2-0.1-0.4-0.2-0.6c-0.4,0.1-0.9,0.6-1.4,0.1c0-0.2-0.1-0.4-0.1-0.6c0.1-0.2,0.3-0.3,0.4-0.5
				l0,0c0.5-0.1,1-0.2,1.4-0.6c0.1-0.1,0.3-0.2,0.3-0.3c0.3-0.6,0.7-1.1,1.2-1.6c0.4-0.5,0.8-0.9,1-1.5c0.1-0.2,0.2-0.4,0.4-0.6
				c0.3-0.4,0.6-0.7,1-1.1c0.4-0.4,0.8-0.8,1.3-1.2c0.3-0.3,0.6-0.3,1-0.2c0.2,0.1,0.5,0.1,0.7,0.2c-0.1,0.1-0.4-0.1-0.2,0.3
				l0.2-0.3c0.7,0.2,1,0.6,0.8,1.3c-0.1,0.5-0.3,0.8-0.5,1.2c-0.7,1-1.6,1.9-2.5,2.8c-0.9,0.8-1.9,1.5-2.9,2.1
				c-0.1,0.1-0.2,0.1-0.3,0.2c0.3,1.2,1.1,1.6,2.9,1.3c-0.1-0.1-0.1-0.1-0.2-0.2c0.5-0.2,0.9-0.4,1.3-0.6c0.4-0.2,0.8-0.5,1.2-0.8
				c0.2,0.1,0.5,0.2,0.7,0.3c0.5,0.2,0.6,0.8,0.2,1.2c-0.7,0.7-1.6,1.2-2.6,1.4l-0.8,0.2C164.5,47,164,46.8,163.4,46.8z M161.9,44.2
				c-0.2,0.1-0.1,0.3,0,0.4C161.9,44.5,161.9,44.3,161.9,44.2z M165.3,39.6l-0.1-0.3c-0.7,0.7-1.3,1.4-1.8,2.2
				C164.1,41,164.9,40.1,165.3,39.6z"/>
			<path d="M164.4,47.5c-0.3,0-0.5,0-0.8-0.1l-0.3,0c-0.2,0-0.3-0.1-0.4-0.3c0-0.1-0.1-0.2-0.1-0.2c-0.1,0-0.1-0.1-0.2-0.1
				c-0.3-0.2-0.5-0.3-0.7-0.3c-0.3,0-0.5-0.2-0.6-0.3c-0.3-0.2-0.5-0.4-0.7-0.6c-0.2-0.2-0.3-0.3-0.3-0.5c0,0,0-0.1,0-0.1
				c-0.4,0.2-1,0.1-1.4-0.2c-0.1-0.1-0.2-0.2-0.2-0.4c0-0.1,0-0.1,0-0.2c0-0.1,0-0.2-0.1-0.3c0-0.2,0-0.3,0.1-0.5
				c0.2-0.2,0.3-0.3,0.4-0.4c0.1-0.2,0.3-0.2,0.5-0.2c0.4-0.1,0.7-0.2,0.9-0.4c0.1-0.1,0.2-0.2,0.2-0.2c0.3-0.6,0.8-1.2,1.3-1.7
				c0.4-0.4,0.7-0.8,0.9-1.3c0.1-0.3,0.2-0.5,0.4-0.8c0.3-0.4,0.7-0.8,1-1.1c0.4-0.4,0.9-0.8,1.3-1.2c0.4-0.4,1-0.5,1.5-0.3
				c0.1,0,0.3,0.1,0.4,0.1l0.2,0.1c0,0,0,0,0,0l0,0c0,0,0,0,0,0c1,0.3,1.5,1,1.3,2c-0.1,0.5-0.3,0.9-0.6,1.4
				c-0.8,1.1-1.7,2.1-2.6,2.9c-0.7,0.6-1.4,1.1-2.1,1.6c-0.3,0.2-0.6,0.4-0.8,0.6c0.2,0.5,0.7,0.6,1.5,0.6c0.1-0.1,0.1-0.1,0.2-0.2
				l0.4-0.2c0.3-0.1,0.6-0.2,0.8-0.4c0.2-0.1,0.5-0.3,0.7-0.4c0.2-0.1,0.4-0.2,0.6-0.4c0.1-0.1,0.3-0.1,0.5-0.1
				c0.2,0.1,0.5,0.2,0.8,0.3c0.4,0.2,0.7,0.6,0.8,1c0.1,0.4-0.1,0.8-0.4,1.1c-0.8,0.7-1.7,1.3-2.8,1.5l-0.8,0.2
				C165,47.5,164.7,47.5,164.4,47.5z M164,46.3c0.3,0,0.7,0.1,0.9,0l0.8-0.2c0.9-0.2,1.6-0.6,2.3-1.2c0-0.1,0-0.2-0.1-0.2
				c-0.1-0.1-0.3-0.1-0.4-0.2c-0.1,0.1-0.2,0.1-0.3,0.2c-0.3,0.2-0.5,0.3-0.8,0.5c-0.2,0.1-0.5,0.3-0.8,0.4
				c-0.1,0.2-0.2,0.4-0.5,0.4c-0.6,0.1-1.1,0.1-1.6,0c0,0,0,0,0,0C163.8,46,163.9,46.1,164,46.3z M160.6,43.6c0.2,0,0.5,0.2,0.5,0.4
				c0,0,0,0.1,0,0.1c0.1-0.2,0.2-0.3,0.3-0.4c0.1-0.1,0.2-0.1,0.3-0.1c0,0,0.1-0.1,0.1-0.1c0.1-0.1,0.2-0.1,0.2-0.2
				c0.4-0.3,0.7-0.5,1-0.7c0.7-0.5,1.3-0.9,1.9-1.5c0.8-0.8,1.7-1.6,2.4-2.7c0.2-0.4,0.4-0.7,0.4-1c0.1-0.3,0.1-0.4,0-0.5
				c-0.1,0.1-0.3,0.2-0.5,0.2c-0.2,0-0.4-0.2-0.5-0.4c0,0,0,0,0-0.1c-0.2,0-0.3,0-0.4,0.1c-0.4,0.4-0.9,0.8-1.3,1.2
				c-0.3,0.3-0.6,0.7-0.9,1.1c-0.1,0.1-0.2,0.3-0.3,0.4c0,0.1-0.1,0.2-0.1,0.2c0.3-0.3,0.5-0.6,0.8-0.9c0.1-0.1,0.3-0.2,0.5-0.1
				c0.2,0,0.3,0.1,0.4,0.3l0.1,0.3c0.1,0.2,0.1,0.4,0,0.6c-0.4,0.6-1.3,1.6-2.1,2.1c-0.2,0.2-0.5,0.1-0.7-0.1
				c-0.2-0.2-0.2-0.4-0.1-0.6c-0.4,0.4-0.7,0.9-1,1.3c-0.1,0.2-0.3,0.4-0.5,0.5C161.1,43.4,160.8,43.5,160.6,43.6
				C160.6,43.6,160.6,43.6,160.6,43.6z"/>
		</g>
	</g>
</g>
</svg>
